<mxfile host="app.diagrams.net" agent="Mozilla/5.0 (Windows NT 10.0; Win64; x64) AppleWebKit/537.36 (KHTML, like Gecko) Chrome/131.0.0.0 Safari/537.36" version="25.0.1">
  <diagram id="C5RBs43oDa-KdzZeNtuy" name="Page-1">
    <mxGraphModel dx="2206" dy="1188" grid="1" gridSize="10" guides="1" tooltips="1" connect="1" arrows="1" fold="1" page="1" pageScale="1" pageWidth="1169" pageHeight="827" math="0" shadow="0">
      <root>
        <mxCell id="WIyWlLk6GJQsqaUBKTNV-0" />
        <mxCell id="WIyWlLk6GJQsqaUBKTNV-1" parent="WIyWlLk6GJQsqaUBKTNV-0" />
        <mxCell id="zkfFHV4jXpPFQw0GAbJ--0" value="KOLOM " style="swimlane;fontStyle=2;align=center;verticalAlign=top;childLayout=stackLayout;horizontal=1;startSize=26;horizontalStack=0;resizeParent=1;resizeLast=0;collapsible=1;marginBottom=0;rounded=0;shadow=0;strokeWidth=1;fontSize=9;" parent="WIyWlLk6GJQsqaUBKTNV-1" vertex="1">
          <mxGeometry x="400" y="30" width="70" height="160" as="geometry">
            <mxRectangle x="230" y="140" width="160" height="26" as="alternateBounds" />
          </mxGeometry>
        </mxCell>
        <mxCell id="zkfFHV4jXpPFQw0GAbJ--2" value="id " style="text;align=left;verticalAlign=top;spacingLeft=4;spacingRight=4;overflow=hidden;rotatable=0;points=[[0,0.5],[1,0.5]];portConstraint=eastwest;rounded=0;shadow=0;html=0;fontSize=9;" parent="zkfFHV4jXpPFQw0GAbJ--0" vertex="1">
          <mxGeometry y="26" width="70" height="26" as="geometry" />
        </mxCell>
        <mxCell id="zkfFHV4jXpPFQw0GAbJ--1" value="Name" style="text;align=left;verticalAlign=top;spacingLeft=4;spacingRight=4;overflow=hidden;rotatable=0;points=[[0,0.5],[1,0.5]];portConstraint=eastwest;fontSize=9;" parent="zkfFHV4jXpPFQw0GAbJ--0" vertex="1">
          <mxGeometry y="52" width="70" height="26" as="geometry" />
        </mxCell>
        <mxCell id="zkfFHV4jXpPFQw0GAbJ--3" value="Email Address" style="text;align=left;verticalAlign=top;spacingLeft=4;spacingRight=4;overflow=hidden;rotatable=0;points=[[0,0.5],[1,0.5]];portConstraint=eastwest;rounded=0;shadow=0;html=0;fontSize=9;" parent="zkfFHV4jXpPFQw0GAbJ--0" vertex="1">
          <mxGeometry y="78" width="70" height="26" as="geometry" />
        </mxCell>
        <mxCell id="ckDCzY7KDUUQny6tUM5s-1" value="password" style="text;align=left;verticalAlign=top;spacingLeft=4;spacingRight=4;overflow=hidden;rotatable=0;points=[[0,0.5],[1,0.5]];portConstraint=eastwest;rounded=0;shadow=0;html=0;fontSize=9;" parent="zkfFHV4jXpPFQw0GAbJ--0" vertex="1">
          <mxGeometry y="104" width="70" height="26" as="geometry" />
        </mxCell>
        <mxCell id="ckDCzY7KDUUQny6tUM5s-2" value="role" style="text;align=left;verticalAlign=top;spacingLeft=4;spacingRight=4;overflow=hidden;rotatable=0;points=[[0,0.5],[1,0.5]];portConstraint=eastwest;rounded=0;shadow=0;html=0;fontSize=9;" parent="zkfFHV4jXpPFQw0GAbJ--0" vertex="1">
          <mxGeometry y="130" width="70" height="30" as="geometry" />
        </mxCell>
        <mxCell id="ckDCzY7KDUUQny6tUM5s-4" value="TYPE" style="swimlane;fontStyle=2;align=center;verticalAlign=top;childLayout=stackLayout;horizontal=1;startSize=26;horizontalStack=0;resizeParent=1;resizeLast=0;collapsible=1;marginBottom=0;rounded=0;shadow=0;strokeWidth=1;fontSize=9;" parent="WIyWlLk6GJQsqaUBKTNV-1" vertex="1">
          <mxGeometry x="470" y="30" width="100" height="160" as="geometry">
            <mxRectangle x="190" y="30" width="160" height="26" as="alternateBounds" />
          </mxGeometry>
        </mxCell>
        <mxCell id="ckDCzY7KDUUQny6tUM5s-5" value="INT" style="text;align=left;verticalAlign=top;spacingLeft=4;spacingRight=4;overflow=hidden;rotatable=0;points=[[0,0.5],[1,0.5]];portConstraint=eastwest;fontSize=9;" parent="ckDCzY7KDUUQny6tUM5s-4" vertex="1">
          <mxGeometry y="26" width="100" height="26" as="geometry" />
        </mxCell>
        <mxCell id="ckDCzY7KDUUQny6tUM5s-6" value="VARCHAR100" style="text;align=left;verticalAlign=top;spacingLeft=4;spacingRight=4;overflow=hidden;rotatable=0;points=[[0,0.5],[1,0.5]];portConstraint=eastwest;rounded=0;shadow=0;html=0;fontSize=9;" parent="ckDCzY7KDUUQny6tUM5s-4" vertex="1">
          <mxGeometry y="52" width="100" height="26" as="geometry" />
        </mxCell>
        <mxCell id="ckDCzY7KDUUQny6tUM5s-7" value="VARCHAR100" style="text;align=left;verticalAlign=top;spacingLeft=4;spacingRight=4;overflow=hidden;rotatable=0;points=[[0,0.5],[1,0.5]];portConstraint=eastwest;rounded=0;shadow=0;html=0;fontSize=9;" parent="ckDCzY7KDUUQny6tUM5s-4" vertex="1">
          <mxGeometry y="78" width="100" height="26" as="geometry" />
        </mxCell>
        <mxCell id="ckDCzY7KDUUQny6tUM5s-9" value="VARCHAR255" style="text;align=left;verticalAlign=top;spacingLeft=4;spacingRight=4;overflow=hidden;rotatable=0;points=[[0,0.5],[1,0.5]];portConstraint=eastwest;rounded=0;shadow=0;html=0;fontSize=9;" parent="ckDCzY7KDUUQny6tUM5s-4" vertex="1">
          <mxGeometry y="104" width="100" height="26" as="geometry" />
        </mxCell>
        <mxCell id="ckDCzY7KDUUQny6tUM5s-10" value="ENUM(ADMIN,USER)" style="text;align=left;verticalAlign=top;spacingLeft=4;spacingRight=4;overflow=hidden;rotatable=0;points=[[0,0.5],[1,0.5]];portConstraint=eastwest;rounded=0;shadow=0;html=0;fontSize=9;" parent="ckDCzY7KDUUQny6tUM5s-4" vertex="1">
          <mxGeometry y="130" width="100" height="26" as="geometry" />
        </mxCell>
        <mxCell id="ckDCzY7KDUUQny6tUM5s-12" value="USERS" style="rounded=0;whiteSpace=wrap;html=1;fontSize=9;" parent="WIyWlLk6GJQsqaUBKTNV-1" vertex="1">
          <mxGeometry x="400" width="250" height="30" as="geometry" />
        </mxCell>
        <mxCell id="ckDCzY7KDUUQny6tUM5s-13" value="EXTRA" style="swimlane;fontStyle=2;align=center;verticalAlign=top;childLayout=stackLayout;horizontal=1;startSize=26;horizontalStack=0;resizeParent=1;resizeLast=0;collapsible=1;marginBottom=0;rounded=0;shadow=0;strokeWidth=1;fontSize=9;" parent="WIyWlLk6GJQsqaUBKTNV-1" vertex="1">
          <mxGeometry x="570" y="30" width="80" height="160" as="geometry">
            <mxRectangle x="190" y="30" width="160" height="26" as="alternateBounds" />
          </mxGeometry>
        </mxCell>
        <mxCell id="ckDCzY7KDUUQny6tUM5s-14" value="PK, AUTO INC " style="text;align=left;verticalAlign=top;spacingLeft=4;spacingRight=4;overflow=hidden;rotatable=0;points=[[0,0.5],[1,0.5]];portConstraint=eastwest;fontSize=9;" parent="ckDCzY7KDUUQny6tUM5s-13" vertex="1">
          <mxGeometry y="26" width="80" height="26" as="geometry" />
        </mxCell>
        <mxCell id="ckDCzY7KDUUQny6tUM5s-15" value="NT 0" style="text;align=left;verticalAlign=top;spacingLeft=4;spacingRight=4;overflow=hidden;rotatable=0;points=[[0,0.5],[1,0.5]];portConstraint=eastwest;rounded=0;shadow=0;html=0;fontSize=9;" parent="ckDCzY7KDUUQny6tUM5s-13" vertex="1">
          <mxGeometry y="52" width="80" height="26" as="geometry" />
        </mxCell>
        <mxCell id="ckDCzY7KDUUQny6tUM5s-16" value="UNIQUE , NT 0" style="text;align=left;verticalAlign=top;spacingLeft=4;spacingRight=4;overflow=hidden;rotatable=0;points=[[0,0.5],[1,0.5]];portConstraint=eastwest;rounded=0;shadow=0;html=0;fontSize=9;" parent="ckDCzY7KDUUQny6tUM5s-13" vertex="1">
          <mxGeometry y="78" width="80" height="26" as="geometry" />
        </mxCell>
        <mxCell id="ckDCzY7KDUUQny6tUM5s-17" value="NOT 0" style="text;align=left;verticalAlign=top;spacingLeft=4;spacingRight=4;overflow=hidden;rotatable=0;points=[[0,0.5],[1,0.5]];portConstraint=eastwest;rounded=0;shadow=0;html=0;fontSize=9;" parent="ckDCzY7KDUUQny6tUM5s-13" vertex="1">
          <mxGeometry y="104" width="80" height="26" as="geometry" />
        </mxCell>
        <mxCell id="ckDCzY7KDUUQny6tUM5s-18" value="DEFAULT USER" style="text;align=left;verticalAlign=top;spacingLeft=4;spacingRight=4;overflow=hidden;rotatable=0;points=[[0,0.5],[1,0.5]];portConstraint=eastwest;rounded=0;shadow=0;html=0;fontSize=9;" parent="ckDCzY7KDUUQny6tUM5s-13" vertex="1">
          <mxGeometry y="130" width="80" height="26" as="geometry" />
        </mxCell>
        <mxCell id="ckDCzY7KDUUQny6tUM5s-19" value="KOLOM " style="swimlane;fontStyle=2;align=center;verticalAlign=top;childLayout=stackLayout;horizontal=1;startSize=26;horizontalStack=0;resizeParent=1;resizeLast=0;collapsible=1;marginBottom=0;rounded=0;shadow=0;strokeWidth=1;fontSize=9;" parent="WIyWlLk6GJQsqaUBKTNV-1" vertex="1">
          <mxGeometry x="50" y="260" width="70" height="160" as="geometry">
            <mxRectangle x="230" y="140" width="160" height="26" as="alternateBounds" />
          </mxGeometry>
        </mxCell>
        <mxCell id="ckDCzY7KDUUQny6tUM5s-20" value="id " style="text;align=left;verticalAlign=top;spacingLeft=4;spacingRight=4;overflow=hidden;rotatable=0;points=[[0,0.5],[1,0.5]];portConstraint=eastwest;rounded=0;shadow=0;html=0;fontSize=9;" parent="ckDCzY7KDUUQny6tUM5s-19" vertex="1">
          <mxGeometry y="26" width="70" height="26" as="geometry" />
        </mxCell>
        <mxCell id="ckDCzY7KDUUQny6tUM5s-21" value="Name" style="text;align=left;verticalAlign=top;spacingLeft=4;spacingRight=4;overflow=hidden;rotatable=0;points=[[0,0.5],[1,0.5]];portConstraint=eastwest;fontSize=9;" parent="ckDCzY7KDUUQny6tUM5s-19" vertex="1">
          <mxGeometry y="52" width="70" height="26" as="geometry" />
        </mxCell>
        <mxCell id="ckDCzY7KDUUQny6tUM5s-22" value="description" style="text;align=left;verticalAlign=top;spacingLeft=4;spacingRight=4;overflow=hidden;rotatable=0;points=[[0,0.5],[1,0.5]];portConstraint=eastwest;rounded=0;shadow=0;html=0;fontSize=9;" parent="ckDCzY7KDUUQny6tUM5s-19" vertex="1">
          <mxGeometry y="78" width="70" height="26" as="geometry" />
        </mxCell>
        <mxCell id="ckDCzY7KDUUQny6tUM5s-23" value="created_by" style="text;align=left;verticalAlign=top;spacingLeft=4;spacingRight=4;overflow=hidden;rotatable=0;points=[[0,0.5],[1,0.5]];portConstraint=eastwest;rounded=0;shadow=0;html=0;fontSize=9;" parent="ckDCzY7KDUUQny6tUM5s-19" vertex="1">
          <mxGeometry y="104" width="70" height="26" as="geometry" />
        </mxCell>
        <mxCell id="ckDCzY7KDUUQny6tUM5s-24" value="created_at" style="text;align=left;verticalAlign=top;spacingLeft=4;spacingRight=4;overflow=hidden;rotatable=0;points=[[0,0.5],[1,0.5]];portConstraint=eastwest;rounded=0;shadow=0;html=0;fontSize=9;" parent="ckDCzY7KDUUQny6tUM5s-19" vertex="1">
          <mxGeometry y="130" width="70" height="30" as="geometry" />
        </mxCell>
        <mxCell id="ckDCzY7KDUUQny6tUM5s-25" value="TYPE" style="swimlane;fontStyle=2;align=center;verticalAlign=top;childLayout=stackLayout;horizontal=1;startSize=26;horizontalStack=0;resizeParent=1;resizeLast=0;collapsible=1;marginBottom=0;rounded=0;shadow=0;strokeWidth=1;fontSize=9;" parent="WIyWlLk6GJQsqaUBKTNV-1" vertex="1">
          <mxGeometry x="120" y="260" width="100" height="160" as="geometry">
            <mxRectangle x="190" y="30" width="160" height="26" as="alternateBounds" />
          </mxGeometry>
        </mxCell>
        <mxCell id="ckDCzY7KDUUQny6tUM5s-26" value="INT" style="text;align=left;verticalAlign=top;spacingLeft=4;spacingRight=4;overflow=hidden;rotatable=0;points=[[0,0.5],[1,0.5]];portConstraint=eastwest;fontSize=9;" parent="ckDCzY7KDUUQny6tUM5s-25" vertex="1">
          <mxGeometry y="26" width="100" height="26" as="geometry" />
        </mxCell>
        <mxCell id="ckDCzY7KDUUQny6tUM5s-27" value="VARCHAR100" style="text;align=left;verticalAlign=top;spacingLeft=4;spacingRight=4;overflow=hidden;rotatable=0;points=[[0,0.5],[1,0.5]];portConstraint=eastwest;rounded=0;shadow=0;html=0;fontSize=9;" parent="ckDCzY7KDUUQny6tUM5s-25" vertex="1">
          <mxGeometry y="52" width="100" height="26" as="geometry" />
        </mxCell>
        <mxCell id="ckDCzY7KDUUQny6tUM5s-28" value="text" style="text;align=left;verticalAlign=top;spacingLeft=4;spacingRight=4;overflow=hidden;rotatable=0;points=[[0,0.5],[1,0.5]];portConstraint=eastwest;rounded=0;shadow=0;html=0;fontSize=9;" parent="ckDCzY7KDUUQny6tUM5s-25" vertex="1">
          <mxGeometry y="78" width="100" height="26" as="geometry" />
        </mxCell>
        <mxCell id="ckDCzY7KDUUQny6tUM5s-29" value="int" style="text;align=left;verticalAlign=top;spacingLeft=4;spacingRight=4;overflow=hidden;rotatable=0;points=[[0,0.5],[1,0.5]];portConstraint=eastwest;rounded=0;shadow=0;html=0;fontSize=9;" parent="ckDCzY7KDUUQny6tUM5s-25" vertex="1">
          <mxGeometry y="104" width="100" height="26" as="geometry" />
        </mxCell>
        <mxCell id="ckDCzY7KDUUQny6tUM5s-30" value="TIMESTAMP" style="text;align=left;verticalAlign=top;spacingLeft=4;spacingRight=4;overflow=hidden;rotatable=0;points=[[0,0.5],[1,0.5]];portConstraint=eastwest;rounded=0;shadow=0;html=0;fontSize=9;" parent="ckDCzY7KDUUQny6tUM5s-25" vertex="1">
          <mxGeometry y="130" width="100" height="26" as="geometry" />
        </mxCell>
        <mxCell id="ckDCzY7KDUUQny6tUM5s-31" value="PROJECTS" style="rounded=0;whiteSpace=wrap;html=1;fontSize=9;" parent="WIyWlLk6GJQsqaUBKTNV-1" vertex="1">
          <mxGeometry x="50" y="230" width="250" height="30" as="geometry" />
        </mxCell>
        <mxCell id="ckDCzY7KDUUQny6tUM5s-32" value="EXTRA" style="swimlane;fontStyle=2;align=center;verticalAlign=top;childLayout=stackLayout;horizontal=1;startSize=26;horizontalStack=0;resizeParent=1;resizeLast=0;collapsible=1;marginBottom=0;rounded=0;shadow=0;strokeWidth=1;fontSize=9;" parent="WIyWlLk6GJQsqaUBKTNV-1" vertex="1">
          <mxGeometry x="220" y="260" width="80" height="160" as="geometry">
            <mxRectangle x="190" y="30" width="160" height="26" as="alternateBounds" />
          </mxGeometry>
        </mxCell>
        <mxCell id="ckDCzY7KDUUQny6tUM5s-33" value="PK, AUTO INC " style="text;align=left;verticalAlign=top;spacingLeft=4;spacingRight=4;overflow=hidden;rotatable=0;points=[[0,0.5],[1,0.5]];portConstraint=eastwest;fontSize=9;" parent="ckDCzY7KDUUQny6tUM5s-32" vertex="1">
          <mxGeometry y="26" width="80" height="26" as="geometry" />
        </mxCell>
        <mxCell id="ckDCzY7KDUUQny6tUM5s-34" value="NT 0" style="text;align=left;verticalAlign=top;spacingLeft=4;spacingRight=4;overflow=hidden;rotatable=0;points=[[0,0.5],[1,0.5]];portConstraint=eastwest;rounded=0;shadow=0;html=0;fontSize=9;" parent="ckDCzY7KDUUQny6tUM5s-32" vertex="1">
          <mxGeometry y="52" width="80" height="26" as="geometry" />
        </mxCell>
        <mxCell id="ckDCzY7KDUUQny6tUM5s-35" value="nullable" style="text;align=left;verticalAlign=top;spacingLeft=4;spacingRight=4;overflow=hidden;rotatable=0;points=[[0,0.5],[1,0.5]];portConstraint=eastwest;rounded=0;shadow=0;html=0;fontSize=9;" parent="ckDCzY7KDUUQny6tUM5s-32" vertex="1">
          <mxGeometry y="78" width="80" height="26" as="geometry" />
        </mxCell>
        <mxCell id="ckDCzY7KDUUQny6tUM5s-36" value="FK" style="text;align=left;verticalAlign=top;spacingLeft=4;spacingRight=4;overflow=hidden;rotatable=0;points=[[0,0.5],[1,0.5]];portConstraint=eastwest;rounded=0;shadow=0;html=0;fontSize=9;" parent="ckDCzY7KDUUQny6tUM5s-32" vertex="1">
          <mxGeometry y="104" width="80" height="26" as="geometry" />
        </mxCell>
        <mxCell id="ckDCzY7KDUUQny6tUM5s-37" value="CURRENT TIMESTAMP" style="text;align=left;verticalAlign=top;spacingLeft=4;spacingRight=4;overflow=hidden;rotatable=0;points=[[0,0.5],[1,0.5]];portConstraint=eastwest;rounded=0;shadow=0;html=0;fontSize=9;" parent="ckDCzY7KDUUQny6tUM5s-32" vertex="1">
          <mxGeometry y="130" width="80" height="26" as="geometry" />
        </mxCell>
        <mxCell id="ckDCzY7KDUUQny6tUM5s-38" style="edgeStyle=orthogonalEdgeStyle;rounded=0;orthogonalLoop=1;jettySize=auto;html=1;exitX=1;exitY=0.5;exitDx=0;exitDy=0;entryX=0;entryY=0.5;entryDx=0;entryDy=0;" parent="WIyWlLk6GJQsqaUBKTNV-1" source="ckDCzY7KDUUQny6tUM5s-36" target="zkfFHV4jXpPFQw0GAbJ--2" edge="1">
          <mxGeometry relative="1" as="geometry" />
        </mxCell>
        <mxCell id="MGGpjSPOR5STw83qE6HU-0" value="KOLOM " style="swimlane;fontStyle=2;align=center;verticalAlign=top;childLayout=stackLayout;horizontal=1;startSize=26;horizontalStack=0;resizeParent=1;resizeLast=0;collapsible=1;marginBottom=0;rounded=0;shadow=0;strokeWidth=1;fontSize=9;" vertex="1" parent="WIyWlLk6GJQsqaUBKTNV-1">
          <mxGeometry x="50" y="490" width="70" height="160" as="geometry">
            <mxRectangle x="230" y="140" width="160" height="26" as="alternateBounds" />
          </mxGeometry>
        </mxCell>
        <mxCell id="MGGpjSPOR5STw83qE6HU-1" value="id " style="text;align=left;verticalAlign=top;spacingLeft=4;spacingRight=4;overflow=hidden;rotatable=0;points=[[0,0.5],[1,0.5]];portConstraint=eastwest;rounded=0;shadow=0;html=0;fontSize=9;" vertex="1" parent="MGGpjSPOR5STw83qE6HU-0">
          <mxGeometry y="26" width="70" height="26" as="geometry" />
        </mxCell>
        <mxCell id="MGGpjSPOR5STw83qE6HU-2" value="user_id" style="text;align=left;verticalAlign=top;spacingLeft=4;spacingRight=4;overflow=hidden;rotatable=0;points=[[0,0.5],[1,0.5]];portConstraint=eastwest;fontSize=9;" vertex="1" parent="MGGpjSPOR5STw83qE6HU-0">
          <mxGeometry y="52" width="70" height="26" as="geometry" />
        </mxCell>
        <mxCell id="MGGpjSPOR5STw83qE6HU-3" value="project_id" style="text;align=left;verticalAlign=top;spacingLeft=4;spacingRight=4;overflow=hidden;rotatable=0;points=[[0,0.5],[1,0.5]];portConstraint=eastwest;rounded=0;shadow=0;html=0;fontSize=9;" vertex="1" parent="MGGpjSPOR5STw83qE6HU-0">
          <mxGeometry y="78" width="70" height="26" as="geometry" />
        </mxCell>
        <mxCell id="MGGpjSPOR5STw83qE6HU-4" value="role" style="text;align=left;verticalAlign=top;spacingLeft=4;spacingRight=4;overflow=hidden;rotatable=0;points=[[0,0.5],[1,0.5]];portConstraint=eastwest;rounded=0;shadow=0;html=0;fontSize=9;" vertex="1" parent="MGGpjSPOR5STw83qE6HU-0">
          <mxGeometry y="104" width="70" height="26" as="geometry" />
        </mxCell>
        <mxCell id="MGGpjSPOR5STw83qE6HU-5" value="joined" style="text;align=left;verticalAlign=top;spacingLeft=4;spacingRight=4;overflow=hidden;rotatable=0;points=[[0,0.5],[1,0.5]];portConstraint=eastwest;rounded=0;shadow=0;html=0;fontSize=9;" vertex="1" parent="MGGpjSPOR5STw83qE6HU-0">
          <mxGeometry y="130" width="70" height="30" as="geometry" />
        </mxCell>
        <mxCell id="MGGpjSPOR5STw83qE6HU-6" value="TYPE" style="swimlane;fontStyle=2;align=center;verticalAlign=top;childLayout=stackLayout;horizontal=1;startSize=26;horizontalStack=0;resizeParent=1;resizeLast=0;collapsible=1;marginBottom=0;rounded=0;shadow=0;strokeWidth=1;fontSize=9;" vertex="1" parent="WIyWlLk6GJQsqaUBKTNV-1">
          <mxGeometry x="120" y="490" width="100" height="160" as="geometry">
            <mxRectangle x="190" y="30" width="160" height="26" as="alternateBounds" />
          </mxGeometry>
        </mxCell>
        <mxCell id="MGGpjSPOR5STw83qE6HU-7" value="INT" style="text;align=left;verticalAlign=top;spacingLeft=4;spacingRight=4;overflow=hidden;rotatable=0;points=[[0,0.5],[1,0.5]];portConstraint=eastwest;fontSize=9;" vertex="1" parent="MGGpjSPOR5STw83qE6HU-6">
          <mxGeometry y="26" width="100" height="26" as="geometry" />
        </mxCell>
        <mxCell id="MGGpjSPOR5STw83qE6HU-8" value="INT" style="text;align=left;verticalAlign=top;spacingLeft=4;spacingRight=4;overflow=hidden;rotatable=0;points=[[0,0.5],[1,0.5]];portConstraint=eastwest;rounded=0;shadow=0;html=0;fontSize=9;" vertex="1" parent="MGGpjSPOR5STw83qE6HU-6">
          <mxGeometry y="52" width="100" height="26" as="geometry" />
        </mxCell>
        <mxCell id="MGGpjSPOR5STw83qE6HU-9" value="INT" style="text;align=left;verticalAlign=top;spacingLeft=4;spacingRight=4;overflow=hidden;rotatable=0;points=[[0,0.5],[1,0.5]];portConstraint=eastwest;rounded=0;shadow=0;html=0;fontSize=9;" vertex="1" parent="MGGpjSPOR5STw83qE6HU-6">
          <mxGeometry y="78" width="100" height="26" as="geometry" />
        </mxCell>
        <mxCell id="MGGpjSPOR5STw83qE6HU-10" value="ENUM(admin,member)" style="text;align=left;verticalAlign=top;spacingLeft=4;spacingRight=4;overflow=hidden;rotatable=0;points=[[0,0.5],[1,0.5]];portConstraint=eastwest;rounded=0;shadow=0;html=0;fontSize=9;" vertex="1" parent="MGGpjSPOR5STw83qE6HU-6">
          <mxGeometry y="104" width="100" height="26" as="geometry" />
        </mxCell>
        <mxCell id="MGGpjSPOR5STw83qE6HU-11" value="TIMESTAMP" style="text;align=left;verticalAlign=top;spacingLeft=4;spacingRight=4;overflow=hidden;rotatable=0;points=[[0,0.5],[1,0.5]];portConstraint=eastwest;rounded=0;shadow=0;html=0;fontSize=9;" vertex="1" parent="MGGpjSPOR5STw83qE6HU-6">
          <mxGeometry y="130" width="100" height="26" as="geometry" />
        </mxCell>
        <mxCell id="MGGpjSPOR5STw83qE6HU-12" value="PROJECT MEMBERS" style="rounded=0;whiteSpace=wrap;html=1;fontSize=9;" vertex="1" parent="WIyWlLk6GJQsqaUBKTNV-1">
          <mxGeometry x="50" y="460" width="260" height="30" as="geometry" />
        </mxCell>
        <mxCell id="MGGpjSPOR5STw83qE6HU-13" value="EXTRA" style="swimlane;fontStyle=2;align=center;verticalAlign=top;childLayout=stackLayout;horizontal=1;startSize=26;horizontalStack=0;resizeParent=1;resizeLast=0;collapsible=1;marginBottom=0;rounded=0;shadow=0;strokeWidth=1;fontSize=9;" vertex="1" parent="WIyWlLk6GJQsqaUBKTNV-1">
          <mxGeometry x="220" y="490" width="90" height="160" as="geometry">
            <mxRectangle x="190" y="30" width="160" height="26" as="alternateBounds" />
          </mxGeometry>
        </mxCell>
        <mxCell id="MGGpjSPOR5STw83qE6HU-14" value="PK, AUTO INC " style="text;align=left;verticalAlign=top;spacingLeft=4;spacingRight=4;overflow=hidden;rotatable=0;points=[[0,0.5],[1,0.5]];portConstraint=eastwest;fontSize=9;" vertex="1" parent="MGGpjSPOR5STw83qE6HU-13">
          <mxGeometry y="26" width="90" height="26" as="geometry" />
        </mxCell>
        <mxCell id="MGGpjSPOR5STw83qE6HU-15" value="FK" style="text;align=left;verticalAlign=top;spacingLeft=4;spacingRight=4;overflow=hidden;rotatable=0;points=[[0,0.5],[1,0.5]];portConstraint=eastwest;rounded=0;shadow=0;html=0;fontSize=9;" vertex="1" parent="MGGpjSPOR5STw83qE6HU-13">
          <mxGeometry y="52" width="90" height="26" as="geometry" />
        </mxCell>
        <mxCell id="MGGpjSPOR5STw83qE6HU-16" value="FK" style="text;align=left;verticalAlign=top;spacingLeft=4;spacingRight=4;overflow=hidden;rotatable=0;points=[[0,0.5],[1,0.5]];portConstraint=eastwest;rounded=0;shadow=0;html=0;fontSize=9;" vertex="1" parent="MGGpjSPOR5STw83qE6HU-13">
          <mxGeometry y="78" width="90" height="26" as="geometry" />
        </mxCell>
        <mxCell id="MGGpjSPOR5STw83qE6HU-17" value="DEFAULT(member)" style="text;align=left;verticalAlign=top;spacingLeft=4;spacingRight=4;overflow=hidden;rotatable=0;points=[[0,0.5],[1,0.5]];portConstraint=eastwest;rounded=0;shadow=0;html=0;fontSize=9;" vertex="1" parent="MGGpjSPOR5STw83qE6HU-13">
          <mxGeometry y="104" width="90" height="26" as="geometry" />
        </mxCell>
        <mxCell id="MGGpjSPOR5STw83qE6HU-18" value="CURRENT TIMESTAMP" style="text;align=left;verticalAlign=top;spacingLeft=4;spacingRight=4;overflow=hidden;rotatable=0;points=[[0,0.5],[1,0.5]];portConstraint=eastwest;rounded=0;shadow=0;html=0;fontSize=9;" vertex="1" parent="MGGpjSPOR5STw83qE6HU-13">
          <mxGeometry y="130" width="90" height="26" as="geometry" />
        </mxCell>
        <mxCell id="MGGpjSPOR5STw83qE6HU-19" style="edgeStyle=orthogonalEdgeStyle;rounded=0;orthogonalLoop=1;jettySize=auto;html=1;exitX=1;exitY=0.5;exitDx=0;exitDy=0;entryX=0;entryY=0.5;entryDx=0;entryDy=0;" edge="1" parent="WIyWlLk6GJQsqaUBKTNV-1" source="MGGpjSPOR5STw83qE6HU-15" target="zkfFHV4jXpPFQw0GAbJ--2">
          <mxGeometry relative="1" as="geometry">
            <Array as="points">
              <mxPoint x="370" y="555" />
              <mxPoint x="370" y="69" />
            </Array>
          </mxGeometry>
        </mxCell>
        <mxCell id="MGGpjSPOR5STw83qE6HU-20" style="edgeStyle=orthogonalEdgeStyle;rounded=0;orthogonalLoop=1;jettySize=auto;html=1;exitX=0;exitY=0.5;exitDx=0;exitDy=0;entryX=0;entryY=0.5;entryDx=0;entryDy=0;" edge="1" parent="WIyWlLk6GJQsqaUBKTNV-1" source="MGGpjSPOR5STw83qE6HU-3" target="ckDCzY7KDUUQny6tUM5s-20">
          <mxGeometry relative="1" as="geometry" />
        </mxCell>
        <mxCell id="MGGpjSPOR5STw83qE6HU-21" value="KOLOM " style="swimlane;fontStyle=2;align=center;verticalAlign=top;childLayout=stackLayout;horizontal=1;startSize=26;horizontalStack=0;resizeParent=1;resizeLast=0;collapsible=1;marginBottom=0;rounded=0;shadow=0;strokeWidth=1;fontSize=9;" vertex="1" parent="WIyWlLk6GJQsqaUBKTNV-1">
          <mxGeometry x="850" y="120" width="70" height="250" as="geometry">
            <mxRectangle x="230" y="140" width="160" height="26" as="alternateBounds" />
          </mxGeometry>
        </mxCell>
        <mxCell id="MGGpjSPOR5STw83qE6HU-22" value="id " style="text;align=left;verticalAlign=top;spacingLeft=4;spacingRight=4;overflow=hidden;rotatable=0;points=[[0,0.5],[1,0.5]];portConstraint=eastwest;rounded=0;shadow=0;html=0;fontSize=9;" vertex="1" parent="MGGpjSPOR5STw83qE6HU-21">
          <mxGeometry y="26" width="70" height="26" as="geometry" />
        </mxCell>
        <mxCell id="MGGpjSPOR5STw83qE6HU-23" value="project_id" style="text;align=left;verticalAlign=top;spacingLeft=4;spacingRight=4;overflow=hidden;rotatable=0;points=[[0,0.5],[1,0.5]];portConstraint=eastwest;fontSize=9;" vertex="1" parent="MGGpjSPOR5STw83qE6HU-21">
          <mxGeometry y="52" width="70" height="26" as="geometry" />
        </mxCell>
        <mxCell id="MGGpjSPOR5STw83qE6HU-24" value="title" style="text;align=left;verticalAlign=top;spacingLeft=4;spacingRight=4;overflow=hidden;rotatable=0;points=[[0,0.5],[1,0.5]];portConstraint=eastwest;rounded=0;shadow=0;html=0;fontSize=9;" vertex="1" parent="MGGpjSPOR5STw83qE6HU-21">
          <mxGeometry y="78" width="70" height="26" as="geometry" />
        </mxCell>
        <mxCell id="MGGpjSPOR5STw83qE6HU-25" value="description" style="text;align=left;verticalAlign=top;spacingLeft=4;spacingRight=4;overflow=hidden;rotatable=0;points=[[0,0.5],[1,0.5]];portConstraint=eastwest;rounded=0;shadow=0;html=0;fontSize=9;" vertex="1" parent="MGGpjSPOR5STw83qE6HU-21">
          <mxGeometry y="104" width="70" height="26" as="geometry" />
        </mxCell>
        <mxCell id="MGGpjSPOR5STw83qE6HU-26" value="status" style="text;align=left;verticalAlign=top;spacingLeft=4;spacingRight=4;overflow=hidden;rotatable=0;points=[[0,0.5],[1,0.5]];portConstraint=eastwest;rounded=0;shadow=0;html=0;fontSize=9;" vertex="1" parent="MGGpjSPOR5STw83qE6HU-21">
          <mxGeometry y="130" width="70" height="30" as="geometry" />
        </mxCell>
        <mxCell id="MGGpjSPOR5STw83qE6HU-42" value="assigned_to" style="text;align=left;verticalAlign=top;spacingLeft=4;spacingRight=4;overflow=hidden;rotatable=0;points=[[0,0.5],[1,0.5]];portConstraint=eastwest;rounded=0;shadow=0;html=0;fontSize=9;" vertex="1" parent="MGGpjSPOR5STw83qE6HU-21">
          <mxGeometry y="160" width="70" height="26" as="geometry" />
        </mxCell>
        <mxCell id="MGGpjSPOR5STw83qE6HU-46" value="due_date" style="text;align=left;verticalAlign=top;spacingLeft=4;spacingRight=4;overflow=hidden;rotatable=0;points=[[0,0.5],[1,0.5]];portConstraint=eastwest;rounded=0;shadow=0;html=0;fontSize=9;" vertex="1" parent="MGGpjSPOR5STw83qE6HU-21">
          <mxGeometry y="186" width="70" height="26" as="geometry" />
        </mxCell>
        <mxCell id="MGGpjSPOR5STw83qE6HU-49" value="created_at" style="text;align=left;verticalAlign=top;spacingLeft=4;spacingRight=4;overflow=hidden;rotatable=0;points=[[0,0.5],[1,0.5]];portConstraint=eastwest;rounded=0;shadow=0;html=0;fontSize=9;" vertex="1" parent="MGGpjSPOR5STw83qE6HU-21">
          <mxGeometry y="212" width="70" height="26" as="geometry" />
        </mxCell>
        <mxCell id="MGGpjSPOR5STw83qE6HU-27" value="TYPE" style="swimlane;fontStyle=2;align=center;verticalAlign=top;childLayout=stackLayout;horizontal=1;startSize=26;horizontalStack=0;resizeParent=1;resizeLast=0;collapsible=1;marginBottom=0;rounded=0;shadow=0;strokeWidth=1;fontSize=9;" vertex="1" parent="WIyWlLk6GJQsqaUBKTNV-1">
          <mxGeometry x="920" y="120" width="100" height="250" as="geometry">
            <mxRectangle x="190" y="30" width="160" height="26" as="alternateBounds" />
          </mxGeometry>
        </mxCell>
        <mxCell id="MGGpjSPOR5STw83qE6HU-28" value="INT" style="text;align=left;verticalAlign=top;spacingLeft=4;spacingRight=4;overflow=hidden;rotatable=0;points=[[0,0.5],[1,0.5]];portConstraint=eastwest;fontSize=9;" vertex="1" parent="MGGpjSPOR5STw83qE6HU-27">
          <mxGeometry y="26" width="100" height="26" as="geometry" />
        </mxCell>
        <mxCell id="MGGpjSPOR5STw83qE6HU-29" value="INT" style="text;align=left;verticalAlign=top;spacingLeft=4;spacingRight=4;overflow=hidden;rotatable=0;points=[[0,0.5],[1,0.5]];portConstraint=eastwest;rounded=0;shadow=0;html=0;fontSize=9;" vertex="1" parent="MGGpjSPOR5STw83qE6HU-27">
          <mxGeometry y="52" width="100" height="26" as="geometry" />
        </mxCell>
        <mxCell id="MGGpjSPOR5STw83qE6HU-30" value="char100" style="text;align=left;verticalAlign=top;spacingLeft=4;spacingRight=4;overflow=hidden;rotatable=0;points=[[0,0.5],[1,0.5]];portConstraint=eastwest;rounded=0;shadow=0;html=0;fontSize=9;" vertex="1" parent="MGGpjSPOR5STw83qE6HU-27">
          <mxGeometry y="78" width="100" height="26" as="geometry" />
        </mxCell>
        <mxCell id="MGGpjSPOR5STw83qE6HU-31" value="text" style="text;align=left;verticalAlign=top;spacingLeft=4;spacingRight=4;overflow=hidden;rotatable=0;points=[[0,0.5],[1,0.5]];portConstraint=eastwest;rounded=0;shadow=0;html=0;fontSize=9;" vertex="1" parent="MGGpjSPOR5STw83qE6HU-27">
          <mxGeometry y="104" width="100" height="26" as="geometry" />
        </mxCell>
        <mxCell id="MGGpjSPOR5STw83qE6HU-32" value="ENUM(&#39;pending&#39;,in progres)" style="text;align=left;verticalAlign=top;spacingLeft=4;spacingRight=4;overflow=hidden;rotatable=0;points=[[0,0.5],[1,0.5]];portConstraint=eastwest;rounded=0;shadow=0;html=0;fontSize=9;" vertex="1" parent="MGGpjSPOR5STw83qE6HU-27">
          <mxGeometry y="130" width="100" height="30" as="geometry" />
        </mxCell>
        <mxCell id="MGGpjSPOR5STw83qE6HU-43" value="assigned_to" style="text;align=left;verticalAlign=top;spacingLeft=4;spacingRight=4;overflow=hidden;rotatable=0;points=[[0,0.5],[1,0.5]];portConstraint=eastwest;rounded=0;shadow=0;html=0;fontSize=9;" vertex="1" parent="MGGpjSPOR5STw83qE6HU-27">
          <mxGeometry y="160" width="100" height="26" as="geometry" />
        </mxCell>
        <mxCell id="MGGpjSPOR5STw83qE6HU-47" value="DATE" style="text;align=left;verticalAlign=top;spacingLeft=4;spacingRight=4;overflow=hidden;rotatable=0;points=[[0,0.5],[1,0.5]];portConstraint=eastwest;rounded=0;shadow=0;html=0;fontSize=9;" vertex="1" parent="MGGpjSPOR5STw83qE6HU-27">
          <mxGeometry y="186" width="100" height="26" as="geometry" />
        </mxCell>
        <mxCell id="MGGpjSPOR5STw83qE6HU-50" value="TIMESTAMP" style="text;align=left;verticalAlign=top;spacingLeft=4;spacingRight=4;overflow=hidden;rotatable=0;points=[[0,0.5],[1,0.5]];portConstraint=eastwest;rounded=0;shadow=0;html=0;fontSize=9;" vertex="1" parent="MGGpjSPOR5STw83qE6HU-27">
          <mxGeometry y="212" width="100" height="26" as="geometry" />
        </mxCell>
        <mxCell id="MGGpjSPOR5STw83qE6HU-33" value="TASKS" style="rounded=0;whiteSpace=wrap;html=1;fontSize=9;" vertex="1" parent="WIyWlLk6GJQsqaUBKTNV-1">
          <mxGeometry x="850" y="90" width="260" height="30" as="geometry" />
        </mxCell>
        <mxCell id="MGGpjSPOR5STw83qE6HU-34" value="EXTRA" style="swimlane;fontStyle=2;align=center;verticalAlign=top;childLayout=stackLayout;horizontal=1;startSize=26;horizontalStack=0;resizeParent=1;resizeLast=0;collapsible=1;marginBottom=0;rounded=0;shadow=0;strokeWidth=1;fontSize=9;" vertex="1" parent="WIyWlLk6GJQsqaUBKTNV-1">
          <mxGeometry x="1020" y="120" width="90" height="250" as="geometry">
            <mxRectangle x="190" y="30" width="160" height="26" as="alternateBounds" />
          </mxGeometry>
        </mxCell>
        <mxCell id="MGGpjSPOR5STw83qE6HU-35" value="PK, AUTO INC " style="text;align=left;verticalAlign=top;spacingLeft=4;spacingRight=4;overflow=hidden;rotatable=0;points=[[0,0.5],[1,0.5]];portConstraint=eastwest;fontSize=9;" vertex="1" parent="MGGpjSPOR5STw83qE6HU-34">
          <mxGeometry y="26" width="90" height="26" as="geometry" />
        </mxCell>
        <mxCell id="MGGpjSPOR5STw83qE6HU-36" value="FK" style="text;align=left;verticalAlign=top;spacingLeft=4;spacingRight=4;overflow=hidden;rotatable=0;points=[[0,0.5],[1,0.5]];portConstraint=eastwest;rounded=0;shadow=0;html=0;fontSize=9;" vertex="1" parent="MGGpjSPOR5STw83qE6HU-34">
          <mxGeometry y="52" width="90" height="26" as="geometry" />
        </mxCell>
        <mxCell id="MGGpjSPOR5STw83qE6HU-37" value="not null" style="text;align=left;verticalAlign=top;spacingLeft=4;spacingRight=4;overflow=hidden;rotatable=0;points=[[0,0.5],[1,0.5]];portConstraint=eastwest;rounded=0;shadow=0;html=0;fontSize=9;" vertex="1" parent="MGGpjSPOR5STw83qE6HU-34">
          <mxGeometry y="78" width="90" height="26" as="geometry" />
        </mxCell>
        <mxCell id="MGGpjSPOR5STw83qE6HU-38" value="nullable" style="text;align=left;verticalAlign=top;spacingLeft=4;spacingRight=4;overflow=hidden;rotatable=0;points=[[0,0.5],[1,0.5]];portConstraint=eastwest;rounded=0;shadow=0;html=0;fontSize=9;" vertex="1" parent="MGGpjSPOR5STw83qE6HU-34">
          <mxGeometry y="104" width="90" height="26" as="geometry" />
        </mxCell>
        <mxCell id="MGGpjSPOR5STw83qE6HU-39" value="deault pending" style="text;align=left;verticalAlign=top;spacingLeft=4;spacingRight=4;overflow=hidden;rotatable=0;points=[[0,0.5],[1,0.5]];portConstraint=eastwest;rounded=0;shadow=0;html=0;fontSize=9;" vertex="1" parent="MGGpjSPOR5STw83qE6HU-34">
          <mxGeometry y="130" width="90" height="30" as="geometry" />
        </mxCell>
        <mxCell id="MGGpjSPOR5STw83qE6HU-44" value="FK" style="text;align=left;verticalAlign=top;spacingLeft=4;spacingRight=4;overflow=hidden;rotatable=0;points=[[0,0.5],[1,0.5]];portConstraint=eastwest;rounded=0;shadow=0;html=0;fontSize=9;" vertex="1" parent="MGGpjSPOR5STw83qE6HU-34">
          <mxGeometry y="160" width="90" height="26" as="geometry" />
        </mxCell>
        <mxCell id="MGGpjSPOR5STw83qE6HU-48" value="nullable" style="text;align=left;verticalAlign=top;spacingLeft=4;spacingRight=4;overflow=hidden;rotatable=0;points=[[0,0.5],[1,0.5]];portConstraint=eastwest;rounded=0;shadow=0;html=0;fontSize=9;" vertex="1" parent="MGGpjSPOR5STw83qE6HU-34">
          <mxGeometry y="186" width="90" height="26" as="geometry" />
        </mxCell>
        <mxCell id="MGGpjSPOR5STw83qE6HU-51" value="DEFAULT CUURENT TIMESTAMP " style="text;align=left;verticalAlign=top;spacingLeft=4;spacingRight=4;overflow=hidden;rotatable=0;points=[[0,0.5],[1,0.5]];portConstraint=eastwest;rounded=0;shadow=0;html=0;fontSize=9;" vertex="1" parent="MGGpjSPOR5STw83qE6HU-34">
          <mxGeometry y="212" width="90" height="38" as="geometry" />
        </mxCell>
        <mxCell id="MGGpjSPOR5STw83qE6HU-40" style="edgeStyle=orthogonalEdgeStyle;rounded=0;orthogonalLoop=1;jettySize=auto;html=1;exitX=0;exitY=0.5;exitDx=0;exitDy=0;entryX=1;entryY=0.5;entryDx=0;entryDy=0;" edge="1" parent="WIyWlLk6GJQsqaUBKTNV-1" source="MGGpjSPOR5STw83qE6HU-23" target="MGGpjSPOR5STw83qE6HU-16">
          <mxGeometry relative="1" as="geometry">
            <Array as="points">
              <mxPoint x="780" y="185" />
              <mxPoint x="780" y="220" />
              <mxPoint x="400" y="220" />
              <mxPoint x="400" y="581" />
            </Array>
          </mxGeometry>
        </mxCell>
        <mxCell id="MGGpjSPOR5STw83qE6HU-41" value="ENUM(&#39;pending&#39;,in progres, completed, urgent)" style="text;align=left;verticalAlign=top;spacingLeft=4;spacingRight=4;overflow=hidden;rotatable=0;points=[[0,0.5],[1,0.5]];portConstraint=eastwest;rounded=0;shadow=0;html=0;fontSize=9;" vertex="1" parent="WIyWlLk6GJQsqaUBKTNV-1">
          <mxGeometry x="890" y="10" width="280" height="30" as="geometry" />
        </mxCell>
        <mxCell id="MGGpjSPOR5STw83qE6HU-45" style="edgeStyle=orthogonalEdgeStyle;rounded=0;orthogonalLoop=1;jettySize=auto;html=1;exitX=0;exitY=0.5;exitDx=0;exitDy=0;entryX=1;entryY=0.5;entryDx=0;entryDy=0;" edge="1" parent="WIyWlLk6GJQsqaUBKTNV-1" source="MGGpjSPOR5STw83qE6HU-42" target="ckDCzY7KDUUQny6tUM5s-14">
          <mxGeometry relative="1" as="geometry" />
        </mxCell>
        <mxCell id="MGGpjSPOR5STw83qE6HU-53" value="KOLOM " style="swimlane;fontStyle=2;align=center;verticalAlign=top;childLayout=stackLayout;horizontal=1;startSize=26;horizontalStack=0;resizeParent=1;resizeLast=0;collapsible=1;marginBottom=0;rounded=0;shadow=0;strokeWidth=1;fontSize=9;" vertex="1" parent="WIyWlLk6GJQsqaUBKTNV-1">
          <mxGeometry x="845" y="444" width="70" height="106" as="geometry">
            <mxRectangle x="230" y="140" width="160" height="26" as="alternateBounds" />
          </mxGeometry>
        </mxCell>
        <mxCell id="MGGpjSPOR5STw83qE6HU-54" value="id " style="text;align=left;verticalAlign=top;spacingLeft=4;spacingRight=4;overflow=hidden;rotatable=0;points=[[0,0.5],[1,0.5]];portConstraint=eastwest;rounded=0;shadow=0;html=0;fontSize=9;" vertex="1" parent="MGGpjSPOR5STw83qE6HU-53">
          <mxGeometry y="26" width="70" height="26" as="geometry" />
        </mxCell>
        <mxCell id="MGGpjSPOR5STw83qE6HU-55" value="task_id" style="text;align=left;verticalAlign=top;spacingLeft=4;spacingRight=4;overflow=hidden;rotatable=0;points=[[0,0.5],[1,0.5]];portConstraint=eastwest;fontSize=9;" vertex="1" parent="MGGpjSPOR5STw83qE6HU-53">
          <mxGeometry y="52" width="70" height="26" as="geometry" />
        </mxCell>
        <mxCell id="MGGpjSPOR5STw83qE6HU-56" value="tag_id" style="text;align=left;verticalAlign=top;spacingLeft=4;spacingRight=4;overflow=hidden;rotatable=0;points=[[0,0.5],[1,0.5]];portConstraint=eastwest;rounded=0;shadow=0;html=0;fontSize=9;" vertex="1" parent="MGGpjSPOR5STw83qE6HU-53">
          <mxGeometry y="78" width="70" height="26" as="geometry" />
        </mxCell>
        <mxCell id="MGGpjSPOR5STw83qE6HU-59" value="TYPE" style="swimlane;fontStyle=2;align=center;verticalAlign=top;childLayout=stackLayout;horizontal=1;startSize=26;horizontalStack=0;resizeParent=1;resizeLast=0;collapsible=1;marginBottom=0;rounded=0;shadow=0;strokeWidth=1;fontSize=9;" vertex="1" parent="WIyWlLk6GJQsqaUBKTNV-1">
          <mxGeometry x="915" y="444" width="100" height="106" as="geometry">
            <mxRectangle x="190" y="30" width="160" height="26" as="alternateBounds" />
          </mxGeometry>
        </mxCell>
        <mxCell id="MGGpjSPOR5STw83qE6HU-60" value="INT" style="text;align=left;verticalAlign=top;spacingLeft=4;spacingRight=4;overflow=hidden;rotatable=0;points=[[0,0.5],[1,0.5]];portConstraint=eastwest;fontSize=9;" vertex="1" parent="MGGpjSPOR5STw83qE6HU-59">
          <mxGeometry y="26" width="100" height="26" as="geometry" />
        </mxCell>
        <mxCell id="MGGpjSPOR5STw83qE6HU-61" value="INT " style="text;align=left;verticalAlign=top;spacingLeft=4;spacingRight=4;overflow=hidden;rotatable=0;points=[[0,0.5],[1,0.5]];portConstraint=eastwest;rounded=0;shadow=0;html=0;fontSize=9;" vertex="1" parent="MGGpjSPOR5STw83qE6HU-59">
          <mxGeometry y="52" width="100" height="26" as="geometry" />
        </mxCell>
        <mxCell id="MGGpjSPOR5STw83qE6HU-62" value="INT" style="text;align=left;verticalAlign=top;spacingLeft=4;spacingRight=4;overflow=hidden;rotatable=0;points=[[0,0.5],[1,0.5]];portConstraint=eastwest;rounded=0;shadow=0;html=0;fontSize=9;" vertex="1" parent="MGGpjSPOR5STw83qE6HU-59">
          <mxGeometry y="78" width="100" height="26" as="geometry" />
        </mxCell>
        <mxCell id="MGGpjSPOR5STw83qE6HU-65" value="TASK TAGS" style="rounded=0;whiteSpace=wrap;html=1;fontSize=9;" vertex="1" parent="WIyWlLk6GJQsqaUBKTNV-1">
          <mxGeometry x="845" y="414" width="250" height="30" as="geometry" />
        </mxCell>
        <mxCell id="MGGpjSPOR5STw83qE6HU-66" value="EXTRA" style="swimlane;fontStyle=2;align=center;verticalAlign=top;childLayout=stackLayout;horizontal=1;startSize=26;horizontalStack=0;resizeParent=1;resizeLast=0;collapsible=1;marginBottom=0;rounded=0;shadow=0;strokeWidth=1;fontSize=9;" vertex="1" parent="WIyWlLk6GJQsqaUBKTNV-1">
          <mxGeometry x="1015" y="444" width="80" height="106" as="geometry">
            <mxRectangle x="190" y="30" width="160" height="26" as="alternateBounds" />
          </mxGeometry>
        </mxCell>
        <mxCell id="MGGpjSPOR5STw83qE6HU-67" value="PK, AUTO INC " style="text;align=left;verticalAlign=top;spacingLeft=4;spacingRight=4;overflow=hidden;rotatable=0;points=[[0,0.5],[1,0.5]];portConstraint=eastwest;fontSize=9;" vertex="1" parent="MGGpjSPOR5STw83qE6HU-66">
          <mxGeometry y="26" width="80" height="26" as="geometry" />
        </mxCell>
        <mxCell id="MGGpjSPOR5STw83qE6HU-68" value="FK" style="text;align=left;verticalAlign=top;spacingLeft=4;spacingRight=4;overflow=hidden;rotatable=0;points=[[0,0.5],[1,0.5]];portConstraint=eastwest;rounded=0;shadow=0;html=0;fontSize=9;" vertex="1" parent="MGGpjSPOR5STw83qE6HU-66">
          <mxGeometry y="52" width="80" height="26" as="geometry" />
        </mxCell>
        <mxCell id="MGGpjSPOR5STw83qE6HU-69" value="FK&#xa;" style="text;align=left;verticalAlign=top;spacingLeft=4;spacingRight=4;overflow=hidden;rotatable=0;points=[[0,0.5],[1,0.5]];portConstraint=eastwest;rounded=0;shadow=0;html=0;fontSize=9;" vertex="1" parent="MGGpjSPOR5STw83qE6HU-66">
          <mxGeometry y="78" width="80" height="26" as="geometry" />
        </mxCell>
        <mxCell id="MGGpjSPOR5STw83qE6HU-72" style="edgeStyle=orthogonalEdgeStyle;rounded=0;orthogonalLoop=1;jettySize=auto;html=1;exitX=0;exitY=0.5;exitDx=0;exitDy=0;entryX=0;entryY=0.5;entryDx=0;entryDy=0;" edge="1" parent="WIyWlLk6GJQsqaUBKTNV-1" source="MGGpjSPOR5STw83qE6HU-55" target="MGGpjSPOR5STw83qE6HU-22">
          <mxGeometry relative="1" as="geometry">
            <Array as="points">
              <mxPoint x="800" y="509" />
              <mxPoint x="800" y="159" />
            </Array>
          </mxGeometry>
        </mxCell>
        <mxCell id="MGGpjSPOR5STw83qE6HU-73" value="KOLOM " style="swimlane;fontStyle=2;align=center;verticalAlign=top;childLayout=stackLayout;horizontal=1;startSize=26;horizontalStack=0;resizeParent=1;resizeLast=0;collapsible=1;marginBottom=0;rounded=0;shadow=0;strokeWidth=1;fontSize=9;" vertex="1" parent="WIyWlLk6GJQsqaUBKTNV-1">
          <mxGeometry x="830" y="620" width="70" height="106" as="geometry">
            <mxRectangle x="230" y="140" width="160" height="26" as="alternateBounds" />
          </mxGeometry>
        </mxCell>
        <mxCell id="MGGpjSPOR5STw83qE6HU-74" value="id " style="text;align=left;verticalAlign=top;spacingLeft=4;spacingRight=4;overflow=hidden;rotatable=0;points=[[0,0.5],[1,0.5]];portConstraint=eastwest;rounded=0;shadow=0;html=0;fontSize=9;" vertex="1" parent="MGGpjSPOR5STw83qE6HU-73">
          <mxGeometry y="26" width="70" height="26" as="geometry" />
        </mxCell>
        <mxCell id="MGGpjSPOR5STw83qE6HU-75" value="name" style="text;align=left;verticalAlign=top;spacingLeft=4;spacingRight=4;overflow=hidden;rotatable=0;points=[[0,0.5],[1,0.5]];portConstraint=eastwest;fontSize=9;" vertex="1" parent="MGGpjSPOR5STw83qE6HU-73">
          <mxGeometry y="52" width="70" height="26" as="geometry" />
        </mxCell>
        <mxCell id="MGGpjSPOR5STw83qE6HU-76" value="created_at" style="text;align=left;verticalAlign=top;spacingLeft=4;spacingRight=4;overflow=hidden;rotatable=0;points=[[0,0.5],[1,0.5]];portConstraint=eastwest;rounded=0;shadow=0;html=0;fontSize=9;" vertex="1" parent="MGGpjSPOR5STw83qE6HU-73">
          <mxGeometry y="78" width="70" height="26" as="geometry" />
        </mxCell>
        <mxCell id="MGGpjSPOR5STw83qE6HU-77" value="TYPE" style="swimlane;fontStyle=2;align=center;verticalAlign=top;childLayout=stackLayout;horizontal=1;startSize=26;horizontalStack=0;resizeParent=1;resizeLast=0;collapsible=1;marginBottom=0;rounded=0;shadow=0;strokeWidth=1;fontSize=9;" vertex="1" parent="WIyWlLk6GJQsqaUBKTNV-1">
          <mxGeometry x="900" y="620" width="100" height="106" as="geometry">
            <mxRectangle x="190" y="30" width="160" height="26" as="alternateBounds" />
          </mxGeometry>
        </mxCell>
        <mxCell id="MGGpjSPOR5STw83qE6HU-78" value="INT" style="text;align=left;verticalAlign=top;spacingLeft=4;spacingRight=4;overflow=hidden;rotatable=0;points=[[0,0.5],[1,0.5]];portConstraint=eastwest;fontSize=9;" vertex="1" parent="MGGpjSPOR5STw83qE6HU-77">
          <mxGeometry y="26" width="100" height="26" as="geometry" />
        </mxCell>
        <mxCell id="MGGpjSPOR5STw83qE6HU-79" value="varchar(50)" style="text;align=left;verticalAlign=top;spacingLeft=4;spacingRight=4;overflow=hidden;rotatable=0;points=[[0,0.5],[1,0.5]];portConstraint=eastwest;rounded=0;shadow=0;html=0;fontSize=9;" vertex="1" parent="MGGpjSPOR5STw83qE6HU-77">
          <mxGeometry y="52" width="100" height="26" as="geometry" />
        </mxCell>
        <mxCell id="MGGpjSPOR5STw83qE6HU-80" value="timestamp" style="text;align=left;verticalAlign=top;spacingLeft=4;spacingRight=4;overflow=hidden;rotatable=0;points=[[0,0.5],[1,0.5]];portConstraint=eastwest;rounded=0;shadow=0;html=0;fontSize=9;" vertex="1" parent="MGGpjSPOR5STw83qE6HU-77">
          <mxGeometry y="78" width="100" height="26" as="geometry" />
        </mxCell>
        <mxCell id="MGGpjSPOR5STw83qE6HU-81" value="TAGS" style="rounded=0;whiteSpace=wrap;html=1;fontSize=9;" vertex="1" parent="WIyWlLk6GJQsqaUBKTNV-1">
          <mxGeometry x="830" y="590" width="250" height="30" as="geometry" />
        </mxCell>
        <mxCell id="MGGpjSPOR5STw83qE6HU-82" value="EXTRA" style="swimlane;fontStyle=2;align=center;verticalAlign=top;childLayout=stackLayout;horizontal=1;startSize=26;horizontalStack=0;resizeParent=1;resizeLast=0;collapsible=1;marginBottom=0;rounded=0;shadow=0;strokeWidth=1;fontSize=9;" vertex="1" parent="WIyWlLk6GJQsqaUBKTNV-1">
          <mxGeometry x="1000" y="620" width="80" height="106" as="geometry">
            <mxRectangle x="190" y="30" width="160" height="26" as="alternateBounds" />
          </mxGeometry>
        </mxCell>
        <mxCell id="MGGpjSPOR5STw83qE6HU-83" value="PK, AUTO INC " style="text;align=left;verticalAlign=top;spacingLeft=4;spacingRight=4;overflow=hidden;rotatable=0;points=[[0,0.5],[1,0.5]];portConstraint=eastwest;fontSize=9;" vertex="1" parent="MGGpjSPOR5STw83qE6HU-82">
          <mxGeometry y="26" width="80" height="26" as="geometry" />
        </mxCell>
        <mxCell id="MGGpjSPOR5STw83qE6HU-84" value="unique_nt 0" style="text;align=left;verticalAlign=top;spacingLeft=4;spacingRight=4;overflow=hidden;rotatable=0;points=[[0,0.5],[1,0.5]];portConstraint=eastwest;rounded=0;shadow=0;html=0;fontSize=9;" vertex="1" parent="MGGpjSPOR5STw83qE6HU-82">
          <mxGeometry y="52" width="80" height="26" as="geometry" />
        </mxCell>
        <mxCell id="MGGpjSPOR5STw83qE6HU-85" value="default" style="text;align=left;verticalAlign=top;spacingLeft=4;spacingRight=4;overflow=hidden;rotatable=0;points=[[0,0.5],[1,0.5]];portConstraint=eastwest;rounded=0;shadow=0;html=0;fontSize=9;" vertex="1" parent="MGGpjSPOR5STw83qE6HU-82">
          <mxGeometry y="78" width="80" height="26" as="geometry" />
        </mxCell>
        <mxCell id="MGGpjSPOR5STw83qE6HU-86" style="edgeStyle=orthogonalEdgeStyle;rounded=0;orthogonalLoop=1;jettySize=auto;html=1;exitX=0;exitY=0.5;exitDx=0;exitDy=0;entryX=0;entryY=0.5;entryDx=0;entryDy=0;" edge="1" parent="WIyWlLk6GJQsqaUBKTNV-1" source="MGGpjSPOR5STw83qE6HU-56" target="MGGpjSPOR5STw83qE6HU-74">
          <mxGeometry relative="1" as="geometry">
            <Array as="points">
              <mxPoint x="800" y="535" />
              <mxPoint x="800" y="659" />
            </Array>
          </mxGeometry>
        </mxCell>
        <mxCell id="MGGpjSPOR5STw83qE6HU-87" value="" style="shape=image;verticalLabelPosition=bottom;labelBackgroundColor=default;verticalAlign=top;aspect=fixed;imageAspect=0;image=data:image/png,iVBORw0KGgoAAAANSUhEUgAABJ8AAAGcCAYAAAB3IQF4AAAAAXNSR0IArs4c6QAAAARnQU1BAACxjwv8YQUAAAAJcEhZcwAAFiUAABYlAUlSJPAAAMXSSURBVHhe7Z0FlC3F1UYLd3fnQfBgwR8EgrsFd3e3AIHgGoK7u1twd3d31+Du+v+73q2hX7++OrdH3uy91l0zV7q7uvScr05VD9GvX7/fg4iIiIiIiIiISAkMWfkrIiIiIiIiIiLSdhSfRERERERERESkNBSfRERERERERESkNBSfRERERERERESkNBSfRERERERERESkNBSfRERERERERESkNBSfRERERERERESkNBSfRERERERERESkNBSfRERERERERESkNBSfRERERERERESkNBSfRERERERERESkNBSfRERERERERESkNBSfRERERERERESkNBSfRERERERERESkNBSfRERERERERESkNBSfRERERERERESkNBSfRERERERERESkNBSfRERERERERESkNBSfRERERERERESkNBSfRERERERERESkNBSfRERERERERESkNBSfRERERERERESkNBSfRERERERERESkNBSfRERERERERESkNBSfRERERERERESkNBSfRERERERERESkNBSfRERERERERESkNBSfRERERERERESkNIbo16/f75X/pQmWWmqpsOuuu4YRRxyx8kkIjzzySNhyyy0r77qeJZdcMmyyySZh4oknDr/88kt48MEHw5577hm+++67yi9ERERERERERLoWI58GEyaddNKw0UYbhUkmmSQMMcQQYZhhhgn9+/cPm2++eeUXIiIiIiIiIiJdT68Tn0444YQYYVTrRcTP7bffHs4444yw+uqrV44cvBl33HHDCCOMUHk3gKGGGipMNtlklXciIiIiIiIiIl3PYBn5hOgyyiijhBlnnDHsuOOO4bzzzguzzTZb5dveyfTTTx922223cNVVV4Wjjz668ukfPP/88+Hzzz+vvBsAS+9eeeWVyjsRERERERERka5nsF92xxK0aaaZJopQLE3rbay00krh+uuvD2eddVb8f8IJJ4xL6vKwr9P5558f3nnnnfD777+Hn3/+OTzwwAMx+ktEREREREREpLvo9eLTb7/9Ft57770Y4cOL/3/99dfKt38w+eSTh4UWWqjyrvcw9thjh9FHHz2KaPW44YYbwt///vcw55xzxv2eENzcbFxEREREREREupNeLz4hNCG6rLnmmvG1wgorhGOOOSZ88803lV8MYNhhhw1TTTVV5Z2IiIiIiIiIiHQFg+WyuwsuuCC8/vrrlXd/MMYYY1T+ExERERERERGRrmCIfv36/V75v1fA0+7mmGOOyrsQ9zY6++yzw8knn1z5ZAD53wFPwdtmm20q7/5gnnnmiVFT0003XRh11FHjEjciqr7++uvw6KOPRjHrmWeeqfx6AEsttVTYddddw4gjjlj5JMQn7W255ZaVdwOYYoopwiqrrBL+8pe/hPHHHz8+kY7zsy/Tt99+G0Wyyy+/PO7rlKUo/UV89NFHYe+9947pzB/DkrtDDz10kHMDm7HzJMDZZ589jDbaaHGT9pQmNi9nk3b2jCqC/FpttdVifqVjgbLg+FdffTWmJZ9nIiIiIiIiItL3GCwjn9hYfIIJJqi8GwB7Q7EZd55//vOf4T//+U+Ye+65o5CS9lZCUGGvpUUWWSQcddRRYd11142fN8MGG2wQhbGVV145ilAIVen8/B155JHDTDPNFPbcc8+wxx57xM+7gk033TQuTVxsscXCmGOO2SEepTSxZ9Rhhx0Wdt555/h5lpRf884770DHAhuhk2c8mW+SSSapfCoiIiIiIiIifZnBTnxC4Nlqq60GEZ8++eSTcPvtt1feDWCfffYJyy23XNwPqhZEQ62//vrxaXPNwHmz4kw1EG0WX3zxGIlUNkRmrbfeelFkqsVwww0XVlxxxYEiuTiOiK96+SUiIiIiIiIikuj14hPizpJLLhmXxl100UXhmmuuCQsuuOBAos9PP/0Urrvuurg0LYHQw9Pvsr/74osvwvnnnx+XsbEULvukuFFGGSVeJ7vMrlG4PkvQzjzzzHju/fffP9x5551xmVqC5XgLL7xw5d2AJYIsl2MpX/7pfW+++Wb8jtdtt90Wl941AvnChuxZ8Yh7vPbaa2O6TjvttJgHCX5H5BdRWzD//PNHUSpBup588slwyCGHxOOPPPLIcPfdd4fPP/+88gsRERERERER6esMNcYYY+xT+b9XsPTSS4eJJpqo8m7AUjEik8Yaa6y4DAxxJC1tA556d+GFF4YTTzyx8skAtttuu4GWhvE79ilCIHrllVfCvffeG/domnbaaTvOh0D01ltvxX2aeHLefPPNF6OWEu+//34UuRIsqfvll1+i2HTqqadGIYlzv/TSS+GWW24J/fv3D+ONN17l1yEMOeSQcb+lDz74IDz11FNRoJp44onDzDPPPJBIxjl22WWX+D37Mn355Zfx83zeIG7dd9998fewySabhBlmmKHjfvgewY4ldvzmsccei9eZZZZZOq43/PDDh48//jimZ6211hpo0/Yff/wxHn/ZZZfF4xHYbr755vhZuqaIiIiIiIiI9G0Gyz2fANEHgWejjTYaRHiaa665oqiT5d13343RTlkQmRBYEkQ9TTnllJV39UHI2mGHHaIoQ/QQS+t23HHH8O9//ztGWGWFIkDIIsKqDEj71FNPPZAwh6h0xx13VN4N4LXXXoubhicQ89hDCxDosiDGbbHFFuHAAw8Ms802W+VTEREREREREZE/GGzFp6GHHjouE2OPojxESeWXzxHhRGRS9kV0EQJLgnNybKNwDcSnG2+8MUYDHXDAAWGNNdaIy98QgvLnQugpS3xiE/D8PU844YRxQ/TsPR9xxBEDRTdBis564oknoqiXhb2j2Lgcge/qq6+O+23lryMiIiIiIiIifZdeLz6xdIy9ilhyxn5P2X2UEHMQe1huloXldtnlco1C1BBL4xoBAYblbFwfkSkbcdQdjDvuuHU3Ga9GWoJ3xhlnxKV++T2ogPtjk3c2JWeJYdonSkRERERERET6NoNN5BObbu+3335RHPn9998rnw7YNJtNtuedd97KJyFuiJ2P4EG0YvPtei82D2+EDTfcMPzlL3/pEJ1I0xtvvBHOOeecsOeee4bVVlstXHXVVfG7ruDrr78eaAkhICIV3WP+9cMPP8Tf8//uu+8e85m9qbJCX4L7ZT+srbfeuvKJiIiIiIiIiPRlBrtld0RBsX9TlnHGGSc+3S7x2WefDSIivfPOO/FpdgsssEDNF/s1NcKss84al+klEJ7WX3/9cOyxx4abbrop7ieV3Wy8bD799NPw/fffV94NgM922mmnwvvMvtinKgtP2SPCCVGPTdq5t6zghwDF3lgs9RMRERERERGRvs1gJz4h6txwww0DiUuIIUQhpeV3L7/8cvjiiy/i/wk2IEccahf5JW75KCH2fZpmmmkq76qDYPTbb79V3g2AvZqaXdZGpBLRYVlYDrjMMstU3tXn+OOPj6JTgvOxqTr5xlMAsyC8ufeTiIiIiIiIiAw1xhhj7FP5v1fA3k7Zp8QhzDz11FPhscceq3wSwosvvhjmmGOOMP7441c+GbBvEe+fe+658Morr4TJJ588bjKe9nDi+5lmmikstNBC8S8Cz6KLLhqvt8EGG0ThiuV6HAssLZtvvvkG2jvq/fffD9ddd138f6WVVgpjjjlm/B/YxHv22WeP+yLxHXtBjT766JVvB4BAdd9993VcA0hz//794/LBBJuSI14tu+yy8VwIP1w7nzf585GemWeeuSMii3vnPoj44p55qh3XQpBaZ511wpZbbhk3XH/88cfj7xGe2FycfCFdY489dphuuunivfA3mxcffvhhjEIrWponIiIiIiIiIn2HwS7yCdib6JJLLglffvll5ZMBICghlMBll10Wo6SyIEAhxvCEPJ5Sx28XX3zxKFKNNNJIlV81BufOLkVL4tbGG28cxZtRRx11kD2YinjhhRfi8rgsRHIh/LC0jfM0yqWXXhqFuvwSOTZgR1TiSXUIbdw/aeXc+Q3W+X2/fv3CuuuuG/bdd9/wr3/9Kx6bjXJiP60HHnggloOIiIiIiIiI9G0GS/EJbr755nDPPfcMtGQN4WSeeeaJ0UKIQ2z8/cwzzwwkxrSL008/Pbz66quVd4PCd0Rh1ePtt9+Oe0Q1IlTVAzFol112idFQRU+sawdEOrEn1CmnnFL5RERERERERET6MoOt+ATnnntueO+99yrvBsBeTKuuumrcMwkBiqfSHXTQQeHpp58O33zzzUBCFEIKe0M9+eST4cgjj4yiSqNw7oMPPjjcf//94dtvv43n5fXVV1/FPam23377hgWgU089NRx22GFRsMouY+MpdGyUnt/LqRYIUER18dS6Bx98MN5fNh38TxpZunjyySfHPExceeWVMZ/yx5AmNnFH1GID8/3339+oJxERERERERGJDNGvX7/2h/2IiIiIiIiIiIj8P4N15JOIiIiIiIiIiHQvik8iIiIiIiIiIlIaik8iIiIiIiIiIlIaik8iIiIiIiIiIlIaik8iIiIiIiIiIlIaik8iIiIiIiIiIlIaik8iIiIiIiIiIlIaik8iIiIiIiIiIlIaik8iIiIiIiIiIlIaik8iIiIiIiIiIlIaik8iIiIiIiIiIlIaik8iIiIiIiIiIlIaik8iIiIiIiIiIlIaik8iIiIiIiIiIlIaik8iIiIiIiIiIlIaik8iIiIiIiIiIlIaik8iIiIiIiIiIlIaik8iIiIiIiIiIlIaik8iIiIiIiIiIlIaik8iIiIiIiIiIlIaik8iIiIiIiIiIlIaik8iIiIiIiIiIlIaik8iIiIiIiIiIlIaik8iIiIiIiIiIlIaik8iIiIiIiIiIlIaik8iIiIiIiIiIlIaik8iIiIiIiIiIlIaik8iIiIiIiIiIlIaik8iIiIiIiIiIlIaik8iIiIiIiIiIlIaik8iIiIiIiIiIlIaik8iIiIiIiIiIlIaik8iIiIiIiIiIlIaik8iIiIiIiIiIlIaik8iIiIiIiIiIlIaik8iIiIiIiIiIlIaik8iXcSee+4ZHnzwwXDfffeFLbfcsvKp9GVOOOGE8Mgjj8S60ZO5+OKLw/333x8222yzyic9B9JE2kij9Fxmn332cN111/XYeiTSDpZaaqlw1113xbpOnZfBn1TmvPi/WRzDRKQvofgk0kXMOOOMYaihhgrDDjts+POf/1z5dPAmOZwILNVeGuk9g0knnTScd9554aGHHgpHH3105VMR6WmkiYyrrrrKvlPaxogjjhiOP/74cO+99zpBNhgx77zzRjvrtttuC8stt1zlUxGR7kHxSaSLeOyxx8JPP/0Uvv/++/D0009XPu0aFlxwwfDvf/873HzzzWGPPfaofNp1/P777+GHH34I33333SAv8uOXX36p/FJERHoiCyywQDjxxBPD5Zdfrug1GLLTTjuF2WabLTzxxBMxKre3ssEGG8QoIidRBkC0/SWXXBKGG264sNpqq8WJJhGR7kLxSaSLQPxhBmr++ecPJ510UuXTrmGVVVaJAtQYY4wRhhhiiMqnXQfiElE1OC/518orrxyefPLJyi+lu3j77bfD2muvHeaaa66w3XbbVT4VkZ7GAQccEOaee+6w/PLLh0cffbTyaflMO+20YeaZZw7DDz985RMZXMA++Otf/xo+++yzcNFFF1U+7Z3MMcccYYoppgjDDDNM5RM5++yz46Qn+fL3v/+98qmISNej+CQiIiIi0kdZdNFFw2ijjRajnoiUkcGP22+/Pfz8889xAhQRSkSkO+hT4tPWW28drr766rjPDH95LyIiIiLSF2EJJRFtX3/9dbjjjjsqn8rgxmWXXRbeeuutMN5440UBSkSkOxiiX79+v1f+H6w55ZRTwqyzzlp59wfM8my66aaVd+XCGnrCgYGNQgmdz1Lre56gwVptZitSyPuPP/4Y3n333XDssccONFM17rjjRmGtf//+YdRRR43LrNhv55VXXgmnnnpqeOCBByq/HLBxKaH7gCjHedZZZ50w5phjhg8++CDstddecUkUm2WvueaaMX3pnL/++mv48ssv4/4P5G9Pgbzadddd4+aZH330UcxHlrstscQSMe1Aum+66aaY5+w7lMiXwbfffhuWWWaZeNzLL78c1lprrfgd52ZfAULVJ5xwwhjezb5GnIt8PuOMMwbKZ6hX/vPMM0/YZJNNwlRTTRXLmPN99dVX8Skoxx13XLyXPBzDUqnpp58+jDTSSB3lQtlRJqQ9XTMPM2CEYp988snxPffGZpSTTDJJx/1Qb7jvI444Ijz//PNhpZVWCltssUX87rDDDot7SNUCo3bfffeNy/2y16pHyotpppkmbtDOPX344YfhiiuuiOfJkvKVPH3mmWfC6quvHv6/X4ubu7Of1OOPPx6OOeaY8Prrr1eOaIz11lsvrLjiimH88ceP52K/LtoCT7TZaqut4m8OPfTQcP3118f/E62mnc1A88e98cYbcQkE32fJHvfCCy+EjTbaKIw99tgdbZZyp11zz/QbeVK7z3+fPW+2frJ/BvUiX4ZsSku9IX9uvPHGsM8++1S++aMfou2NMsoo8TOcG/qYfH3maT/k9zvvvBOvu8MOO8Q6zXLNs846K5x22mmVXw5K9tjsvdBXci7aE9c66KCD4rVJF3VkoYUWiv+nus5yE/oE7i/bJ+TTtvHGG8exZIQRRugoo3POOSfccMMNlSNqk/qnb775JvznP/+J5fCXv/wlno/2dvfdd8e9Svh+++23DwsvvHDMv99++y2W77nnnhv73CI4V7b+16pDUEYZpTRMNtlkMW9TGq655ppYV6r1BWWkpZm2WIts/acMsnlMv/DSSy8NMrZC9rghhxwyLjHOjyVQNL5TF2ifnCPfx1Sr88DYxPeLL754HMcZE+gHsXXIF/rIPGk8I/ol9Xfk1eeffx6uvfbamK9cr2gZE+Wy9957dyz/a6Ycs22B9kma03HUd8qKvWrOP//8yhG1KattrbDCCnEsoMwpn1p5mk1DNl/IY8ZM+le+Y2Pv7LWaabvtHvNSfUpjSRHJ1phhhhnivSS7krp81FFHxXTky5Pl/nPOOWcYeuihY5s75JBD4rmaqSPQaP6nfCkC+za7iXqzaQDyKG8T0PZvvfXWmIdQZBPUI9uet9lmm0HSlR+byH/sO/q1/H0l2NcJu43+58orr+zI+3/84x/RjmMPUjeVF5HuoE9EPtGRFwlPwOd835PZbbfdorOIcZ0MU2DzwAkmmCCGSicYsNhPaMkll4yfM0gDxyEg7b///nHgKWKsscaKgyB/OY7BFaMBgwJDbpFFFhnonHyPccsg3gyIfQceeGDlXXUQLhhsuadWIa04i6uuumpH2nmNPvro8TMMBQbyIqaeeur4myRYkReAg4CRg7GQHCzgvAhAs8wySzQyN9988/h5I5AnGAeUUSpjzkeaEc2OPPLIQcKkOT/XwbgbeeSR4++BcqFMMDoaBSMFo4drZO8Ho506lvJouummi2nihVFfBikveCIgxu1rr70WPv3005gOhC/aQhGIL+xVhGH45ptvRuORvESE3X333auWcxGIKFwLYREBkjR88cUXcTNWDHAcySI6k3baJsYkThBOA4btn/70p2gsVjMSKQfOO84448TySm22K1h33XWjc8E1b7nllrinWSLbD1EGGNW8qE/UZ+pb0aan3MMuu+zS8WRI8pm/zUI9pszJP+oBacOpAMoIgZ16gnONWPzxxx/HvgxHnk13iyAdnBPnht+zRxZOK9fYdtttoxDdDJQTYw916n//+19MJ306AgB9/sEHHxzFYOoRTihi8UQTTRTrQtETi3iQAI7flFNOGUVr7gtnivfkKSJMljLKiD6J78gTBAvqMfUZp3HDDTfs6NvylJGWVttiLdjziOtRDkQQUAeA6zOmVRtbuX/EpvxYApRbGt8RQckzXvzPZ//85z8bHkvS2LTGGmvEMe7999+P5yKf6AcR6vIbhWfHM/q7VHf4iy2A2PDJJ5/E/HvvvfdinWfii/PyO/raJNZ2phypH4sttliss6m+kx7KkXG4GdrZtrB/EDcZ+/gd9025cw3ylPMV3VMWxh6EKNKDMINwkBWemm27iXaNedg63A9lXERqS9ga2AeUKXlAe6OtF9kaTFaSDn5P+aY632wdaSb/mYwl7xirgb+858V3iVbqKeVXZBPQRhlPqtkEzUDfha1HO6Buvvrqq/EajE20aew9ypT2xtMu6WOxQYs2/6essAM5/p577ql8GqLAiHBHP1iv3oqIlEGfEJ/oyGtR7/vuhEESp4YBHGf0v//9b3SQll566WgwMmAyQwYMJBhPGAJ8xowbRiu/v/POO+NnOKvMvhYNOpNPPnk0jBBkcLC4BudgpofBD2P4qaeeijOGfI/BzMwT6WoUjHPSkwSOWjDAEh5MlEleeGkU0o1xQLoxnngRvUJeYBAhPuJAF4EQgMGC88/9km4GfpxTzsnx5BczwxgmGA3MApJPGLrkcyN1C2M3nZt7vvTSS2Pec10MSq6DgYeBk2CmE+OO63A9HCEMWtLBjCrpwEkgAovPuP8Es3R8RkQSogHpxHjB8OF+Tj/99Hh90sQm4TgeCTasxJhhJo5H8jcK5Y0IyCxd/pV1AskvHA3ui5m+ZZddNt4r6Tn33HNjuf3tb38rzFc24GUWknSnY5g15xjKkmigRsAJQ2jlOMLUmR1P52OGF6EPgzVPZ9KOU4JjR3tNbWT99dePdZW8wyDGwc2DY02Z4VRm22zZkEbSh7FOJBjOXHJAqceI2PRDGM/pnnjhECHcUJ/Jmzw4uxjFRHuwGT3ORT5Cph6pjbKMhLrLLDZpTNBfPfzww9GhI79oR6mu0JZoC7TvPNwP/Sf3kO6HdoSAhRNInWkGxAHqCs4T5U0amDGn3RJlQHkSTcbnfM/vcC4RMMibLNRZHCnST12jjnFfRFNQF3HUOE+qQ2WUEdekL+Fa7C1CnSXdRC3gWONMJ/ElS1lpabUtVoP+kbpB++I+uTfSiPCIgEGUAmMl95OH9k0fzW/TWAKp3ICtAFKe8eIaCKbkZ6NjCYILdZc8I8/Je86FXUDeklfUiywpaox+nbE/1R3+kpfUOYQSxh+i+8g7IodxhPkd4zNRsZ0tR+wP+tdsmhl/OS8RUc3QzrbF/VJ2iItpLOCeUtvH+acu1YKxnPPi9BOZl93Qu9m2m6VdYx6CCv1iVqBJJPuE/KQ+UsdTuVLG2AGIIFmYhEOoxb4gTeQ3Y1QrdaSZ/CfairxDbAL+8p4X30EraaCMEC5JS94moB3QNxTZBM1COWCzck7OTbqpD1wT4Y2JzSTEYnsjVPJ76kEe6jnjM0JdmngBfAbEM/orREcRka6mT4hPGFy1qPd9d4KzkwY1jEOMEWZ+MJTOPPPMGIXBZ4CRkESaZ599NjpghNbyewZqBlpghq9osGI285xzzokDXZbkMGBgIBakgYzrMiOWjXioBelj0Cc9zDrVA4MW4xdDkqiQVgQoZqPYwwBHEwOaFzOFDNyAQcXTvYrAwEbgy+6BwCwcRiCCEM4Uji0iDobtBRdcEK+DQAOUXSNGM44ReUz+Eh5NflK+XJeQcgwM7gPDA9EQ4wmjEsMCg5UyIQqFZR+kA+MWYYD3OEp8lhUIMTz4LNUlDH8MXOC6lA1/+Y4lChheSdDAQcIIw0lqZm8I0slMHgJF/pVNG/lFvlF/s4IGIIolJ4+8yMMsP0YbaU9giBN5QRvCoGwERATqBfmar9s4DeRB3tiGzqSdMmb5bHb5BvlPWWJgE9mUd4oAYYo6WrSkqixwlFiaQT1k9pX6n71XHGXaKulGEM3eEyIQs7C0nyJnCqcFh4VIy+w5G4U00dfh7NNfUpfzy+EoUxzmbLoAJ4o2TX+DI5yH/hHnMCtkkVbqCTTbP+EI4wBnHQOEbKJzaI84XIjHCX6HaAY4KVmosywrI23UowR5SBugTSCQpQjgMsoo1X/GmXyd4JwIRDjfecpMSyttsRr0wTjnREVk+xjGWPKYe6N/ZozIQhulz2XiI78sL/U1lCtjXDadXINrcc0iUSQP55ppppliP5uvp+Qp/T0OLNE0SVwl7xFpOYa6lo3GAfIqu5S2Fp0pR9oCyzKzogzHcxwOP5E9zZRVO9sW+cb4mu9jqXc48pRfrQgShCfGTPqPCy+8MNpYWZptu1naMeZRF+g3yefsRFMi2Se0JaLwsteijLi//PJ7zseEFxFd2d+3Ukc6m/95WklDLZuANoM9VWQTtAITzPl2yDWxh6knTEgDdZYoJuozbTgLaWe5ObZVtg0AE1pMWHEuhCsRka6mT4hPhF3Xot733QmDKyII4IAyS8nMYBHMdDEQYWBiEGcNWf5Ps0HVjBL2V8CxzpPyByOa2SFmb5tdaseAifDEfh8YkTgiDOT1Xvvtt1+8bwZSxDSMmmbAmcSgyEJe4ARgDALiSxGEVecFFmaKkhiIyJQ3Ejj3vffe2yGoJLGoGuRFMnZxlvPOCYYQUUaAU0zoOY9DRkAEDChEr2xZNwvRVckpZBYRg6zZJUT1wDAjigoHKv9Kxhx5hVFI/aXs8/fEe5wGnMAicQCHEsEmC7N+GOIYk9XKOQtCJIY++cFeW0UQVZYVzKCzaSfdRRFLGI58R7suEsk5Z719t9oJTgjRFeQR94kzkr9X+iEMdUSIIoGS+6HtYfjmlwsgwuXbQDOkCAOMa4Trov4M6L/oj4hWpC9ivy2iPuifqkFbS8JyFsQByp12XhQxVQ36pmxEIlAHSDu8+OKLsf5mwZHjWtSjBP0BEaKUQ1He4Vwxm5910tpdRtw758aB5R7ydQK4Fvecp91p6WxbrAYCOnmZLxPA+WT8xKGbeOKJK5/+wXPPPTeQkwup3Gr1NVwr1RHuqRZEQRKVyXhdVO8ZzxDBsuIq4wnjGdep1lYapTPlSLoQN/JwDH0t56XPaZR2ta0s2F1E7yDsIYgwNhcJaVkYR4lgou4gPDG2Zmml7WZpx5hH22V8IW+yQhFQTikqCrumqF0XgZjJxESeztSRVvK/iGbT0KpN0AqMMdUiytnHi/pJWlJdoEyS6J1EKWDyhbKnLyAKNQ82JWVea7wTESmLPiE+1XPOutJ5axaMDwxbBkOMCcQPZpNwlthYOCsCpf8Ridg/AcM7+0oh2JynyMDCyCkyLlgGlgQoBivC75mdwbkjtLcngxHEbGceZvhwlACDPW/oAMug8uBYkH9QNEsIGHBpFqyeQ4phx/UBo4JIqmyZIZwlR4EyI7yb9xhPgGCVn9lqFgw5NmIlPzg/M6w44swcEyFSSzxrJ9RfnDfqb7UlerWWnmC4FYHhD0SK1QODjful3jQjSnc27Tiu1UjpLzIUixzhsqBusBSAe0XcZllPUX+R0slSi6J8YA+TamWB0M65W4G2RB5jjJ944omDCMMJojURnCin+eabLy6/IFICEYl+thrUCWaf83AsYMw301ZwJEhrNVL/lCVdKwsRPPQHRAExJhTlORExWdpdRil6AgeMaIxmaHdaOtsWq0GfXjSWAO2AsqGNpP48QTkXLWdK5Vavr0njCSJRkQCR4LpcH5GKcSN/z0RR5fsQBG3GM8S4RoWFanSmHGl3jGV5uG/6P8qSMm2UdrUtwKknGhyhnYg6JsIoN8olTQwWgciH8ET+IjwVRXu30naztGPMqwVtiXqFOFhtP6gi+D11Kk8rdaTV/K9Gs2lo1SZoBQRAIpOKSPWTdkC5AL4BaSLKk/tJkGeMRwiuRTZCqh8iIt1BnxCfcOjTMqs8fM73PRmMFgZEwsIZAIEIBMKh+S4741EGiBsY8QhOGDvJGGTDaZYS4MzVg3MQ4YLBwODKHgIMlvVeGGSIYsxiHn744Z02kIvAYSJdfRmWyRBlhnON4Y7BjNHFkjuWddWbdW8nOBxEY6WNQoteRc5cO6nnvFSjzLQXOUxFn5UF18JBpP2zdIelCLVAUCu6//Qin/LtGQO71TbOcfSPOA5EFBQJQdn9S9gHj/0++vfvH5fF0D+14sz0FHDgmbUvyuv0yvdzZZRRGqOapd1p6Y5+hLZRJGIUfZagXTUSNcH9VJvwyEIbLbrX9EJEyNfzdkRtJFopx54KYh97T/GXSBn2HWLLAvYYIgqc+6kG4wcvRABsmVpjaCtttytptI4mqO+1xqZG60hn8r8ezdbTZvOgTOgLgPThw2CvEe0E+APkF0JWNb9HRKQ76RPiEyCQ8LjjNHPBX943Ipy0i6wzywxlHhyiahCSTRQKAy57+aRZQmbt//73v8f/0/IsHGf2CsoLOdkX4cvNgOHDwM+M8b/+9a+OjbVx8IiGaGS5CbOx7LOAEYbTVw/OydIY7pV9O/Lh5Y2QooXyEEGW8ptButEIEgyWRLVlAHyersmykKLlVAlm0pOBQx7zNJWi8uLFciJmuhAAk/GBo91K6HkRnBuxiX3EiBohXRg1LM1gn4Sy4XrcF/WKaMS0UWjRK20e2m4wMDGcmZHO7/2RwJkgX7J0Nu3VZqhpX4iAnLfsWddGYLN6BEpm9WnDabPkLKmfY0lI0f2nV9qouF3QT7BnDI4cDgp7P+UFKJYmUbY44Aj62agZ7qlWH9xTwSGiz+dF/1qU1+mVlv20u4xSf0TbSEuC89AnFkXctjstZfUjpL1aOyVylggRrstkSSOkciPqheXO1SDKgXxF1EtjRRGcj74LgaroXtOLqOgULZvyHme1s3RXuy8Txj7GAcZx2hYTcFnoS6pBP3TOOefEfglbhs2s8wJUK2233aS2m8aaLI3W0UZpto50Jv+r0Wwakk1AHrBEsogim6AViGqq1hZTP0BeZKOjWH5IHSOKkQkhxCfGMuxlotqLoJy5p5QXIiJdSZ8Rn4AIJ2a+ceT529URTwgNGMRA6HDWMULUaWRwR6DACLniiiuiUQBpjwnCnBlQiEriHvOOV7tgQDvmmGM6liBk95CoB6IGoh9GTT1IP3te8fS2VoQnIG35pYEYgHyGM0R5IKQ1CgYLRiXgyOadb9I8//zzRyeWc9dLN8sqUz6yxwDLgOrBJpNJfMQgQZBsJ6SZiLa0VwBOVzN7o7QKhh71m/rL4727A+obxh1LXKptRI+wkfb9SnQ27RjZRTPj9FMYlTiezdRT6hT9Aw5xfkkpdZQnEbUC5yRCjllo9mJj/ydE0Sy0ERwa+rN2CaONQt/IkjocBtKFw5ftB9Oy2aK9h2jPOBi9DeoF/QH3WbQpcRHtLiOcIfaZof4zA5/N8wR9Lv1xnnanpax+hPGCOlJ0b/Tb9N/UK67fCOwfQ54haBF9VwSOKMIFYwn7RtWCfpuxiTGB5UmNQN2hTdO/N3pMNbqz3ZdFWuJOvqYxN8F+TtXEiARjNdsTMMHFptAI3mnJFLTSdttN2oCa+s3yrSzUUcaSWnW0GZqtI53N/yKaTUOytxjzix7UA0U2QSsgChXlM7ZBqh95mxIhmckUhDjsfpZpcn/VtmOgPyGttPvsZKqISFfRp8Sn7gZDIy1JYMNvZl1xLnlC2vbbb184i4NByH4BfJ+ii5jZwMBnFgTS0gGiElJYPgMQEVLM4HAcDihPQGMmjr0fmoEoKvYAWmihheJ7BkJmWFj6BwzMhCg3CmnIPl6/GkQMbbPNNlUH0UYgj1ZZZZWY1zyFiPwg6qtfv37xe2ap80/DqgV7D6TBH0ONTdBZGpjOTZ6nPRpwgHh6XS2YyWbmCkMgpZXlP5yPCALynMdAc13qCSBYsdEkDjYGI0+eI0+5PsfxOzb3Tr+H7AwXyyURrHDMeYpM+j1LK5MAQr3D0QIEzVS+1FeeMsN+UO3elBy4LwxNjCjuO+/oEZmFeFm0R1c7wHFkY0+cPRxKItGyUB8RF4voTNqZ3c1v5I94wv5qGP70HUSmNQrLBqhbROFlH//OX8q90Sf/FUH9ZwksRjzpZZPv7NJfIhwxanlCFfeUN/ARIXiKVrZ+tpP09D/aB8vpSF+CvpKyxanJppnHZrOMuSgyp6dD1CZLsrkv2i1PIsxCme+8886xb0qUUUakgX6M8Sb/cIha+VtGWsrqR6rdG/0ifTGRdI2OV7RP7p2JmDnnnDNGFGfPS9vacccd41jFOMX4Xgv6B/ppxmX6cvItC/nKRE62PTD20Y45hkjGvJBMXcpGSSPOU8bYKvkJie5u92VAflKP2CcoOxnBvRE1nxdrimDCjaeWsg8Sdls2IrOVtlsG2CqIPPkypY5S76rVUfKBJ002Klw2W0dazf+07xxtKB9J1GwaKCMEOsqIMaMZm6BZGOtZFp5th9wDoiUTJ9jaRf0AdQjBif6O+6I8izYaB1ZL0N6ZZKM9J3iyMZvEs8pARKRMFJ+6EIzDl156KQ5iGKoMZAzmDKLMRBRt6MjvcEzXWmutaCyzIeJRRx0VZ9GYwWeQIQoKEGtwujAY+I6lZTwdj+PYgJcw4vR0m2bA0FxooYWiAMX1iSzgySOECGOUEAnV6GxvV8NgzQsnlH2NyA+izsgfjBoe71xrWVwe8pZBGgeccsT4walK5ybPOTdL44jCaOTcPL0F4wFnmTxF1OF8hJiT5whF1IGs40bUHoZCEqAoV67PcdQnRKTs73lKF/cLGB84ZKQbY4ff8XuWOKanEOJwJEOUeon4BQhrRC8wy18tMqgIhDWW82H45V+IWRtssEH8HXUV44p74r4RuUgTL/booQ4jqGBolQXlQWQPeUO6WLrDci42+eceKPuifW06k3baD4Yj+czvU9ljeLLc7swzz4x1r1FIB2VOXaTu0y/wVET+LrzwwlHM6gw42bQD+h/SyGawScxBHCUPmU3naY44TtwP16ev4Alz1NcyQcClXgHibHpcPPUNR56oLX6DY3jddddFcT/1Fb0R+gPKhMgt2jF1lTrL/ZHnODTZjbDLKCPORxpo6/Qt6dH5KX9ZFl6Uv2WkpYx+BNGF8Ztl5vl7I28RfJmoaQbulf6FPhgBK6WTcmPigjZFvtD+640l9A9E2dAm6bvJN9JHPvKXa9HHpEkrwLFGrKWPwbmlzyHPOYb2Q12ir0/wRDraD33jdtttFx9GwuQYIl5PaPfthokh+mbyjIkA8pGyYa9Nom6KbLYimBwir6hDlMFhhx3WIeI023bLgPvAnuFJcHnydZQ0kTZe1Dfuh3bWCM3WkVbzn6cZMuGG8ISQxDFp0rWVesrv8zYBv+cvtnk1m6BZeMgNNiDtkDTRF2AT0L6wtbH1i57Qh9BEG07CEnlWbSsJ7o374FrJbuf8TEhRjkw64l+IiJSF4lMXgnHIrAKhzCkSBfGAQQJHrsgwZ2YCg5eBEuMAOIbfYlwjImRnWhE8+IyZGmba8scgWDCQNgODNY4D5wDOSfoZuNgHCuO1p8KAjXHHPfA/YABiSGAAFj2Bph4Yisx24chnn5qXLRdmxxt9dDX1AgcGgZClk6QvgWCEUYHRlY2iSscce+yx0fBJx1A2lDtLNLLOCs4YBhgbzfKb9DvSy/EYcZRptr5wbxhAXIffACHonIMXEUKNggiC6InBnX9hdGNwJRAKyItkiCGMMftP2pIwlt3zoN1wrwh5OIIso0FsIw3kMU4BTkTKpzytpp1r0nZp5/wesRFjlr6Cp1u2Ev1HdCGCN/eASIpxSbniyHZWfALSlB4igADF0++SAEVdI920O/KNKD5EX8qaOk4EBkZ/meQFKCIOSDP9Ae0fQxvnBHGdfpHPyxQ1y4T+gNlxhACWyZDPbApPvlOP6JPy+xu1u4xIA3WANDBekK/Uf9o9ThqTJtXyt4z6UkY/wmPQcQY5B+dDxKTN0lfQZ6R+shmYMEj9OE4258WJpD8mgovzkj+NQP1m/KffoNxJH/lI5AhL/BgHKIcsHEPeU0e4F37LMZQb/f21115b+eUAsQpnHruESBmWLtGOKHvoCe2+nXBfRHmSn9gP9HPcE/mA/VBks1UDO4nxg3xBsEFgYPxrpe22G9oDYzoCZOrDs2TraOo3SR/H0LabmcBrpo60mv+0UeylNH5zTJp8g2braZFNwHhKVDgCUS2boBlII/0S4zMRTPQF9An17FXyg4fykAbSx9OLq0GkF79LwhPwP/eIfYBwx7lERMpiiP83xjrfY4r0IFh6hhOEYYdjjNPZjHFUFhifGJ2AcIWRIb2PVL8wPNkbi9lSERl8wcFEEEK8Idqju2HpD5EgiEBExoh0FkRJlpwh2jCuSe+CVRREnCIcVVvayvJIlt0y8ZjENxGRrsbIJ5EugpliYKYtbTIuvY/0pMT8ngkiIl0BGxOzoTqRSiLtIEXJ9u/ff5B9kKQ52LOJvUCJGKv1Yk+3/J5UrcA5WCpHZGmtidbll18+RncRUanwJCLdheKTSBdAKHt6KiHh42mTeOldEE3H/ggsPcjumSAi0lWk5YMspRNpByyfe+CBB+LStjXWWKPyqbQCT5NlqTdR0rVe7L9IfncW9mTlqbhslcASxSJ4yAJ7drK8Lu3hKSLSHSg+iZTEBhtsEMPXWRax5ZZbxr00gPX5bCoqPRNC1tnXJP80P/ZfoDzZ64GIA8tQRLoaNlCnL6IPYq8ekXbBfoCIE0TuYLNIa7A0lwgytlmo9eLhBZ3dEoK+YLHFFosTYtUimpj8XHXVVePEJ/tdUcYiIt2Fez7JYAczSj1hzyeeXMNsE8sjEoS1s5lloxvISteTyo2NPllax2wim+8yQ0lZYsCxZxcbWovI4E937/nEA0kQvVmyzUbEwObH6SmOItK34MEC888/f3xyXXraJg8ZUVgSkZ6OkU8iJcGTWNjYEXiKCE8t5Kk1Ck89G56Qxuvzzz+PRh1PHuLpc+ynkJ7wqPAkIl0FT75jnyf6ISKeWDZjHyTSdxlyyCHD2GOPHfef5KmdPElb4UlEegNGPomIiIiIiIiISGkY+SQiIiIiIiIiIqWh+CQiIiIiIiIiIqWh+CQiIiIiIiIiIqWh+CQiIiIiIiIiIqWh+CQiIiIiIiIiIqWh+CQiIiIiIiIiIqWh+CQiIiIiIiIiIqWh+CQiIiIiIiIiIqWh+CQiIiIiIiIiIqWh+CQiIiIiIiIiIqWh+CQiIiIiIiIiIqWh+CQiIiIiIiIiIqWh+CQiIiIiIiIiIqWh+CQiIiIiIiIiIqWh+CQiIiIiIiIiIqWh+CQiIiIiIiIiIqWh+CQiIiIiIiIiIqWh+CQiIiIiIiIiIqWh+CQiIiIiIiIiIqWh+CQiIiIiIiIiIqWh+CQiIiIiIiIiIqWh+CQiIiIiIiIiIqWh+CQiIiIiIiIiIqWh+CQiIiIiIiIiIqWh+CQiIiIiIiIiIqWh+CQiIiIiIiIiIqWh+CQiIiIiIiIiIqWh+CQiIiIiIiIiIqWh+CQiIiIiIiIiIqWh+CTSRey5557hwQcfDPfdd1/YcsstK59KT4HyeeSRR+LrhBNOqHwqvZ1NNtkk3HvvvbHt7bPPPpVPpd0stdRS4a677grXXXddmH322Suf9jx6SzrrQR9FX0W/JSJSJvSV9Jn3339/2GyzzSqf9j3sd//g4osvbro+WI8EFJ9EuogZZ5wxDDXUUGHYYYcNf/7znyufikiZzDrrrGG44YaLbW+66aarfNq3mG222cJBBx0UbrrppijCJZEVA5DP/v3vf4d55pmn8uvBgyQ63nLLLWG55ZarfCoiZWK7ExGRWig+iXQRjz32WPjpp5/C999/H55++unKp13DggsuGB3Mm2++Oeyxxx6VT0UGfxBZvvnmm/Dzzz+H5557rvJp1zDFFFOEXXfdNVx22WXh/PPPr3zadYw44oixvR9zzDFh0UUXDWOMMUbMh++++y72Q0MOOWQYc8wxY/+w8MILV44SEeldMLl32GGHhWuvvTZGN4qItJMNNtggRnsdffTRlU+kVRSfRLoIxJ955503zD///OGkk06qfNo1rLLKKtHBxPkcYoghKp+KDP6ceeaZse73798/7LfffpVPuwYEn+WXXz5MNtlkYeihh6582jUgPB166KHx+rT5O++8M2yxxRbhr3/9a1hggQViP7TQQguFQw45JDz//PNRGB+cOPXUU8N8880Xy+Dqq6+ufCoiZdJd7W6SSSYJc845ZxhllFEqn4iItI855pgjTigOM8wwlU+kVRSfREREBjN22mmnaCwR9UXk0y677BKjL7MQAXX55ZeH9dZbL4rjIiIiIiJl0afEp6233jrOxLAMg7+8FxERGZxYbLHFYnTTb7/9FsWliy66qPKNiIiIiEj3MES/fv1+r/w/WHPKKafEjWfzPPHEE2HTTTetvCsXnpLATDRcddVV4YADDoj/J2p9zxr21VZbLYb8DT/88PGzH3/8Mbz77rvh2GOPjU9QS4w77rhRWGOZyaijjhqXXPzwww/hlVdeiSHRDzzwQOWXA57wxbIMQJTjPOuss07cB+SDDz4Ie+21V3jyySfjevo111wzpi+d89dffw1ffvlldG7I354CecU+Kyw7+eijj2I+stxtiSWWiGkH0s1Gu+Q5s/+JfBl8++23YZlllonHvfzyy2GttdaK33Fu1v+ynGfCCSeMYZi///57PBf5fMYZZwyUz1Cv/Nnwl806p5pqqljGnO+rr76KmwIfd9xx8V7ycMzaa68dpp9++jDSSCN1lAtlR5mQ9nTNPOz9cvbZZ4eTTz658kl98vfwxhtvhFVXXTWMN954cf+YTz75JK6J5rzUmY033ji2uxFGGCGm67XXXovp4mlTeZq5/zLSkW8LJ554Yth8883DTDPNFNPDcbS3c889N14zD3WCp3fg+LO8kQ2uyeO33norOv/ZY/J1lPtbY401wtRTTx1++eWXcNZZZ4XTTjutV7U7nmKy7777xv6HdsCSr3HGGSf2W2OPPXb8DZ/Tx7BmPluejfZDrbS7/LnzT5pspr9MpHLhnlnmQVlTLp9//nm48MILYz0jmqhaeHY2HY307SuttFJcMse9sq8Je7fV4sADD4zLXuizGN+yfVwzpDq9+OKLx7Igb9grinGT+vnMM89UfvlHnSbSir5t7rnn7jgOvv7663gvRX0ZbZVlM7RX2u/KK6/c0eceeeSRsV7Rpor6q1Tv8t9n07P33nuHRx99tObn3Ct5S1vju+OPPz62sQR1aPXVVw//bzN1lDf9Tr5tQ637SWNIOh9LMlM9pr+78cYbw3/+85/4m1qkPpBrZ8cS6spWW20VRh555FjPiHhjfOhsHrJhPeXJWEqdR9j88MMPwyWXXDLIfmbZtFFHsvlG/Xn88cdjNN7rr79eOeIPUntM14FqdYe6STt75513Yh7k+3nK55xzzgk33HBD5Yj6rLDCCmHFFVeM6aU91qrzQF9E+WbHYJawvvTSS4X9R7Zu0M/8/e9/7xi3uM977rknRiE22mazeX3bbbfFMXSaaaaJDzapVUezx73wwgtho402iv10tr+Fov6JdFN23Mv1118fP0tUa1+JZtoRpD6f/mz88ccfqK9lfyeO5Xr8Lk8ah1IaW+3Pmqn7RVCfaffU3d133z0uc05Qbw4++OB4b/Q3+QjU008/PT6g5sorr4xLpKEoT1L/QZu/4IILBqmn+bayww47xGtn7Q3I90upfK655pp4D9X6kGS/ZeseeXTFFVfE32cpo90C56TtpjyhHVKPsfPoEyFbHxLNpL2Zfje14VbKqx3tupnjEq2Oc/n60Go9KiJbX2gf5HO6J/KQesJ9k/fk+1xzzdWQz9Fof5DytIisLSeN0ycin+j4i4Qn4HO+78nstttu0YFioEiDP/AEpwkmmCCMNtpolU9CHBzZT2jJJZeMn9OYgONwmPbff//YSRYx1lhjxYbIX46j42GfEgZhjOFFFllkoHPyPQ0WY7EZcIZwjuqBQUzHxD21CmllYEOYSGnnNfroo8fPGIiKjBZACOA3OA2Q9mzBCKMzojNMHStwXozPWWaZJToxCBeNQp5gWFBGqYw5H2lGNMMB47pZOD/XYZ8DOl1+D5QLZcKgUCakh04XEYBrcn3EBu6FNoWRhUPPIAD8hjxlcKBss7Ry/4l2piNBGqij5G1KD8dR3hyXL9tUJxCQMOD5LVA3/vSnPxUek6BekX6exMZxOCH8bXe7ox0hZlS75ywM8M3U3yIQ4RBMKAvSzov2gQFWqzyr9UMpj9vZ7lrpL3lP+ikX+pFU1vyl7CeddNL4vhEa7dupG/zP6y9/+Uv8rBbkFcYtDzZoVXjK1mnu8/33348OJ3lEe8LwLqpLfL/hhhtGh5W6/Oqrr4aPP/44lhH5fNRRR1UtewxeDNN8n1s2jAE4yjwVEGcTYzUrPLFpO47olFNOGY1dhEmEAt7TtjHwi6h2P7T3f/zjH/F4nGjOx1/68Wp50wjkLyIC52GJJYJSq+WfJZUpbZr7xolAWKfPpZ9lnCyC9rDddttFh+vNN9+Mzjf1nPpDv5wfe7Ptkd/hbPCi72YcOOKIIwrbF22P8+EgUNfefvvtKBDQ92677bZRIGoE+lycctob90d951yUG2mmvWavT/3feeed4zhBGsgXjuHa9B/Um2r9Ldeg3pAHHMOEAsIGaWjloSDkNf0VThkCEufE+SYPqGvVHCT6lGw/nfpbIB2pf6I/4Zy8+J/P/vnPfzbV3zbbjrJ9PnUtHcNfxocZZpgh5hsOJvULIYUX//M7Puf77Lla7c+arftZnnrqqXgsDnf+Sce853P6SsouC+mh7eAQp4dlVMsT7od2z7iE7VLNbuZ+yGvqJ2Wd7A2gLPmOOkM+kj/UJfox8iA7RmVJ9hv3gjBJvn/66adxDKNuUYeKaFe7hX322Sdeizxh0pg0fPHFF7FPZ4KW+yyi1bRnqdXvdra8Wm3XrRzX6jiXp9V6VA/sIvbt5DyMC5QvfSbi//bbbx/HB/a0/OyzzzrqUjVbv5n+gIlA8oLrAX95z4vvpHn6hPjEoFGLet93J3RIdMA4WnQc//3vf6NRv/TSS8eGQwNE3QWMIjoURAc+Y8aJToDfs9ksn2Fo0FCLDLjJJ588Gt4IMgwGXINzMJOAs4vBwSBKI+d7OmUUYtLVKDhupCc5jrWg82ZGEJWbjqIVSDdGEulmgOHFTAh5QSeD+Mhm3EXQadOx0FFzv6QbQ5G9VDgnx5NfzL7huOCQMrNNPtFJks+N1C0eR5zOzT1feumlMe+5LkYU16ETJxIkwYwCkRdch+sRXYPDRDqYsScddLxEgvAZ95+49dZb42cMkDwOuVXIAzps7ptrM2ADsxGkjzJjtpoBkNn8VE8wctnoONHK/WdpVzqyTDvttLGtpLLlvFwDyHMcIYy3RJpFBPKetHMPzFZyPY5ZdtllC41bBj6MT37LMQx8iK7tbHfkAe2IvqFRZ5R2UU2orgfGBbNPDOaUC3lPH4TRTnlizNA+iijqh5gpbne7a6W/pC9GGONzwJlm5julg76FcqFd0b4QMLhnoK/md7xol8307YhIGDwYVQ899FD8rBrUMcQOjkXQaBWEW/IbpwCDlIgQ0keeIShhnNMH5aEuU9+Y1aQc+E26J8qNsq/msOEo0JfheKQ+tyugvbJMESePKABmeRM4DTgX1K9zzz23456Y2SV6Fked+8v2B4mi+6EuIcByHDPJHMv5mH2lH2EmtRWoT5QZTgf9BUJsPsKsVXD0aZcIh9l6wPhIv03aiyD6jQggfk9fzL0SLULdZHwlMjfBeWhbtEfqF22R/ocXDir1kHGA8+ThGNokv0vH0M6o/+QHDl4jkC7KC2eQpz9yrey5EL3/9re/VX49AKJsichiA3/uM5s31cYYyp68ueOOO2I9SvWJ90BdwYlqBurae++915FvpGP99dePfRJ9TH7MSuB00y5xtlJ/S1+Y6j2wTQXHp/ujT2RM5T4a7W9baUdpXKXvYzxIx/CXMZL6TTpwaHmwBP0oL/7nd3zO99Bqf9Zq3c9CNBuRNIyLeYFp5plnjuMWdQ+hKWsjkF7qNXUv2XDpPvJ5Qtq4L9LFvdCWSF8e7ofviVqhz0v2BuehLCmH22+/vaO803kRIZKInoXj6M+5B8oROye1dcqZ+6LN8Ls87Wq31C1+y7V4smxqu6SBckPkKRI8OpP2RL1+t7Pl1Wq7bva4zoxzWTiulXrUCOQT+YjQRzmRNsZLhEXGEsbWc845J16Lez788MPj9Yr64Wb6AyIf+R+xCfjLe158J83TJ8QnKlEt6n3fndAxp06TRkcngENH58YAi6LPZ4ATn0SaZ599NjprqPD8ng6dBgUTTTRRNHzysNSDhkvnnSV1FCjYNPQ0mHNdZg0a3aiW9NHBkp5GnvaGw8mgiHOO85rurRnolDDoUOxxBHkxE4vzDgw6OMlFMGOGw5QMQmBWks4XB5hODaMTJ5MwXkJnuQ6OIlB2jRgmDHjkMfmLAEF+Ur5cl9BPZiC4DyI76FwZoOhomQ1moKBM1l133RjiTzpwnhhkeI8RyWdZoYJZIT5LdalVEHkYTLlvroXDlq5DvpLHzIxiuP7rX//qcKq4F4y5RLP3n6dd6ciShLtUtpyXdDFQAVFHGG3AQIsBSZ3AkOAapJ17YGBK18Po4ylAeTju7rvvjr/NGi3tane0G5ZR0I5oT9mQ/2rQPqkbyXBpFvKWmVqiDikX8p7ZJ8LAyVtmPDGOioyton6ojHbXSn+JsYO4Ahgg22yzTTRus+mgXDgH5ZQVfxCh+B0v2mUzfTv5h2CBIZftj2rB9TA+85CXhKBTp7IvnJEEhjzLTZkJxhDNhqwTik66OD9CEgZcFsqe+syy1SyUKUtoKUMcrHxbxiCmb2KCoGipY1kgPJG31DuWTJLOLOQFQjZ5QORgAhEXIYXywvHIR1dXux/6Ds5H/iEwZuF3lH2z0JYY1zCyad8s4+lM356HNstyiawoRz0gT5LTTP+cB8E+74yRZ8yCU/cRkxL0o7RH2gxif3YZCtfBgafuFDk/lF2+niIAU6+hUduBes1Yml9ewrkoK8aTbL1NIk1+aQ5ppxyqjTHcB30O5ZQmA/iLoE5fgLPMBEgzME5SP7P5Rh3AHiBPqRuIDXmop9g5+Xum3nO/Dz/8cLS/spMWlCdRBox3jFNF583TbDtK4yp9EGNxNhIRWI5GtEsjdKY/a7Xu5+EY7DUiMRKMf7QBypxIDcaE7PURqigD6hLfp/sgrYw3+TwhTUyGIKJT7+jr8xCBSn0mqjpbpoyZXJ9xj7E1+x3nZXzgvHnScfn6DJQRkWJEpxTlUbvabaqrHJe3iyg3xk/sqDydSTvU63fbUV6ttutmj2u2fVaj1XrUCNQXfISUx5ybCWX+0o9RjvRlCfKbyQ/6YYTORGf6A2kPfUJ8+t///lf5r5h633cnGDwpbJjOgpkgFNoiGKhQm2k0OFHZRs//SbXNG30JZmbopPOk/KFx44gyi9vKkh+EJxw3OnI6oOT01HoRYsl9sw8QzmGRs1oLHNVsxwLkBUY+HRkgChRB+G3e0cNwSA4jzm5+MOHc9957b4f4kcSiapAXhOICBkje6cLgJtoBEA8I1WdGFIcYGEQY1LJl3VW8+OKL0fhOsG8EAx6Qt9xLNl1EMWGsAcY3tHL/edqRjjz8hgisLIg/nBtoC9RLyNYJZr6yxgcw+NEmEVwYzPIwAD744IOVd3/QjnZH3UsRQ6SX9lTUzvIv2idlQ54ze0z7bQbqP+0gXy9pi7RJwMEqGtiL+qF2tztotr8kP+iHAOOJ/SDyZd0MzfTtrUB9w1jMgxHO/aUX9Q+nKAvREJQPdbBoTKBvRFihfuSda85ZVJ+BqC2uh8NKFEkeBMussVw2RJ4hKHL/CE+IHlnoa4m+5Z7yfROQVgTpvCiRKLofnBQEc45hvx+c7M5AHaaNUw7UWdp4Z+plEZQ1hn0erkOb416K6lpahpYFJxrxib43O/YmRxunpUhg5Tz050SD5iNIGQeT+JwFcYT2TV/QjBNBOyQSCMcER4RxqNaMP/UIgR/h8LrrroviK4JmNRA0iNakXmWhH6JPoO0mkbtRyJ/sOJhg3OI76knRRCuRXvk95FK9p59DMC6CckzROPVEglbaEWM9fS/XKeqDmqEz/VmrdT8PtgP5ST6kqDYidHhPPWUfNMb6FBlFnWXcoc5jQ0C6D4QAokqKYHKD+yTvskJXAtsoXwZci3zHLqIO5esl0C7T2J3gGMqeNobdkD+O99SvaiJsO9otk8fkf626SltLtkGis2lvpN9tR3m12q6bOa6z41yi1XrUKIybiOFZyDvaKOVYZDsw1gB9aqIz/YG0hz4hPtXbnLXe990JjYnOiQEIY43OiXW5RBBg7GSd0fQ/AxgOY9aZ5JVC3DkPHWoeOpeizgInnEYKGEQsf2KJCFEUbNTXk8HRScuwshAqnwQIOqGi5VBFUQMTTzxxh2DBOYpgoEmzLPUGT4QXrg8MoER0ZMsMZz11fpQZHSjvGQQAwSZFxHQ1GA5ZyE+M6vR/Pn8wDtL3OBDQyv3naUc68mCgFbWF7LWSaJatE7SxbPp50RZpk1CUfgbitKQvS29ud9R/2kEe6it9GVDuRWJaUT/U7nYHzfaX2bpKmSFQdoZm+vZmIB8wtDEui+o34x3h9cx68jrvvPMGmRXmPqmrGOe0wXzeEPVQzTmm7Ir6XOA6CD30X8woZ8F4xOnoKjAsEZ7Ie4Snomhc0khaiRagTPL5wIsZ1CKq3Q/5w/UoJyYRiLyiTCj7Vsqc5V44qQg9RF3mHaB2QB2l7eZJ5UkbYtY8T75vTiSxM+3DB6k+sfSrKJ+JnMz+PgvjPKJentTP0xboE+qByE7EJZGyzOAjNlP+lFUSirPQPojKIfKWCF72IKLOMGFS1P8lGJeKzkfdIM30N0X5WQtE+2qk/C5qs4g7eVK9J1/TGFRE6nNxnGs5pa20Ixxj2iYCQNFY3Ayd6c9arft56NcpI9KSxibqC8cyFiBUY5vQlqmr/fv3j+IsdSlF6qf74LOicoPU/5J35Hce6h0iZxbSwzUZN4pskWrQX5F+8oAo53y+8qq1ZK0d7ZY84jf16mqezqa9kX63HeXVartu5rjOjHNZWq1HjcJ5q+UjpHqThb42T2f6A2kPfUJ8wqFNnXcePuf7ngxGMYYXii8dLDBzjLHDd81GJTQL4gadM44vxmQacNn4liUFLAGqB+dIy6lYc8zaWozMei86QpxRZthYv9tZI6QIOrRahqJIEdUcq3bRjnZHeyH0GWOTdkR7Kmpn+Rftk3bKMfSPZQicGPWtzoANLpTRt2OcYYRjXOHcdAacLmZ1q72YISxyouuBkVhkFBYZj2WBo8cLB4c6jyFaDeoqzkVRHqRX0RhS7X54Og97qrEEgplZhDCibRACWQ7aDDg2XIflPywn6O3gNBXlb3oh+pZhByCesN8Hf5mdZ98nltuy5wuRp1w7D9GKzKLT3ugn+S1OKWVZLfqvOylqc0WfJfgO+6geCDHVJgWytNKOGrl+o5TVnzUCdZZ6xRieIlzon/mcyCpsXMZ5xBSEpxSdgYCdj+hoNE+KfkdfUav9pHGoGSh/2mVRnqZX2RMLiP30583Satqb6Xc7U16NUKsN1yJ/XKvjXBGt1KOupjv7g75OnxCfAEeNdflJGecv7xtx4NpFtmPEMciD8lwNQiHZMBgjiP1n0kwM61gJ3Qc6Q6ATZq+cvEOZfRFS3gx0OBhjzASg8qcNflG52YSuXpQBoDAzS4iRz14y9eCcLNXjXlvdw6JatAyDf8pvNtuspaZnyc4mVAu15vN0TSJoikJfE8x4JEOAPObpGkXlxYsoBSIlMFAYMIGZ4HobAPZkWrn/rqBaW+QpG4DRkQalbJ1g34yitKcXzk0ztKPdcQ72XaEd0Z4aOYb2STtl34NmH3cMzOLh1OfhnMyyAf1htQiZPO1ud9Bsf4lQhnEGzPRXW67bLI307c2CmIUhy8ws520WjqWO41CmjTWLXtkNfRM4V9UiVLgnvqfN15qZ7Qooy3POOSfmN22CTW/zAhT5QP3gxdhVlAfplV+yVw/ygIdDIDax4SkOELOt5GkjbTSB04rQQZ/Fk3vYs6g3kuwjIgmK8je9aCtF0RKdhWVeRDfSd1DWiP5ZUr+VYBku9YU6wjJg7MmsU9/VM+fV2hxjBX0V40ajkSGp3hMJUbQ8NkH0CP08jmb23vO00o5SfagVUdUonenP2gltlfui3rAsk6VOlAkPgcEGxcZFcEJ4oq+kzLJ1Pd0Hgke1fEnlze+yPkctkj1JWaYtHfIwtmJPZ6HMOZZ0Er1ZlKfpVdbGzAgo3CvtM0Wj5+G+sEmydDbtjfS77SivVtt1M8e10j6LaLUedTU9pT/oy/QZ8QmYmcLQw5ngb1dHPOFo0eCBcG46gQTOZa1BPoEjSeNnvxE6CmBJChCeTIPCuOces+dvJ+yBcMwxx3Q4js2si01GGo2/HqSffVEw0FsRnoC05ZcoMfDzGZ0g5YFD3ygYxskBxUBg+UoW0szMJwMS566Xbma0Uj6yRKZoQ+o87B2QHFSMv1acy55CK/ffFdAW82VLPifnFCMh7f9Eu0v1maikvAPbLjrT7qiHRA5SfxvpF+hb2Pcpv7dSoyDO5B9qwHXZGyUZRSxrbdSJbHe7g2b7S6LH6H8BQ5cxpJG8bJRafXuzXHLJJXHWDkcGA6rZCCryj/ymf2H5UTOQN2zEmoe8Ip/Jb0LyiaxrBOoIjgIGLenJQ32gLbQCbZhlrExAsLkxUWjZazA20NeS9nobrXYG9jhifyH6FUSLRts1UN9ZJkb9RCzgYRM8CShLmXnYLmjjOC/0vd0xoZKWs1Pv0/iaoN9CKMiSluHi/OajfhgD0kRFV4F4VjT20E+xhA2BqFFbh71ziMijryYKpwicaURS6h9LxmrRSjviGPpByqXZPihPZ/qzdkKEE5OHtHGi5Kg/2bzjnhmT2GyesmTCA5Ejwf/0VdxH/uldCXwJ9hDkd9lja0FfTHnTN1d7EAg2c76PoF9h3OK4zkbZtgo+AoIxNke1hwdhi/B9ls6mvZF+tx3l1Wq7bua4VtpnEa3Wo66mp/QHfZk+JT51NzTwFIrIjDRqOh0BT0jiMer5mTWgYbA/BN+n2VAcCRo2hiSkkFBmT5IRxPpcZtFRbzmOPY3oHJnpZT1rMxAVwJ4GqfOkQyPMND2Ni06rmf1PSAOPi68HkQs8TaozyjN5xPIG8ponSZAfRDEkw5BlRc1EdrAfRHJseaIDGw6ylCmdmzxPa6MZ2HgyQy1wCNjMFCMrpZXliZyPmQPyfLfddovXpZ4Agg2bK2P0IqDxBCzylOtzHL9j+Ub6PWRnVBBIEFKY6e/uWfJW7r8roGx33HHH2O5IC3+JBsJYBAwXnoADbCSZIucQC2hfpJU2R9ujXHjyV7NPsWp3u8NIYplIvYggYP+ZZiM5sjDLSLq5b/o46tvRRx/dYdhgVDez11672x00219SV3kSD0YL94eQwveUdUoHwjp7+CRodzgTwOwnj/fdYIMNYv/XTN9OHnJtnuyCI1wP0oqoQl5gYNHnkS7+z8J1cXRSxFiCCEPqFnWNpZ95AR9xgEmB7L0mSDv5kRXFMULpbxA5yBP2P2kU7oX2RZ7jCGef0MP/9BnN7o+TBYGV5W9sMEre86TDZDRzXaLIcDQoLx7xnIXf7bzzzrHuNApljMiVdwzoW7hHbIRmQ/3JI8RlnBfOQ0R3Nv/LzsN2QGQ00XC0Ex6ukBegqINEYpY1DlDfadsIA1knlnSQn/Q7WRBQcRhxarPtgzZG+VaLwigLrpd/KAVly16BiEjYn41GDlNfKA8mVeacc84YdZt1JLkG4yN2FDYUfWktWmlH2GUIkvRBjL3ZOgucIxvBT19HeVCP822rM/1ZO8Fu4J4oDyLnyN+s+MQYjThF+olOoT1gHyWYgOIcOPeMN9k2DuQRT1+kD+B3/L5RKB/sMMYExtdseSOqsBS8KGIFW5R2w3iIrZY9DtLTIIv2VW0H3CebtVO3mLwkej4LPgQTU0V0Nu31+t12lFer7bqZ49o5zrVaj7qSVvuDtI8VedqOiMy+zKDrIqQ0qPA0bGZYMfYxQtOMNM4YM9XpaUoJfkcnstZaa8VXHgZcZsoBp5JlP/yOBs/SsrS2PAsbqjUDohhpTk5wFgbP1MH2RHDQSSMhzvmnzzDoICA04ownGGxwoumUMLwwSOlMeWXBgMB5b+TczHgzS8HsDIYTzmXewaQzz3bYRO1RLziGOsLxvBL8Pmu08EQRDGpmdgnnZqDlNwys3U0r9182DEzMdBe1OUKVeTxugoEbEQFhAccF0axoOW8STxqlN7c7BAaEHZz5vOGGaIpjk1/WUosy2l0r/SXtBYGRJY8YlERp5MuavQIS7ClIPlAnuAaGJnDOZvp2xDFmCzEOacdFTwPLg2iPkMujoEkzAgPL+Kg7nIf2RH+AIMF7xJcE+Y14xcwukQdHHnlkjLhDFCHvcYw4vuihDCxnxAnEASfqirGNmV3qM0IcwlP2seWNQF2nLbC0kiXYabkAM7jkE/180WatjYKIiANAOeCIsEyV9JMP9LWUM5+zbBUnAoeb8scIRXxgL5dGIf/YzB5HJJ+nwDLMViZc6F/IGxxy7AiWp0GKXiw7DzsLkyqMBaQbxxxHh1l0yoC8IY+oP2XtpcR4ichLOeOgIaAiBCKGYSvk7TNm+WnHTP5g19Eu6X/IT9o2fXNeQCsTrkfaEeopW9o2aSctvGfyg7xsFPKf/okoU/IF+4nzIC5zXsZq6i7nbaS/bbYdMa7y2HSWpNJ/MRHD9Wgz9CfUh+x1+R/nkHNxbmwI7p0JEOp+q/1ZuyHaEkGPdNJms0I890Cdp7+nrhdFlJH2/fffP9ZF8oa8ZIzJ3gdjEL9rBtoekwPUY8ZVIrMoH/ptzkuEEZGJ+UlyxkTGZNoBfRrtJvUt2FCMe5wnLckqA9LO2E2eMLmz4oorxnGIekK/ztMCi6JJ25H2ev1uZ8ur1Xbd7HHtGudarUddCffdSn/Ak7WJVEN4YiKEiDsi6BHipTmMfOpCqPB0UoQ0p0gUHDEGWRwrjL88NFQ6Tox5HATgGH7LbBMiQtZQxfHiMwwjnIn8MRhudA7NgFFIR845gHOSfjo39qPBQOip4GjRqXIP/A8IGXSiOBhFTziqB7NTzKbguDKIpHzJlguKf6OPB6ZeEP2AkURHRvoSGL0MFDy+ORvNkY459thj4+CXjklOJEZL1jBjkGUwpHPlN+l3RXWuq2nl/suGwZLBCWOWck35RdslKijvHFLWlDkzaSmPgWNxvhH/mhX6enO7I60IdPm+jsGccmYT9GZpd7uDVvpL8h5Dk3JIkazA//TVpDNBGVKP6ONTeumHMHSa6dtxWKhXvJjlbRREvrXXXjvWPdoWRh+znhjVGJWcj5lKIkMRirJwbdJAGXJvGPIY0AisOEic86ijjqr8+g+4Bv0q+YBgNuWUU0ZRg7bUatkTJccMM/02RiHGH4Y0/RwzlKlv7wy0J0Qx+h8McJxd8on+CSEKgZly4164JwRF8oWyamY/E8qd/oB2kc1TotzIn3322afyy+ZJjhD5hHFPFECabe+KPOwsjFH0r7QbyoE8Jn/Ic+ov6WwmyqwZKGfyh/pOXuBwcX3abtozLw/iLtGI9PHUdZw3BCjqEmXRlXA9+jP6ExxqhCPqZ7UxqxFoq8nGQHQiIofJK+ouYx2RtMnJrkcr7Yg0k3a+475oJ9QHHGH6xGuvvbbyywHQ7/A59Zt0IpClet1qf9ZuWHpHfaHPpy2SL1kYExCeyOMi8YmyIN8ZB8lHoje4DxxmRGTyl+jAZusf6UAc4XjsDvoPypu8pu8gb6qJMPRZ9F2M7ynyjDrIPSLQMl4yxpZFypNsWyQN9CH06Tw5OI2xedqRdq5frd/tbHnxeSvtutnj2jXOdaYedSWt9AcIefghqY6RN/go0jxD/H+lLG6RIr0UZi/o/HAc6NxZRtHIzFzZYJDi1AADEYOayOACEU44KzhtGCA470Xh4F0NS9x4pD5gTDa76buISE8l2RU9xaYgSoolOjhoPcX2kr5N8gkQ9XhSMJFwPZ1W23VP6w9EijDySaSLIOwVmI1hZqEnwBpw9s5BNKj1IqzUNc7SGyHSJ9HdT1gTERmcYdkhUVJEHDH5J9LdsCQP+5tlUkSeikj3ovgk0gWwt1d6chVGWdpIuLuZdtpp43p3ZoZqvRZeeOEY0SLSm0AwnWaaaeL/iL6EU4uISDnQ57Kkl6XRLFkU6U5YAUFUNnsdsbSO5fIi0r0oPomUxAYbbBBDfFdbbbW41Ie1xIBB1szTnsqE/Wj69+8fw3Rrvdhg2fB56Q2w+S9r9Wl3PGEtib7MwrO+X0RE2g+TbDzRFKFfe0G6CvZMYgPo/INq2GsIG5yni7P3UU+xu0X6OopPIiXB5oU84pX9Dwj75alS7IPAWuz8JpMi0h6Y4cQBot2lGU+iDdnsko2MRUSkPbB5MX0rG4+zATtPU+Qpn80+2EakVdhgnicms88kG2OzyThP0z3vvPPiY/R5kMcNN9zQ8Ob4IlIuik8iJcHTcXiCFjD48RQTnhbhAChSHjzBLT1NiHbHEtdjjjkmbsQpIiLtAxuHx9mz3I7+9pZbbon7RDrBJl0FdY4XT5qkLvKUNp7uxlPV0tOBEUZFpGfg0+5ERERERERERKQ0jHwSEREREREREZHSUHwSEREREREREZHSUHwSEREREREREZHSUHwSEREREREREZHSUHwSEREREREREZHSUHwSEREREREREZHSUHwSEREREREREZHSUHwSEREREREREZHSUHwSEREREREREZHSUHwSEREREREREZHSUHwSEREREREREZHSUHwSEREREREREZHSUHwSEREREREREZHSUHwSEREREREREZHSUHwSEREREREREZHSUHwSEREREREREZHSUHwSEREREREREZHSUHySPs0UU0wRjjrqqHDPPfeERx55JFx99dVhlllmqXzbeZZaaqlw1113heuuuy7MPvvslU97PxdffHG4//77w2abbVb5RERERERERKQYxScZrEHwueqqq8KDDz4Y9txzz8qnAxhxxBHDTjvtFPr37x/fv/nmm+Hbb78NE000UTjvvPPCQw89FI4++uj4nYiIiIiIiIi0huKT9FmWWWaZMOOMM4avv/46HHrooWGVVVYJa6yxRnjmmWcqvxARERERERGRzqL4JIM1jz76aFh++eXD3HPPHQ444IDKpwP405/+FIYffvjwySefhGuvvbbyaQhvv/12WHvttcNcc80Vtttuu8qnIiIiIiIiItIKik/SZxlyyCHDEEMMUXknIiIiIiIiImWg+CQiIiIiIiIiIqUxRL9+/X6v/C9dxDzzzBM22WSTMM0004Rhhx02/Prrr+HDDz8MV1xxRTj77LMrv/oDNsbmqWKLL754GHPMMWO0zvfffx+eeOKJcNpppw20RxFPV9t1113DN998Ew466KB4zLzzzhtGGWWU8Ntvv8XrXHLJJeH888+vHFGfcccdN2y99dZxY+5RRx01Xv/nn38Or7/+enxSHEvb4IQTTghzzDFH3OD7tttuG+Qe33jjjXDRRRfF7/M0c48J9mtac8014zWz6WLj8DPPPDPccsst8Xc8mW2SSSaJeXvyySfHjcdZilcEaWN5XvZe8sv1Un6kfAX2jbrvvvvCcccdFz766KP4GWTLY++99+7IK+73sMMOi9fgu+OPPz5cfvnl8Tsgfauvvnr4//YZhhpqqLr5V0S+LrCn1ZxzzhmGHnroWNcOOeSQ+Dvuh7Kab775whhjjNFxvc8//zzce++94dRTTx3oniCfpyIiIiIiIiLVMPKpi9l0002j0//nP/85/PDDD+G1114Ln376aZhgggnCFltsMcgT2aaYYooohLAR9uijjx7ef//9KPogtCAGIYwUPcKf7zfccMOw2GKLRWEE4QJhZsIJJ4xpWHXVVSu/rA3XR2Bacsklw3DDDRfPw55IiBOIDwgXecYee+yw//77R+Hpgw8+iOn96aef4h5L//jHP8KWW25Z+eUAWrnH5ZZbLhx++OFhkUUWCSOPPHLHMb/88kuYfPLJ4zmrgZDyyiuvRCEOeMId73nlRZY8CE4nnXRSzA/2i3rnnXfia4QRRghLLLFEOOKII8Kkk05a+XUxCE8IUbPNNlsUhk455ZSBhKc99tgjikZTTjll+Oqrr2K6KEPe77LLLlEoahZEOvJymGGGifmKAAXpflZYYYUoPFEXuR5/eY8IduSRR9bMTxEREREREZFaKD51IQhBiD6IODfddFNYdtllY3TL0ksvHc4999wo6Pztb3+Lv0sQYTP99NOHjz/+OAoSiASrrbZaFHBeffXVKFohLOQZa6yxogiDcJQ95t13343iBxFGjYDIg/CAULPDDjvE86y00krx+HPOOadQrEFUee+998Lmm28ef8sx66+/fnjyySej+IFIQ9RSotl7RIhCQEOoev7556MYk45ZeeWVY8QTwl41EHs434MPPhjfc2+858V31UjRWYhupCvdH6/dd989ph+BjTKtBQLcAgssECO7zjrrrBjNlFhvvfWisPX777/HOkFdIF2IQNQZRCPqSzb/6jHSSCOFaaedNuYLxxJthaCXvR/qBXnP91yPv0RmffHFF2GqqaaKZSQiIiIiIiLSCopPXQiCzWijjRaeffbZcPDBB4fvvvuu8k0Ip59+eowqYhnXLLPMEj8jqmemmWaKQgpCxF133RU/B5ahIUYQzUREDOJNFpbYXXPNNQMJGxzDORC5xh9//I7r1IKoIpZhsQQrLRkD0k6as58liNY59thjB1oqR1QSQgvnGWeccaL4Aq3c44orrhgjrhBM9t1334GugxhGVFHR8sXOgrCFEMc9IFJlr0u677nnnhhVVEsYQnhadNFFw48//hguvPDCKOBlIT9Ypsj5yMME+c1ySe6PyLJZZ5218k19EJmeeuqpGFGVFQvT/VBeRD9l8x6Ixrr66qtjfZlhhhlilJSIiIiIiIhIsyg+dREsxcLRR0h55JFHBhKegPdvvfVWfAIbEUvA0jzEn//9739RBMjDkj2WjBEBlI5J8DkiV560BI7oK0SMerCkDKEE8Yd9gxpZfsU1ikQp9kTiO6J3iGaCZu8RIYXoIiKDHn744Xi+roJlhOQbUU933HFH5dM/IC3kFXtWFS2FXHDBBWMEE2lHeMpHWf31r38N4403XqwLDzzwQOXTP0DsIrqKNNRb2pcFYS9FeWVJ98MeWYh8RXDcZ599FkXRvMApIiIiIiIi0giKT10EkTpEtLDsbOONN44CVP6VXW4HKeoIwYeolPzv2V+IfXmKQARhyVQe9kRC/CAdpKcel156aYzoQRQjYue8886LUUVsZl2NtJdSEVwbUrqbvUcEEI7h/rpSeIKUDpat5dPJi/2Y2PupCMQzhCcioxCeiDTKg8CDGMQyub322qvwGkSJNQviHcJmnnQ/7MtVDURE9qWi/EmXiIiIiIiISLMoPnUxiD9EmqQNroteLCfLgohU9Lv0Ijroyy+/rPy6vRCFw35G7PdEpBFLsBCAEEfYT4pIpFbgPFlaucda+zqVCeJaURrTi/LNR7axvxMvor4Qr2pFkCVhrejc6VVvY/QsLMHM53cWIuHqwTlIl4iIiIiIiEizKD51EYgRKero5ptv7tjguujF8jZAFMDp/+STTwp/l1481Y4lbWXCMrCtttoqbq595ZVXRjFj7rnnjptu56kW/YNQxUbo5AHL7KDZe0z5SNRWI0sA2wniEbA3V1Ea04t8YiP0LAg37O+EyIZ4h6CXTz95wbJMXmeccUbhudOr1sbojZLup9YSPpYPEmlGGRFBJSIiIiIiItIsik9dBGIE0Sosd2Pz5kZIewixZK/Rp9OVDfeAOPb000/H5XLsv5RnuummKxSGeHIeez0RsfTyyy/Hz5q9R/KRJ+lxbYSRViOvWgHRCeFrsskma+ppc4kXXnghnHzyyXEZ28wzzxyX6XHfCfIEcYp7amZD8VZhDykEL/bSqpb3PLmQ5Xns+/TEE09UPhURERERERFpHMWnLuTee++NQgvLrnbbbbdBhBMes89+Smmz6uuvvz4u4Rp11FHjPlHzzDNP/DyBAHL88cfHJ6iVBY/Y56loWUg3exMRwcST3/JMOOGEYdtttx1IWOHpduuss06MikJk4d6glXu88cYb4xPaEL4QwrLX4f/99tsvbLDBBpVP2gd7UrHkjicFcn95AYq08wTATTbZpPLJoPAEOZ76RxQRwg5P5kv14O23345LG8lXxKCNNtoofp7gdzvvvHM49dRTK590jttvv70j74lgS08gTBDlxov9nthvKvt0vyIQF2+55ZZYPmyuLiIiIiIiIgKKT10IwtKtt94ao3Zw6nHSL7744vi6884743ItnkBHdA2wxIxIGaKNiE458sgjw3XXXRcuuOCC+BcRAiGLfYTKgiViCD+kL6WVdCO88OS1JCJlITqJdF122WXx9//973/DoYceGoUhltudeeaZHXsitXKPPBWPjdDJJx7/z/l5cS3EnUUWWaShzdSbBfHl3HPPjZFLs8wyS0wb1yWtPC2OtBP1VQ+W35F+ltdxb4cddliHAHXccceFxx57LG7uvdlmm4XbbrstXHTRRfG+uMZqq60Wl8G1A8SuE044IZbJxBNPHMso5T1LQ3fddde4UTrC0+GHH145qjpshs7vedrfXHPNVflURERERERE+jqKT13MPvvsE0488cS4dCztW9SvX78Y7YKTf8ABB4Qnn3yy8usQ9zkiSur++++Py9XGGWecMNVUU8WlUDylDEGLjb/LgqVW77///kBpZakWUVykq2ivKZbSsScRIg2/JxKKtHMPe+yxxyDHtHKPPC2OqCeELvafmmiiieK1iCwjQolzlQEiEPeAEIV4xHVJK2IRT5QjSquRyCREH0SlJEAh/CBAIcaxHI8n4n366afxvFNOOWW8DnmDeJn2BGsH5D33w3kpr5T3CFyIU9zPNtts0yEW1oJlhWwKz+vxxx+vfCoiIiIiIiJ9nSH+32Ef8Ox7kU6CoIKQctVVV0URTURERERERETEyCcRERERERERESkNxScRERERERERESkNxScRERERERERESkNxScRERERERERESkNxScRERERERERESkNn3YnIiIiIiIiIiKlYeSTiIiIiIiIiIiUhuKTiIiIiIiIiIiUhuKTiIiIiIiIiIiUhuKTiIiIiIiIiIiUhuKTiIiIiIiIiIiUhuKTiIiIiIiIiIiUhuKTiIiIiIiIiIiUhuKTiIiIiIiIiIiUhuKTiIiIiIiIiIiUhuKTiIiIiIiIiIiUhuKTiIiIiIiIiIiUhuKTiIiIiIiIiIiUhuKTiIiIiIiIiIiUhuKTiIiIiIiIiIiUhuKTiIiIiIiIiIiUhuKTiIiIiIiIiIiUhuKTiIiIiIiIiIiUhuKTiIiIiIiIiIiUhuKTiIiIiIiIiIiUhuKTiIiIiIiIiIiUhuKTiIiIiIiIiIiUhuKTiIiIiIiIiIiUhuKTiIiIiIiIiIiUhuKTiIiIiIiIiIiUhuKTiIiIiIiIiIiUhuKTiIiIiIiIiIiUhuKTiIiIiIiIiIiUhuKTiIiIiIiIiIiUhuKTiIiIiIiIiIiUhuJTH2fSSScN5513Xnj44YfDddddF+add97KN9LbWGqppcJdd90VHnnkkViWs88+e+Ubka7hhBNOiPVvzz33rHwiPZHUV/Di/77MxRdfHO6///6w2WabVT7p2aSyK7uP78x1elueioiISNeg+NTH+fOf/xwmmWSSMMQQQ4QxxhgjvhfpLDgrOC0IEdVeCmS1IW+uuuqq8OCDDyrmiIiIiIhIr0bxqY/z7LPPhldffTX89ttv4aOPPorvu5IVVlghHH/88eHGG28Mm2yySeXT3s3geE+t8vvvv4cffvghfPfdd4O8vv/++/DLL79Ufik9iR122CFcffXVYY899qh8ItIz2GCDDWJkzdFHH135RERERER6A4pPfZy33347bLTRRmGuueaKosl9991X+aZrWGONNcKcc84ZRh111DDkkINHdRwc76lVEJdY1rnAAgsM8lp55ZXDk08+Wfml5Hn00UfD8ssvH+aee+5wwAEHVD7tGrjmBBNMECMiRXoSc8wxR5hiiinCMMMMU/lERERERHoDik8iIiIiIiIiIlIafUp82nrrreNSEvab4S/vRURERERERESkPIbo16/f75X/B2tOOeWUMOuss1be/cETTzwRNt1008q7cmHTYJbRAALYiSeeGDbffPMwyyyzhGGHHTb8+uuv4d133w3nnntu3Gg4wcbD++67bxh33HHjXjnHHHNM+Nvf/hZmm222MPTQQ4crrrgiHHLIIfG3/IZ9hlhGx/9DDTVU3Hfnq6++Cs8880w444wz4t9E/tyHHnpouP766yvfDoA0r7766mGyySaLSx1I5+effx5uvvnmcPLJJ8fj8qy11lphueWWCxNNNFEYbrjh4mfs/fPcc8+Fgw46KBx22GFx6UQR2XSk+5lvvvnihujcD9f/+uuvw5133hkOPPDAylHdD/uQNHJPM844Y8xP8n600UbrKCN+wzI0yvf111+vHDmAlJ9sDk8ZpL2UXn755XDEEUeE559/Pj6daNdddw0jjjhi3L9r7733jku3YL311ov5SFn89NNP4fzzz49PJoNGzr3SSiuFLbbYIn5H2VH2tUj1ijI7++yzYz1phHnmmSemc5pppuloEx9++GGs45wnC+lnCQ5thTpNnv5/fxbzk/2kHn/88cK8rAZPZiKf3nnnnbDNNttEcZqnP44yyijx+88++yzcdNNNg9T5lO/ffPNNrNurrLJKXHZZrW3m6zJt6d577w2nnnpqLLcs1CnKpSgPm8mrBMesvfbaYYYZZoj1hGV1qayPOuqo2EdVq8Pkc73lf9kyyf6W+rPVVluFkUceOfZ9u+yyS8xDrrXmmmvGfM7mSXeU+b///e+YxpSf9Jk33HBDvCbpJs30qyOMMEJM42uvvRbHFZ4Iloe85dyLL754GHPMMWM+kz7Gm9NOO22gPjjRat1/4YUX4tLpscceO3zwwQdhr7326ljOyr2tuOKKYfzxx495RNt/6aWXwq233trxJLKiPr+MtLRSX7Ok6xRBndpyyy3j/83WqWptjPPRN3I8+/fts88+lW8GtOV8/8CYxLL14447bqB2nK1jtImNN9442iKpHr3xxhvhnHPOiXWtEbL9Deejjv31r3/tSMcnn3wS76koT5upl/nrsBQ3HQfV7heyeUo9yLbTVAfp7x544IHKEX/QTN7m+17Sl45jH0vK/JJLLonjnYiIiHQ/Q/2/cfaHRTWYgiGzxBJLVN4NDPua4JA//PDDlU/KY/755w/TTjtt/B9Hlj2Wpp566miQAfsDjT766NHBwThPwsGEE04YFlxwwTDSSCPFPXQQgRAwOA7j8ZVXXgl33313NLowwDge4yvtN8Rvhh9++DDppJNG0erbb7+NTgJkz/3zzz9HA4/zJdhwmA1exxlnnIHSiRHLk/Gmm2666HxxLPA5ggXOJkYqDniC/3nhKCTHoIiUDoQZHCPuh/Om++Ev94NByhPTGoVr/uMf/wgff/xxeP/99yufFoMjOuWUU3aUQSMgOtS7J/KWjXJxonA+smVEmVNGiJE4A4gSQH6yP9JYY43VUQb8HqGI4zkv9zPVVFNFYYPPKWPEOT7nvhE5yU+cHYQjBCRo9NyU58wzzxzbyhdffBHFklqkesU9PvXUU+Gxxx6rfFMdROAdd9wxCpYIEwixpHe88caLYhYONPU8sfTSS8fffvrpp1Egpc6/9957sY1wrzg/5Mltt93WUT9rwTXIe/JukUUWiWVEHfvf//4X84Kypd0h3JC36Zwp33GquCZOWq22SR6SZvIVB4l2QjviejjqqdyBOsW95POw2byCdMzkk08e33P9L7/8MuYb/Q6OJ/dI/tG+qI84b9w//RXCcb1yTGWCc5muv+SSS8b6xzU4HieeOgSIxwsttFDME5xUrkcfgXiBg04+IiglyirzH3/8MZY5ji/5QnmzZxvlQp4g2JEe+g7SjhjFb2kTCHcck0D8oP9I90X+IQhwPhxwypmHPGSPabXuk2fLLrvsQEICv+PciM/sP8d1cc45J+Ix4wfjDmnjfb7PLyMtrdTXPOQ1dYM6Qf2kHBB0qJvk5z333BN/12ydKmpj6667bhSeaAO33HJLHIdSfUptmckf7pP7Q6iknpCv3A/jBm0LUh2jX+nfv3/sP0gT31OPGFvpVzjPm2++GY+pRepvSA/X45zkAXWMcZJ74Xr5+2y2Xmav86c//SkeRx+Xyo7rcH2E9ux4BSlPaVf8TzvlOPpT7pnxgXNTL5MtAs3mbTaN/I/AmfICm4bjZppppljn6L9ERESke+kTy+4WW2yxyn/F1Pu+DBChMMKuvfba6CQwg56MPgxDxDIM0jwY3TgPOL+rrbZaNBiZlcSwZNYe5wswBJntS+fGQcPRwCBcZ511Cs+dh1lqZhYRIjD0TzrppLhRNIY4ThjGIUYi50sQOYGDzXcYhBiKRH6QjssvvzwahUB0Ap/hPAC/5Xs+w3ngOGbsJ5544vg9Rjnn5n633377cMcdd0SDslGy+dPocRjNiC6N0sg9AY4tzgflw4w4eUreJocccWDRRReN/yMMYXDjSGCon3766dHZo+zZyDvlZzXSfeMoU/4Ifzgg0My5n3766Zg+DPuHHnqo8ml9qDvM9HPd/IvyTNAGV1111Vj3iS7CiWW2nPQQCYizg3Ba1FYRexA7SHc6htlujiHKYplllqn8sjFwjHCgEeg4F1EUXPeyyy6LZYpjR1rz4OzQrnFWOS61zRRtQN3DAWOmPp2Xv1yHvMV5QiivRyt5RWQb+cMxiA20Leo2L4QhyhQBB3GWdFE/4cEHH4zvedGPNAvOJPeE449zz71mIxdoi4ihpA8xnusgKtG+qTsI9kW0u8yZhKAMiNrhfKSBOkpb5VyIwkSnkEby7PDDD4+ONMIBTnkW7nf66aePfSRlzTGkk0ganHuuxX0mOlP3mQCg7VLPqG8cQz9Dv0IfwrHU24UXXrjjnJRBEnDylJGWzpwzC6IE+ZaEMv6musl3iVbrVILyXX/99aNwzsTKwQcf3DFmZNsyZUnbSe1o9913j2WOUMP95eEYxl9+l45hbGCspn0gfjYDEwaMFUQsZusYUX+IZvn7bLZeJhBwGEeIYqKM+A1lRyQa5c0kTVF/SB1LYhFjDdfinrfddtsY7YUgRT9EnkJn8rZaXtDfcl4iokRERKT76RPiE0ZVLep9XwY4eiy7Y2kSSx4IQUcUwMACxIL+/fvH/7Mg6jz77LPRaM0uLUEkYvYScO44L4ZYOjezzhhiwP0SjVALnC0MNoxYZrARJnhhhOPM4OgxC4oxz8wn8PskPPEdAgZLtRBgSAciFE4RxigOMJ/hzCcwwvkMx4F7wOjlXIDjiuMCHIuTvPPOO8f39cBwZvkHkRcsq2AZWT0Qg8jfZAA3QiP3BBdeeGE01ikf0kKekrcpmog8Jf8Bo5pZe+B40sVf0kYEVcrPIjjPTjvtFA32JDzhdCRHqplzs0caziyiKE5co3BdlnVxzfyLOpKg7uCYUbezzh6QN8lZQfjJg2ibFzWon0Q94GBz/83y3//+N9bbLLRPyos2gaiSByeHekq0YDYtOF7UQWbwyeP8Mi2uQ/7ihBMVUXTuLK3kFQ4/EQ4c889//nOg9BHxRHuijrYThOntttsuCjTkG2nN9llAG87nF/dDBAr1BhEQBzZPu8ucCI0rr7yyI32kgaVW/KUdkW842wnKDPELcQpnOYGAQKQFaUdYyZY1+UwfRv+Aw44QAJ2p+6SNdLHkLQvpQOyhzSexOZH6Y8agPGWkpTPnbIVW6xQwLiJA0pYRXhlHs+lNbZl+HTE2u0yNsib6ijGraHKHOpavEwjVlBFw3mbh+IsuuqjybkAdYykbfUn2PluplwnqOFFp2CtZEGPvv//+eL9cJ41ZCY7D5iC6NlsWlANtFbuCY7BdoDN5SwTpNddcM0hecBx5QWRdu+qXiIiItE6fEJ8IL69Fve/L4O23344OZxbEixSCjiGP05YHAxHjLWsQA7P9CAkYYRhpnCsLThVLC/keozAJVdVguQniBBAFkU8r6cSZhmTY4WziRADOZtZZawXyiPQCM/cISM0a6DgRCDAY1OTnfvvtF439ei/2rOCeEKw23HDDuoJAMyBssPwDEeDMM8+MSwcx7plNTiC8ARFfGOlAxBtGOcvZGoFZ5bR8gZlkojWy9aYz524UHFxESKK78q/kFOOAUK7UbfI+X7d5/9Zbb8V6m5aMZcF5zYsa1B2ECO491eNGwfmpFt3FMhbSSaRC3tnCscNhzUPbRAggv5OAmofjiCqj/eSdvyyt5BWOIdFciH0InPljyoC+iHZHGohQod3lyyjB/eywww7h+OOPj8II4iZiOZEn1Wh3mbOML7/0mnGBpVLkddYRTnAtIMIjQfQPEa0cm+8zgX2iOCf9CnnT2brPd3nRkAkA6idtG3GgCJYKZsVfKCMtnT1nq7RSpxBnU5QeaaV/zqc3tWX60yIRnjqJyFQkcNGvEEGaB4GG/GGsqtX28xB5VzTxQBooW/I01c1m62UW8qCoXwP6Sfo98o4xJAsTD7Qb2mUexE/sCoT8FN3cmbwl7YibeVJecF7KVURERLqXPiE+1ZvRb/eMfyMg3OQNW8BATeAw5sFIxVjPQ6QUMMuXPUcWPud7wICrBQYoBlv6nxlEDPL0YuPPrDGHs4kRieMHRWlsFmZHMUQxYjGcid644IILopiRZkt7GzgYRx55ZBSCEIdwCig7ojWKIhEQKxCmKDccCUQrlj0SlcFyOs5XBOXLsguOIZoOJyzvrLd67nbD/eOEILhWW6JXa0lOtfpOvYFaDmcRLCVJmyTnSWIo6U1tLoEDVFTvk5CYxIoicCK5Lg4jy/eq0UpecQzth/ThZHYF1D2ijxCJ/vWvfw1S9xI4+ERisJSHCEr2AMJZZOlqUXtItLvMuWaRk5xI5Z4l9aVZyGfaEuJHvs/kRRRIqg/Q2bpflGaEN9ouokAzEytlpKWz52yFVuoUZYb4T3qZ3MlGiGZJZceywqJ7YVP6anWP8iiKuk11izG0mT4XISYt1c7CPdIOOFcSYZutl1nIB8TZItK1sBXSxFOC76odxzm5b9JE2qAzeVsvL6h/1EMRERHpXvqE+IRQwoaYRfA53/dEqjlYfQUcVvadYq8JnCiMSIxVZkjZL4ilFfXAyGXpBA4FIgzRUxi39V7sGYEAwTHUj3wkWasQDcKmqNwHS4dYusAeVjhJzAYXQfqJHMFxQXxMkR0siyO6DIciD0IDM+PAkhc26y2ilXOXBY4C0UFEylR7paWjPQHSmwVnqkiQSOAA14Nz4EjVo5W8Im2NpKEdEMXFvRAVWW0vG9o2Dj/3wpIZ2hybB7NMi4jArkprGeAIF5VJeiECpk2TodW6X6u+tVreZaSl1XM2S6t1irRTZowxLD2rt/8SUTtF95Be3GuReNXdNFsvG6Ve31cN8ptjs/TWvBUREZH69AnxCXjaThIxgL+85/PuIEUI5UnL4TDImjECcfYAUaPaDCYiBN9Ddg+GIsgfDHhABCoSaNILY5/IjaxY1q4Qd4xMonbYPJZlFFwHI5eZTJaI1XMSgHtNmzqzoWkjSxvY6wnhhT1JGn0Edj2YiWbfDcqAJTFsOH7sscd2CFupbIpAmEIQ4qlbLCMhX6hDLI9kr4w8CBgcg7PFjC9RANxTEc2eu91wPeoajghRiKS12iu7sXBZkF/5JXUJIiOIUCBysVp0VJ60tLHaOYFlJEQA0O4RDqvRSl5RBxAWiajKL40pC/a+YqkOERE8cY2nh+WhLZDXtOn8sjz6j1rtoadCXlOGbNZfVCbpxVJe2n0ZdZ/+kTRQ3kT9FEEdzo9BZaSlq9t2Z+rUrbfeGkV4lp7RVxbti5jaMhF9RfeQXkSOFkU5dRfN1sssjLXVIo7Y74zvKef0kIIEUZzVjkv9HXUj7XPZW/NWREREGqfPiE9ABAsiBoIJf7sz4onZ1fz+OmxsnSJNMMSyjyCuBwYbxiUGH5E1+T0ROC9PiOJ7DD42y60F50th7GxQXvSEmTzMSqaZZZyARjfqbhSMYiKH0tPkEHPIx0bACWGpG/fVyNIGnHX2fUKMaReIXtlrswwjQfk0IopxH2zcfvvtt8f3lGe1vVLY+4sNaXFGEQHY5LxWmTRz7naCI4FAiBPDhtvdDZFf/Qs2+6eMWJoIWae2Hux7QrsgL4nAKIK9uRCNEZGrRWlCK3nFvj8sf8ERLLqvMkBsYPkTEYeIIDw9LN+HIORBUYQnTw3sjctkqBcIv9xbtbLOUkbdZ9yg72YpL31+EXyef9pdGWnp6rbdmTpFn49gxVJv9gdk/yf2psvC+MH4iYjbyBNjewrN1sssLKejf8rDWIYtRdkSxZsX4xH6WFZeNN4SjcbScKJzqSPQW/NWREREGqdPiU89CRxNHh9MJA77F7H0itnWtP8BBhnLBhqF6JwU1cVeUSyn4pycm6UI7OmQNvbEEC3adDQLDjOOI4IWTivp5Al7Cy20UJhooonieTHUr7jiig5jlj2a0p4yGKw86Yo9hBD6+D1L3tiLIyuMJbEKA5alZ/z2wAMPjBFN//nPfwJRTzzqHAMWw5kIihRVxWxrM3vYcD8peqoeLOlr5dHyUO2eiEJgXx/A8eNzNjIn/9gXp2gTeMqOPa7YLyUJk/weox4oH5YhVINNvblvxADKJLt5ejPnJq0IWewH1e5NyYGNsHGOcGZ22223QRwWIrOIVMyLqmVAfWe5TtbxpO6x5whtCMeeKIlGQcwjH9mUlzaed2gRBHkh9rG3SdHm1lmazSvaCemlXlIfqWvZY3D0aGtZpzTt1dKZSCmui+BLFBT9GlGmWfETUQK4fqp/sM0229R9HH5PhSjCVNa0KyYCsnCv9Gk8XTDR7rrP3ksIAbR52jpPHM1SK3/LaIftPidCB9Am89GEna1TjI1pkoLzU07Zh02wXxIRPiwn3XbbbQcRSShvomXpW3sSrdTLBFFyjN/ZtksZYr8wVjBRdtttt1W+GRgmVJgwypY5IjTjCeIUY1OKtOqqvKWe8UTGO++8M6y11lqVT0VERKQrUHzqJjAEESAwBBGKMIII9wdEJJZkNQMO68knn9xhfGM4c07OjdOHYMQyC6KG2Mun1ua6CYQiZtFxYnAeEYEQk3haG+dlWQJRImkpA84maUiRSTjxiFU4u/yeDcPzG52T7rRXBNFS/JZZUWaoMVhxlhG9MEx5KhyPwSYtHINT04wI0FVUuyfykcdgM7tLWbAP01FHHRUOOOCAMPXUUxc+rQdBAicK8Y9ILMQJfp8ikhDfLrvssvh/EUkAYDYfqBcsW+CczZyb+6B+Un48TatRcFxYzkf55V+IWRtssEH8Hc4nZUldwslB5CJNvHASSDOiI3lXNu+9916sf6mukwbyAacFAQfBtehpTNWgrdHmaNeIV5yXuszm+SxFYnNj8pb8p6zq0UpenXrqqfFalDmOH5vNE9XHizaLMJDaMSB+czx1lLSSDwgHzYIzz+P1qX+In6QtObGklcgH6uBZZ50V008aqS84/9nIwN5C6gPph2lHPFwglTV/KQfymnaRKKPu03eT5/TBtDHyNdU3xgXKpSh/y0hLu8/54osvRsED4QkxgjrM5Aq0o04hiBx99NGxDOkvieBLAhR9O3nLJAJPQ6U8aRvkLW2K8ma5ck+jlXqZIBqTPEV857cXXXRRnBhLYjXCE5/lIZKMCGuW5fN7fsPxTIoxhhMpfdppp1V+3XV5SxQXkW1EZGJfiIiISNeh+NRNsM8BxiCzuAgVCBPs9cISGaJu8vsuNALRTziIGPpEZyQBhL/s9YAhR+RFo+fGQdlyyy3DhRdeGB3ndD7SihHPk72IdsLgT3BursG1uGY2DRixPJo5hdkDSx8RIdJ+D5ybva54Pffcc/G6GLEJZtBJF3sl7bPPPpVPexa17gmxCSOcyBI+50VdIMqK+8rDZ4hAnIvfQrY8MeSLjsvC98xqJ2GSp5ARhYaR3+i5ESHTPTz++OPxs0ZAZENkRUjMvzD+s8tgKM8TTzyxQ/zBgSQajLQlYazRfZY6A3WMa/E4embhSQdOGc48e4eddNJJlV82Du2Cdk3bJN9xfqaaaqrohCFOUT5EZ+AkNkIreYUATLuhTBECcN4RpSlTHPRsROAZZ5wR00pe4ICT3lbFIK6XFaCIxEGEQDRAPKAP5B5IP+miH6NfSXWyt0FZ0w/Tl5NnqayJduWJh4gx9ANZ2l33yXOiPBF6EA4QN2n3RDMiyFx66aVV87eMdtjOcyIEX3nllR33RR2mnkK76hRlSNRoEqAQiJMAxTVoy4gljE1cn/KlP2NMpC0jnPQ0WqmXgChIn4coR36z1J17JY8pU/qVajDeU17kO2XONen/qJfUzzS+JLoib5nkYYxj3OOeREREpOsY4v+Ns95p4fdCeELb8ssvH//H4EbY6W6I5sB4xMDG8SUqgxB9kb4GEWAsASJyj2V33Q0CHQ4hDhh/EatFRERERER6I0Y+9XFYlsHeRID4lPZ6EZHuJW1QT+RB0QbKIiIiIiIivQXFpz4Oe7qwFAZ4fDzh7iLS/bBMhbbJ8hCWK4mIiIiIiPRWFJ/6IOyvseOOO8ZlRiwDZD8b9vph/4NG95wRkfIg4omnChKZyL5c7NciIiIiIiLSW1F86oPwxLI11lgjPmmPDUSBjT9rPTVNRMqFx5mz3xqbQfN0KJ7KxIbHzT75UkREREREpKeh+NQHYV+n9AQ5lvTcfvvtcTP0/JNnRKTroC0OOeSQ8VHoPN2JR8oTpWjUk4iIiIiI9HZ82p2IiIiIiIiIiJSGkU8iIiIiIiIiIlIaik8iIiIiIiIiIlIaik8iIiIiIiIiIlIaik8iIiIiIiIiIlIaik8iIiIiIiIiIlIaik8iIiIiIiIiIlIaik8iIiIiIiIiIlIaik8iIiIiIiIiIlIaik8iIiIiIiIiIlIaik8iIiIiIiIiIlIaik8iIiIiIiIiIlIaik8iIiIiIiIiIlIaik8iIiIiIiIiIlIaik8iIiIiIiIiIlIaik8iIiIiIiIiIlIaik8iIiIiIiIiIlIaik8iIiIiIiIiIlIaik8iIiIiIiIiIlIaik8iIiIiIiIiIlIaik8iIiIiIiIiIlIaik8iIiIiIiIiIlIaik8iIiIiIiIiIlIaik8iIiIiIiIiIlIaik8iIiIiIiIiIlIaik8iIiIiIiIiIlIaik8iIiIiIiIiIlIaik8iIiIiIiIiIlIaik8iIiIiIiIiIlIaik8iIiIiIiIiIlIaik8ibWbPPfcMjzzySHydcMIJlU8HLzbbbLNw//33h4svvrjySc+HtJJm0i4yODLFFFOEo446Ktxzzz2x/7n66qvDLLPMUvm28yy11FLhrrvuCtddd12YffbZK58OfvSW/o3xhXJmzJHuIbUJXvwvIiIi1VF8EhkMSQZxEsHqvQZXkUxkcALB56qrrgoPPvjgIILDiCOOGHbaaafQv3//+P7NN98M3377bZhooonCeeedFx566KFw9NFHx++kd0FZU+aU/eAs+omIiMjgjeKTDJYQAbDrrruGyy67LJx//vmVT/sOv/zyS/juu+8Gev3www/h999/D7/++mvhdyLSe1lmmWXCjDPOGL7++utw6KGHhlVWWSWsscYa4Zlnnqn8QkT6GjvssEOMgNxjjz0qn4iIiHQfik8yWLLooouG5ZdfPkw22WRh6KGHrnzad7j55pvDkksuGRZYYIGOF9EPiFJvvfXWQJ/z2nHHHStHikhP5dFHH4392txzzx0OOOCAyqcD+NOf/hSGH3748Mknn4Rrr7228mkIb7/9dlh77bXDXHPNFbbbbrvKp9KboKwpc8qeOiDSKNSbCSaYIAwxxBCVT0RERLoPxScREZFezpBDDqmDKSIiIiI9lj4lPm299dYx/Jg9bvjLexERERERERERKY8h+vXr93vl/8GaU045Jcw666yVd3/wxBNPhE033bTyrlzY1HmOOeaI/7NxaH7ZRK3v2UB6tdVWi3sZsbQCfvzxx/Duu++GY489Ntx3333xMxh33HGjsMbGs6OOOmqcDWdPn1deeSWceuqp4YEHHqj8csBGpoTyA6Ic51lnnXXCmGOOGT744IOw1157hSeffDLuJbLmmmvG9KVzsnfQl19+GS6//PKYvz0BnlK03nrrhWGGGabyycBwj1tuuWX8nzxdaaWVYp6ONNJIHff0+eefhxtvvHGQzXnJ10022STMN998YYwxxghDDTVU/D17rNx5553hwAMPjL/L52m6HhxxxBHxeK710UcfhYMOOijmeSPnZkNh9nKhDHia1S677FI5a2OkvHnnnXdiXcrC9VdfffWw0EILxf/JP/aH+uyzz8JNN90UTj755Lg3VKLauchL6u1UU0010P0lyBeu8//9Tsc9vvHGG+Giiy6KdT4LT5qaZJJJwtlnnx3r79///vcw3njjxQgP8oU8+Pe//z1QumqRPR/3k6B81lprrZgeyn2fffaJdYM9w4A8v/766+P/iWrfZ/OFfNh4441jvzPCCCN03Os555wTbrjhhvj7RGr75AF79GTz6Pvvvw+PP/54OOaYY8Lrr79eOeIP5plnnlh3pplmmjDssMPG63z44YfhiiuuiPeapTPXqcYKK6wQVlxxxXge+ibqNueibz3ttNMG2XNowQUXDCuvvHKYfvrpO9rdTz/9FF566aVB+idodz0o6h9//vnneM88KS4ta8rm1W233TZIHlert0BbpS4svvjisS+tlyfAMRtssEFcMjz++ON3tA/6I5bRHX/88fF3+Xqc7W/ykDbqYfZe8uNOyo955503jDLKKPEz8pV2e9xxx8V2nEj1/ptvvgl77713R16R9sMOOyxeg+9IK+NCopl2X490LpZU009xrpdffjlceumlYfPNN4/9Z76NQzPtJNuOt9lmm0Hyp5F+kXxmvx3qOcudzzrrrFiupJ+6lu+DIZVl/vtq/W21cmVc22qrrcLII48cxyDGipTOZupmtrzpy9lHbM4554xL2cm3Qw45pOH2VATtnacx3n333XGz/CzrrrtutM1o81zn1ltvrXwTwl//+tfwr3/9K9Yl2j5lAUVtiHHsq6++ivlwwQUXDNL2snn4wgsvhI022iiMPfbYA9k/QP7Tz6Xzpj6LdJGfUDRWdFf/TD/BeFxEvr5QztSrrH1JvnMdzpO/p0Sz7TpfV4CyYdxljFxuueUK20ajdbaM+tTIdVM74ffVIG8uueSSaAMmmsm/dtYNEZHupE9EPjHYFQlPwOd835PZbbfdolGKEZsMAxhuuOHiWv7RRhut8kmIBvJJJ50U9/vhcwZL4DgEpP333z8apkWMNdZYcaDlL8cxqGFkMrD+5z//CYsssshA5+R7BmQMimbAAEhCTS14qg/GPffUbjAmMMhnmmmmaKBn7wnDk416ESESpIV8xdHme34H/B199NHjE6XqgcjBvitcC+fujDPOiA5eo+em/DEO+XzaaacNM888c/y8HVAmiI4Y1ji7CJUff/xxLF8MwbwhVwRp23333ePeMzisGHFZ4YkNTzHQppxyymhwcg3ygfeUBQZ6EdNNN138DsMOwwrBEyeQetnZTVQxSHGoyNNbbrklprkdcD7yAmORfGTfnd9++y3mzbbbbhsFmCIof/bloRx4Whn5SNvFWOd8eeOWcsOQ/vOf/xyN6tdeey18+umnsV/YYostYr9RRLPXqQZlgINNGSWHk3ul3+Bc9F2TTjpp5dcD2tHOO+8cHVjyCEObY8gb+ifKs9rTvNpRD6ijOMT0j/SfXJ/0YvQj6BT1ZeQV/SbOIw4p18bxpCz/8Y9/DCQuA9fAUaAPof2+//778RjaPXmC05e/x3QMDu6EE07Y0T74S388wwwzVH45KJQdv8WhBZ5wx3teWeGoiOx4QfkjbvDCEVxiiSWio5QtvyIoD4So2WabLYoUTERkhadW230R5DV5Tt4j6JCvlMnUU08d2xVlWkSr7YQ6euSRR4bFFlssHvfqq6+GL774IvaLlC+CW1Fboay5N+o050Ao5W9XQFkioDCuPfbYY2HfffftEJ5aqZsJJp/4DYIfv6eNt9Kesjz33HPxt5wnX89ob5yT+6DcsjAW8jn7myE+Q7U2xD3yW+wX7I5q9gS2DXVhnHHGifdHeaX9IqnffMd5aV/UH+oB6WDcpHyL6M7+mb0duX/SC/QPRf0C7TPZlwh11Ade/M9n//znP6Oom6fZdp2tK5QH42Kqe0xGVLNnmqmzZdSnRq7LWETZpvzNvqgnwPc8ACfRar/YrrFbRKS76BPiE4ZjLep9351gKOGoYvDh8Pz3v/+NYsDSSy8dB0YcBQZbYLDFOMfo4zNmHDEa+D3RM3yGgcVAX+RQTD755NF5SNE1XINzMNuHsY0x8tRTT4Xtt98+fo/BwgwQ6WoUhC/SUy0yKQsGMxEOzOBiCDQCAgLGNs4PzjCQRxiPvBB8AMOS/Hj++eejsMa9ki6O5zi+5x6TcUEeTDzxxPF/Bnzune/JizvuuKNu1AX3Tb4z80nEGjNgyUFr9NyUBc4P6X722WdjWbQLyvDhhx+OBg95gaPBX9JJuZMPGGjVwOBBoMKAxIAjYuKuu+6qfDtg1hijk3Ode+65sc1xDWb+mGXEyOd6OGtZ+JwNU8kHfpuO4T2QT8xatgJlsv7660dHm7QefPDBdcuxUWiDtDWMQa7Di/qHsIfxiCNUBPfKbDp1kZnNVAaUOcYzTzRLkIerrrpqNKjJw2WXXbbjGPKYY/72t78V9m/NXKcW/B4nB6du4YUXjufK3ivRKaQhS6of888/f7w+L/otojhx/Ii+y9OuesDMOn0JjhiiGdcmvYjR55xzTqFYg6jy3nvvxb6U33IM9YaICPoxRJpsvWUyg7aCc4Vzgaic7pH2i+NJ+rOkCBkcFfrf1D74iwBfS0RC7OG3PIofuDfe86oVkUqbZbKBukq60v3xot6SfkQeyrQWiEE8tIDZd6J7mLVPtNrui+BYot7om2+//faY7+Qr+Us+04fR5vJwXKvtBLGBsQ+Rid+nMsGJZJwgyoJz50EwpJyJGiFvcAzzkVhlgL1A/aOPYXwg3dm600rdBCIUmfBgfCQfaG843620pyyMY9gcRKtlxQfsE/ohygZhB3ExC+9pe6Q59dnp3vJtKNUP+hfujzpf5KAjSJAW7ov74z4Zc6nDRFKRFso99XN8T/5SH3H+83Sm3rWjf6Zdcv9JlKZ/4D2v1C+k9glsRZHaFC/sFSaPaKP8n01nK+2a8qE/oe5ho/E990a+UK+SDZSnmTpbRn1q5Lrk04YbbtiRv+l17733xrrGWEikFMIsdKZfbNfYLSLSXfQJ8YlBohb1vu9OMKaTYYNRxcDE7AtG3ZlnnhmfYsRnkAxBYBBGDGDmk9/jDDJgApE0DGB5EEUwGLOzM5DCo5lpTkvzgOsys9dotAjpw/AjPcy21wNhCIOdWSciDxoRoDg36WKwT+AkEDbOKy0BQJAi3RgBOAjkJ8dieOJoAlEV6ZoYM8x4AUZ9ynPyAiOPaI5q4BBgmHA+HCRC/7P338y5mfGi7HAO2wl5gciXX5Lw0EMPxdk4ygBxsgiMK+oXTjp1lHvLLytDbEF4Q+RhmWgCQw/DifzHYcpHKJIv1OWsMMRfliFxLWYrcYqaBcOP6ADSjlGejQ5oB7QljMqsAIeBTfuBanWZ2dW8w0j+EN1BP4DxnsDBo3/I5w+cfvrpMQqBOoeDnKeZ69SCukr0WH6JAPdKG8PxygrdyZnLLzeh3tHecQyK6lm76gG/w1mkf0h9AXAu8iz7WYJZaepstm3QVyC0cB4EMwQGoJ4TTUmUQ778OZ78oj9idhvHBtKsP8cgjmejhoB0ZaMw2wXXpR5yDzij2fsj3UQAkO+1hCH6Jxxz6vuFF14Yx48srbb7IlJ9ZxzLt1fOT34jgOXpTDsBJnzyZUJ/SX3l3ooiaRBraANMbGSvVyb0v4wP1EfSxr1STxOt1M0E/SRjE9Ea2T6jlfaUhaVP//vf/+IEAJGNCdoD9YJoEdofNktKE/0J9ZayThMw6d5IP+Nrvry41/PPPz8eQ/9CtGQexAcm9PJ9GeemH6Pvzts6XAe7AtsoT0/on+uR7o2JJ2ysbBq5NpGPiHbYgKmPg2bbdbZ8+D5rH3AM+UM+5UnHNVpn212fWmkrCfoFhCGgD0kTJdBs/mXpqrohIlIWfUJ8YjCqRb3vuxMcOEJ6AaOS2UVmYIpg1oMZEwZFRKesIcH/hPVCtQGKGTJmv/Kk/ME4Y1aT5Q3NLrVjIEZ4QmjB2ELwwZir99pvv/3ifbOHEGJa0YxlK2BAMCvF/RAWj8GKs3DzzTd3OL/kJemFtGwKmPlkL4hqAkIWDHNEHfKLmSmugYGbpdVztxvSSBmxzITyYZ8bZpBTHlQjRT4w44hYmK9DRKQQwUYdzO/nA5QFs4t5oQLIF/ZzydZloH7TLsjfeunLgyHNrCbGHXWMZQX583cWnLGnn3668u4PMORpn9TjIqMVhyTrMAL1A8MSIYCICkgGM+fiHvLp5z0RSdXEnEav0yj0SQi3GOoY5ggXtUQLojmp5wjo1113XdyjAxGjGu2qB/SnCCU4Dexh00g7I5+KnGjEYb6jn0gTGERP4JDTZxb1pTg/LIPJirk4SfTJ5H/RMWXBeEGbQ8zJOkYJ7o28IvKnaCkWZchMPbP3CE/5KKvOtPs8tBd+Qx9KWRS1V+4DoTxLZ9sJ7RgBvgj2WOG89CP59OPgFt1zWVAHGR+5B8Z5xs18+26lbiZwwlNkXZZW2lMe2jV9DvUxgY2QBB/6JNp2WiqFkMB7yiYJFunecMiJiisCkYh7p63lI1+AesD4n4Vl8pQvwsT9999f+XRgSH8++run9c9FpPZZ6964ZhJkUtm20q6x32jD1cqHcxH1naeVOtvO+tRKWwHuFVsK25V+ImvzdbZf7Iq6ISJSJn1CfMobFHnqfd+dMBBhNGHgMbBgNDH7iDCA85YVgdL/iERE2jDQZl8pHJfzYPTkYcDLG0nARq4MwsAgzR4HzOQgNLCZZm8EMYxZesKpEXwwjjAkMOJxcPIws4Rzg6OFUUKoOILVeeedVziLmmCvliT0sUSxKEqs1XO3EyLYEJzYIJtNz1mKg8OPWELdqwbLUggZx4A98cQTB5lxBmZ3MaSIBqDO5uslL2YZi6AskviahXpK+qjHzCA2CiIFs5G0FYQLyr+ozncWnDWiD/IkkZF6ViSkYgAXQd0AZnSB9HPftHXKrChPi5ZzJBq9Tj1oR0RKIuAx0087oqxxMorKDQeG6B5ETeo57YP6wQbO2ZncPO2qB/RlCGP8HrGLNkYUVq12lpatFJHyi34RaL/UMe6TWe18mRBJkH6bQLiiT8YZLaMuViOlgyVG+XTyYt+RavWAvhLhiXQjPBVFsnam3edBqKW94OQz898onW0nCOppw+k8qS1z/uw4DNRV+peugiWsjDM4pmycnHdOoZW6mcDRpn7maaU95SF/qffsYYPISTkjHCAkkocsMaIeJTEBsZZ6yb2mPjbdG/0IjngRXIP9lqiz1Mk8RcfhyJMe+vNkAzVCT+mfa5HaZ717o18msgvRDjGklXZNPpIXtcqniFbqbDvrUyttBZiQw1bnnEzmZelsv9gVdUNEpEz6hPjE/iI4/kXwOd/3ZDDscQQIjcZQAKI3cN74rijsv50ww48BheDEwMcghyHxl7/8JUYNIVzUg3MgvGDIYBywXh2np96LwRlRjNm3ww8/vC3OGQYU6/bZjwYHgnNjILAciCVtRUY2xjz7IWFYY6iRBxgnGDDs0YQgWAT72zD7CVy3KIy61XO3C5ZDUh4YROwNxt4v/fv3j84EZVbk9CcoD+okBg8zekWCSgIRi3tNG3EWvWoJEO0AEYNlWuQxs/WEv/dmcAqYMS7Ky/RCQCyD1I74i3jKvk+0H/YxIaKQa+chcpNZZeo5/S6/xXEmcqoosqLdUF9Zsko66E+pDwgb9DNshlur/tYiL1hTx/LlkH0xc55vV/noia4Cca0ojelF/cr3u4jNvBBR6adx0qrRznZPu0UQapay20l+2RXjSjvGqkbBqeeaONz1+rRW6ibnztdxaEd7YvzFrmCJGscy9nAf1EuELcQC6lCKVmJc5Do8mS5Po22o6HdF95fgu1baZ3f2z43S6L1xL9gziVbada2JrFo0U2fbWZ9aaSuMfUSC0zaYWCSPimhnvygi0pvoE+ITIJAk5x74y/tGhJN2gbGeQFzIg/NfDcJzWb7FwMbjZBkUgQgVNmEFDFBA7GBzw7yQk32xRKYZGARxLpmtY2aV0GYcAYxLIkkY5OvBDBJRDzgqRU9PycM5CV3mXvP7V3QGQrDJN6AesESBSCNmvbifoqgwwJjgEeKINRjbLP/AaEGIYwlKkdHPLD1h1+QVs6FE2hSJha2cu10gBjAbhyGFyJmdsSfCoVa9pGzYYBhDCuGBvZ/yDgeGLXWSF+Wf35Qz+6q1QXK7YF8Iypp7ox6mDVd7E9QXnAHqFZGbRXmZXiyHKQNmjNNTpShXxOks1KkstDvaPvWBCDn6X+4jUWsmud1k+9Mrr7wytjXqb1G/VG0mmXrOjD5lkMYV7g1HHSetqCzSi8hUBHlI4wIiXleSrsvsfFEa04t8ykfx0d6JHKX9008jQOQFqHa2+yTu0B8yaVAEY2q+7+5sOyF6pVq50J8jvlH/q0VHdRU43Ii39NU8nYt92PK0UjcbpZn2lIdIGOoXaUcIYDyibRH1DSyFQkxgqRIRVSyDI4olu0dQujdEhmrlldorv8vaYrXgPvg9USpcvwjqANFUWXpC/1yP1D65t2ptClI9Z5KJ+2qlXZOH5AXL0PL2QaLIJm6lzrazPjXbVoi02mCDDeKYwVLmokjwVvJPRGRwos+IT8BMO8494gt/uzriiZBvBmBIa+ATiDq1DIAEIhAD0hVXXBEHL0hPCSFihwETA517rDbIdxb2dDnmmGPi/UC1de9FJKeTAbgepJ89JRBl2iU8ActcMKYgP5uHEIExUg8MDvbYIH1AWomkKYKoKiJDgGtjpNeKFGjm3O2A+oPxnN8vBTDcipYoZKE+smQPQ50ZPxzRbN1DqMRJ5bNGNhYuG9oNgiNlgjHM/k/ZzVSBuo2hTVtKQmUWwuJZhtBdYFzTF5C+Wo/hLxPaPAY+QkQSwxMIpnlnDaGK5QzUk2ybA9pDv379Ku+6DvIQ54/9uXB+ivbCQ2Qraq+MIbRnnDLqONBPkR84bCxDbASOpU6Sn40e0w4Qnej/GHcaedpcHiIFWHpNJBL7piBcc9+JdrZ7xB0mV6jvRNwWwRJwxqIsnW0niBVETuShPqR7amZsol+hrGkH+X20yKdWHp4A2BUsfWXigP6apzHyJKwsrdTNZmmkPRWRolH4PXURcQhBDShDHgJCnlHGiNREC2Wdfn5LPeTeFip4WiZgY9Hf87t07npQx6nD9PWIaUXweX4s6An9cz3Y54l9ghBKiuo4IOQhLlO/nnvuufhZK+2a8sLmS4JPHtoTfUieVutsZ+tTK9clPxCeOIYVFUTqF9HT7CERka6mT4lP3Q2DTlo2x6CIkYYDw5IrHqufjxQABj721OD7FF1E5AxPtkkCSgrbJqIjOXU4x0RIMXvCcRi6GKTMVrNevRmIomKPlmTUYSgQiZOegsdAWrRZZDVIA8vJ6kH0zzbbbDOQUdAoGBsIccBsKAIDhgHXJRopiV84xEQakUd8T1lglOThqUWIYOybhdGAgcHschKqECqIHCoCQ4ZjMUaBss9unt7MuY8++ug4w00kWLug/mBc4vxmo7LSY5CrRYJlSU8JQlhguR57HiSYiWRJBtegPvOUuSzcM0/0o752FZQJxiEOOPlNerP3zibDtCWcB+p91jknX3BkGsmXMmHDfAxkhObddtutoz4l0lPl8k5uu6DNc32MdzbmTZBXRJSy7CEL7Q7HD0ctu1cc+Y9wQVssG/oBnvKWhXxDRKN+MiOeh3TlH7KAWMnedzhu9Ovsywf8JV/oG1mqnN8Tj7yhrWfbB09+oh5yDJEieSGU9tJspGojEInKUhT6R+4vW8eBtPNULvrEajCZwFP/2BOIMSkb+djudk99R7jBmSf6Nlvfa/VVnWknlC9LkrNlkuoroj1jH+Nuo7CUhv6cvn3FFVfsSAt/Ee0bFWuK4Lz0aTjZjGG0QSKREq3UzXq00p6KwFlHXETMZRyi72WJVCIJB6SRaDTEhSxMiCEq0F9j82TvGyg/ypl84Xf8vhGowwif3AvjwxZbbFH5ZgDYJywbLqK7++dEmiTMT25SX+gDsIXmnHPOQdoU9XzHHXeMkwJsfZDqeSvtmuX8TKbRntZaa63C9lTU/7daZztbn1q5Lu0NYZy8Yu8z8reIrrSHsHeJSuRc+fonItJdKD51IQxoDHIMOswKYsww4DNo4ZAViRf8jkGZARtDhc0I2UuBWSKiVRA0iIICxBoEAAY9vmNNO8IKx7EZNBE36clKzYAohgOOAMX1iXJhjxYGbQyXZPj1JDA+khDHoIuhx/405CWbtadIJO6BeyGP+B7xhFmxPJwDAw3nCoONJ3RhNGDMcgyGZi0nBAGNEGuiiygbHLVkuDR6boxUnBPqBBFJRTOFrcA1MZiYFWaPJxxK0oDgiXPFqxE4lqf5wRJLLDHQ4+GJMkyz8iylpAxYrse1qD84eEWiX5mQHsQ82hAGMJEDWQGKPMd5QGxFXKPes7SMfCG/Gl26URbUWdJIfcDZuvHGG2MaeWHs095xctOSpXaDMU+7RwRHiKHOUJ7sQ8cMd74/w4mj/0hGN8tRSCsbliOWd0UfgshMuyN/Ul6RbzgTlCl9dB7ShQNJOvk9dYC+kDrDcjue2JccDf4SDUSdwukh6pF8YVkvf3ECOFeaOACcEeoX50LQ4Ny0CY6hPdFeeOJcu2EZyrnnnhsFQZZEkjbujetyfdLOeFEPJhPYeBphiHvjMeDJ0WlnuyetnIu8Q2i65ppr4rmoR4xzOJtFfVVn2gljAWMEZULecAz1gL6YsY+xt+hJgdUgHUQFMQYg0jNek9/85cEXCJmdAVGdiQnGN8bttBQOWqmb9WilPRVBXWQSBHGCdLMEKuu80wappzwiH6GzKHKJ+0HcI/qN5e3Ui3RvlB/H8j2/awbqHflJ2pigSuflL3YZeZ4mFbN0d/+cIO+4BvYCeUE9RgwDypz7QLRlIjSlkfbJ8knGQ/KdPg77MtFsu6aPo92wP1Lq40hHug71JUVWZWm1zna2PjV7XcqX/CMf6QcpW36bf6VtPrrKHiJfSSOR8zxIRkSkJ6D41IUwoGEYEu6cHFfEBQZmnOAiw5nZIgQrBkqcNuCYNOOKEZGNDGIJFJ/h6DGo5o8hagZjqhkYyDHsOQdwTtLPAM4+UNnHyPYUSDPGA3mb0o2zkJZTEXVGvmXLgRB7IgwQHPJgGOEcYlgk+B2G57HHHjuQ0FINDAsMMNKBQUr0DJuJN3pu8pvPSOuLL75YaIC3AvmAMYSBTboItcdgo67weTPGcV6AQlAD8pzZTaL4KAOMLgwijD8Md+pyd+x9wb2njfARE7J7ciXRlogdZtQRoRABEF3OP//8jrbVnVA3SGNykkkjM9WkDaGH+lzWfjSUKZEW9GfUafKP8qTNIUAU9WfkNQ4OIixOIrPxREfQh1C3ywZRmvLM5hVpR+DN96UJ0kW/Sh/M7xGwqbPcN+03fwzvORff8ztEXZZZEyHGMhfqFRMIWTiGc9EOuA6/5RgmCuiXrr322sov2wt9Etelv6T/ofy4Lu2TZdzM7uNo1YPyw3lKAhTOJQJUO9s956J9ci7GI/ooypA+C4eNPK3WV7XaTuiH+Q5RiAgxjsOZo6+kjhc95a8eRCMgytAGiA5kQoE+HQe/s+ITUF+zAhTROkmAaqVu1qKV9lSNJJKQrvzmz/S56amT+SiWBPeNCImQR10jaoV7Y+kk/Tv1hii+ZvuZdN5sv0WZEVmNUIPwWm0s6M7+OcGkF+2MukwfTZmTx4l999032hncJ3WbNLLUHNuIcuTe6SeytNKuOQeTrfQ11Hd+mx0viP4sotU629n61Mx1EZ5oa4hPqQ8tepH/0FX2UMoD/AjKUkSkJzDE/w+E3e9BiYiI9CAQVBBScGZxEqVnQzQSjjTOIUJOI6KZiPQMEGWXX375KJqyab6IiAyeGPkkIiIivRoiNog+IKqgWhSFiPRMiAgDIulERGTwRfFJREREejU8sYs9XljGwlIZEekdsAcgeyuxbLcdS09FRKTnovgkIiIiPRocVDY3zz9djX1U9tprr/jQBpzXu+++O0Y/iUjPgaf6skcoEYpZ2PuSp3yyRxd7E6U9I0VEZPDEPZ9ERERyuOdTz2KppZaKG44T3YS4xIbBbJCM+MTG7GxizJM72fdJ8UmkZ5H6U9op0Yk8+Y7N4Nl0n4cG8HRENj6/4YYbKkeIiMjgyFBjjDFG/cd0iYiI9CGWXnrp+PQhnjZKNI10LzirCE84rOztxGPqcVxxZnliFk9xPeKIIwZ6aqiI9AwQhHliHBFOPDGQdswTAHmCIE9iO/LII5t6OqKIiPROjHwSEREREREREZHScM8nEREREREREREpDcUnEREREREREREpDcUnEREREREREREpDcUnEREREREREREpDcUnEREREREREREpDcUnEREREREREREpDcUnEREREREREREpDcUnEREREREREREpDcUnEREREREREREpDcUnEREREREREREpDcUnEREREREREREpDcUnEREREREREREpDcUnEREREREREREpDcUnEREREREREREpDcUnEREREREREREpDcUnEREREREREREpDcUnEREREREREREpDcUnEREREREREREpDcUnEREREREREREpDcUnEREREREREREpDcUnEREREREREREpDcUnEREREREREREpDcUnEREREREREREpDcUnEREREREREREpDcUnEREREREREREpDcUnEREREREREREpDcUnEREREREREREpDcUnEREREREREREpDcUnEREREREREREpDcWnPsLss88errvuuvDII4+Eu+66Kyy11FKVb0T+4OKLLw73339/2GyzzSqf9GxIJ+kl3SKd5YQTToh9JH+le+iqNs0YyFjIuMj42CitHie9i9QX8Npzzz0rn4qIiEhnUHwS6UUkxywZxfVeGs0iIpJnyy23DPfee284/vjjw4gjjlj5tDEmnXTScN5554WHHnooHH300ZVPZXBlpZVWCrfffnu49tprFVxFRKRTKD51MQsuuGD497//HW6++eawxx57VD6VdjHFFFOEXXfdNVx22WXh/PPPr3w6+PDTTz+Fb7/9Nnz33Xcdrx9//DF+9/PPPw/0OS9+LyKDNzPOOGM47LDDonNoVKvUY7nllouCwhdffBHOPPPMOFb0RAbX8by33dfll18ebrzxxjD22GOH9dZbr/KpiIhI8yg+dTGrrLJKFKDGGGOMMMQQQ1Q+lXax6KKLhuWXXz5MNtlkYeihh658OviAo8A9LrDAAh0vjEJ48sknB/qcF0KniAzeTDLJJGHOOecMo4wySuUTkWKIckJ8GmGEEcINN9wQHn300co3jfP222+HtddeO8w111xhu+22q3zafgbX8bw33tdFF10U3njjjTDzzDOH1VdfvfKpiIhIcyg+iYiIiPQBEJ6mnnrq8P7774drrrmm8qlIbRAc77vvvjDMMMOERRZZpOmlmiIiItCnxKett946XH311XEvHP7yXkRERKQvMP/884fhhhsuPPzww1FQEGkU9n366KOPQr9+/cJf//rXyqciIiKNM8T/DyK/V/4frDnllFPCrLPOWnn3B0888UTYdNNNK+/KgyenzDHHHJV3A8NePWeffXY4+eST4/u11lor7tvBUorhhx8+Ls/79ddfwwcffBAuvfTSQfYIYL+PNddcM55/1FFH7fj9l19+Gdfqc+9sErnvvvuGcccdN+7vcOihh4brr78+Hr/YYouFf/zjH2G00UaLx7GMa5999onfNXLungAbcbMXAbNyRSA4ssEqkLfsd8G+CyONNFLHPX3++efx3os2UCUfNt544xhynmb8Pvnkk/hEJpYepLK96qqrwgEHHBD/B6612mqrxWtRlsAeTe+++2449thj40wiadliiy3C77//HvdtYT+wZmBTcUL4s/eYYInnyiuvHKaffvqOe2UfqJdeeimceuqp4YEHHqj8cgDcD/UuWx+B81IvhxpqqIHqB1CnEHLnnXfejmU/X3/9dby34447LhqriVRO77zzTswn8pR2yRIQyoCw/nPOOScuB2mE7PnI5wT5zfmnmmqqeP2DDjoopie1w6K8gmrfp88p32eeeSYuO8AAJz++//778Pjjj4djjjkmvP7665UjBpQ9+3p888038fqLL754Rx799ttv4cMPPwyXXHJJ4Z4f1DHujWPGHHPMWG5ch/7qtNNOi2lIdOY61cjWA+rtkksuGdPB+V555ZWYH9Qd6u4666wTxh9//DDkkEPGcr/tttvCUUcdVbiPzDzzzBM22WSTMM0004Rhhx02ljnpu+KKK+K18nQmH1jizFI0lrVw/kMOOST+rqgtf/bZZ7HOka5q9aOMtDRzziLSddJ9ZMn38yussEJYccUVY71N40q9a9G2OIbypa7Td7C8l6e9bbXVVvE32WtAKmPaHtehXyMtDz74YNhtt90qv6pOtk3vvvvuYdtttw1/+ctfOvqI9957L/YRtMU8zfRF2TKir5h77rk7ygHafVyimTaQzYt29JfJDmCc3H///cM999wT6w7jOOkh3dtvv33l139AmznwwAPDOOOME/sR7i3bJ5K2BH0vNgNlwPYC1Jt67TxPuu9GxvMy7CVI9wfZeyS/TjrppDDddNPF9/SHjMHZvr8azdwX99ST7JTE4YcfHoUnouaoQyIiIs3QJyKfMEaLhCfg854UAYVRilFPWDwGJgYHYMBNNNFE0TDJOkUYDf/5z39iGDTiUfb3GMMY47XA2Fh//fXjsTgJjz32WMc+QZ09dx5EPgzYemAgI3xgvLYbnIRddtklzDTTTGHkkUce6J7YTHONNdYYSFgB0oGz2L9//w4jkBeGOPc04YQTVn45MDhaGKUIP8mgA2adJ5hggpingBHL/7xwstoF+bjzzjtHp5f7w1HBQEZAwEhlw/tGnlyz7rrrRueZc9xyyy0D7SNF3mCII05wjzhJvKi7SyyxRDjiiCPik5HycC4cS4zhjz/+OM7Ak64//elP0dlENGsV6jTn5lw4f6Q3azx3BuoIe5zgjL/55pvx/Nw3dYNrFokA1JUNN9wwirw4ppQDgjP1hvqz6qqrVn45ANKP40NdHH300ePyGMqN83AdnIaicmv2Oo2AY41T8sMPP8RypYymnXba6Hxvs802YYcddoj1lrzAecPhZ1nPTjvtVDnDH5AG2tGf//zneL7XXnstfPrpp7EtIL7mn8zYaj4AziW/wcnj92lfFeorfRDfUW6ck3yi3LjPoroKZaSlM+dMkOfkI/n/yy+/xBf/4xDzOd8DfTllRV9DneA6tDnSwrXoq/L3Tj9IuVB/eMgB52OD6tlmmy3u94PYmAdnmfxNZUw6aN/kNaJXM9BHkAf0X9k+gnTSR1DPsrTaF5HftBvKn3t69dVX4/Xo6zkXQipllaeV45ptA4l29ZeMRbRXronwBAiD7PuEsIFgWFTn2D+Q8Y5rIzzWgjGHyRCEJwQg6gD9EffI/WPjtIuutpeAiTquB/T/PC2Q9tROeqKdknj55ZdjPzP55JNXPhEREWmcPiE+4YzVot737eCMM84Ie++9d3jqqacqn4Rw6623xs+YicSpB4xYZpcJiedzjL7NN9+8wzhkppTPkpPLrDRGE8IR52bWEgMVY4IZ7VpPO+McOIkYsByPkcisVopY6My58+CUYKRXm/HLwvXHG2+8aFQWGf1FkH/kFzOXOFeA40H+8iL/AeONfHz++eejEbr00kvHdHE8x/E995gMcPKI2cpklOJ8MZPKOflLWjFy82AI4hBwv+TTf//733gdrofDSdpIBzz99NPxvERf8OjqdsKsJ7PULLXg+rwwxpnRxChdaKGFKr8shnJDnMSwx+k4+OCDO+pHyhtmnHG8qKf8nheOEo4Kdatoc1KOwajld+kY8pRZXYxrnINWSHWamd907/WcpWZAjCFqjHzkvihPooooSyIHlllmmcov/2CsscaKhjrOKNEn2TIgvTgaWRDDcQTIP0Se7DHkMw4BgkaeZq9TD4QJnFEeqc75KCP6h+RI4gDhBG+00UYxL1L0HX0Y7Yd7SNDHIn7h0Nx0001h2WWX7ci/c889N+bf3/72t4H64lbzAccLgYw2zflpz4gYqb5yHIIT/Us6J9GB9LnUvSLanRZo9ZxZEFURQHgQAf0ML/7nOD5Poiv5+9Zbb0VhaOGFF455n21zbHxM/ieIzqANchxP5ErHcA/ULxzirKOawLlHgLz//vtjfSAdHINIwJKdZijqI/ifdk3ECuNgojN9ESIJ4wwROdS/lGb6aaKbppxyykLhttnjWmkDiXb1lxNPPHG0IRA6s9BuESq5J8TFPPSnjI1Ex9WLxmN8IHoXcZA6Tb5QF+644444HjIW1aPR8bwr7SWgbbJZOHlBfpGOZiY2erOdkkDcJiqKepft40VERBqhT4hPGPG1qPd9O8AYYmlC1rhhNpnPMETTzBlCBBEpOEY8NhujgWiks846KxqakDUQMcKBmSgMyGQIcU5mu2o97YwZPM7D7BgG+7/+9a+BZvA6c+4sGKEYRpybmel6YHAR+UQ0AGHdjQhQnJt0pTwCjDTyl1d6og/GFOnGuSIUnZlLjsUhZDkH4Dyla+JMpRk+jE1mz3G+OCd/WVKTvWYCRyE5ZxiCqYy5Hs4hkQN8Buw/hkHL7DwGervgnrnP/DIHnAfyGMO91uwls/cICxi2LJnBaE7CE+Cwk0/cP0sVsk4Jgg8z69QtoqzyYLzicGWFIQxr6hk0UuZ5SCfGNnWaPKeuNbocpVFw2lgaSTkmEJ+Y4ae8cXDzEKHAEgWeFpQgr7h3DHuiqGaZZZb4OU4ks91EReTzh2OoM9RrHNu84d/MdRqBsnvhhReiE5LAaXrxxRdj3SGN3HvqM6gbpI/P6TtwmBMIX7SJZ599diABE04//fQoBtHu2pEP1AMcS/rRbDml+vrVV1/Fa9KvJvgdyybzTjmUkZbOnLMVOB8RjPmlarQ5+kQEkWxUEOnjM9pjvp+nftFnMS7kQZSiHpKP2TLmnrLLeBuB87NsKps3/M8SV0BISXSmL6Iu33333eHEE0+sfDIAlrMhonEcTn4+aqrZ45ptA1na1V8iUJOu/JjF2E5bR4RIgkaCJVaIk4jO3G89iHzK13fulfZGfUf8yV8jT6PjeVfaSwh+1DMELfKCcqc/bIbebKckiJojn5mQoj6JiIg0Q58Qn/73v/9V/ium3vddCfuoEIGEo3DkkUdGw4M9VPg/zcrjFGB4QEo7RiPGESH4jYSOY/ylGTwMjaLQ8VbPnYWZNYQnDECMau4Ho6/ea7/99ouROUReEMmCE9cOcEruvffeeD+EqF9wwQXRiGemNhlvRHyQXiC8PhlnhJvnxQzEIpZO5MF4TEteuA+WvDAL3B0ws7nXXntFY/K6666LDgRlXwuMdCIzqHOUxz//+c+BnCUg0oe6iHBZJJpRn3CaipwNDGEchzxE6WCMU97NOt2IqcxyE3WAo4uD3G5wEPPthOgfxCecuiJjHJEZhzMP50GMJg9T22Y5Dg48ba8o/dQ1zocwmxcOm7lOIyBYPffcc5V3f5AEGpyQ/P5k7OtCOnDM6VsA5xsniXKlLuXrEe+JysmKoZ3JBxxcxNI8LPsiD5i5zztUQD5RjnnKSEtnztkZ6INwYBEyyANEmbwgw94w1BP2g0JEKYK+sChKBMeYdkD/koTrViHCiYiWPKmPoL6k83emL6L+FZUREIlKGdIfIsBkaea4VtpAlnb1lwgG/J5IsDzs5UWZklbG7QT/I1LQ7ovaTRHcK2MedgUCDWWy4447xuu3k66yl4hgJJKQ85BHRAM2Kzw1Q0+2U5i4or5m81VERKRR+oT4lHeQ8tT7vishSoiZU/ZTmW+++aIRl2br8uHPwMxwMqgwRNj8l9BpnG82Ni0Co4EoG2bwcNSrhY63cu6eDoY0+csyF5aSIG7h4GHIFeUvs+s4U1AUFQGE8OfBeGTWEYeH4zEOmaHFMEYIalbEawXqDmXLhsAs8ZhhhhmiscjyvuysdB5EA8LuSSOzyORV3lmCZPgS/p9Ew+yLPSuqORs4ZhixeYiaAMqjGceV/SxYroLD3MqMdKMUzR5DqgNF90sdYFY5D7PvHIcjRFsEBAnyn7IjyiGfp8xop3zP08x1GoGyID+rwff5ekEbSmWYoB5xXa7PZrj5e+KVX2rUmXxAtMGRz8NSXigSmGpRRlo6c85WoN/DYUZEJgKHfo9xgH4gOZ8JBFTaHm009f+NwhIfBFrECpY/IXYT5VMUcVSPen1EVnDpTF9EHUZILSK1nSJHu5njWmkDWdrdXxaRnmSGvZH2yOScCKVcp9El4dQxxE2W27FfF+0OwQahg3xpJ11hLwHRX5Qh+UA+ZaNBy6An2ynU+3wfLyIi0ih9Qnxi3xfW8xfB53zfE2BGltBvjH9mJxGECJdmDT4zdEWGLr/BmMWAwjFOTiYbVzNjxvnycG5mlQGDvJpj0Mq583AOwscxaplZ5V5wEOq9MHyYnWXJSnYfqs7AjC57NjATjfHEuZkhJbSdvXyKnMTOwLIvnB5m73EeAMMYIYjvsrPLZcAsJo4DxjZ1nP1E2G+Dmc1qM/aAcYuIQXmz7IclOLUg2oXZ52ovIk3aUX614PzkMfUZR6Gzjlh3Q/4X5WV6MYudFw16OjieaTPsai8iObK0kg+07SIHLVEUsdMIZaSlK8o59Xv8JTKIfZ/o7+gPiKzgOkUwTtQSH4tArKaP50lcRBvRHuk/6H8aGS86S1l9Ub1yrEb+uFbaQFdBBCcCF6JoEp8QPhA2GIuzS/6qwd5eTFxwnywBpi4gCiF4pn3J2kVX2UuAYE05EpnGmIjIVRZ9zU4REZG+RZ8QnwCjgr1v0qwXf3nfFQZxoyC6sCwA2H+BzTCvvPLKaMRjEGL4FIGwg0PBzCn7NhF2jVGFA44hmA/Hx6DhUb3sfcJ5iYJir5wimj13ERitROBgsDEbXg/OyVI9HDNmzbn/dsCyv7QPDeXP0j7C2TG4uZ+i/M06X9VmzmuFnrMsgP0ocPJOPfXUeE9AOv7+97/H/8uAeyW/MfaJAqKuZ52uelEVbIZPvjDbSpmx/1OelDdEOjDLXe3F/RfN2rcT8pW9aJjBxUCnPvdGAYryon0iDhflZXplN5Pu6VDvUiQIUaZF95NeOI9QRj4kEYC9r6qRogeylJGWrixnnnBHZCD9Pf0wjneWfP9FPpE2Pq/2hCwiMIryKkEEFCIAbR/nmb6TJ2Z25imWtehMX4T4UK1vp5/me+owwlaWZo5rpQ2UAWVL2VXbq4cl2exnhPCBaEhfyj0SIcOrHuxjRoQXexcxvmbHbpbBYW+0i66yl4B7T8vW2Nev0b0oW6Gn2ymIfkRuIvjRj4mIiDRDnxGfgNlXwrQxWvjbUyKeEhiEGKyQH9QZ8FnKUA/2ZGDj3DTrV23PEGZfESW4DoYahhizbbVo9NxFJAGkEWMFA4sQ/XY/wpiN5TG8AUcgRX8B4krRfjikIzmtzAbnZwF5WlF+L5AiMHjZCPeKK66IRhtkN8xtNziNGIikPXufgNFc77HnpBGjl0gJ9oJg/6fs06UAR4985P5bWVbTbshf9vzgnkkrT4bKC1DJgUxLi7JwD2WWSSNQ3xHQWO7Q7NPpeio4TdR/+jaWfjZCGfmA80jdIHKhSAThM77LU0ZaurKc6aNZ/sX1klOZ4J7TcsQEfR5CFXvIsP9TEYgSaY+ZWhAJhTPLmMG+OekR9e2mM30RTnnRE97oH7AVqLcsZSJyN0szx7XSBsqA/g/RkLIogj3AEDy4N+4BIQZho1akbJa0TKtoeTJPfWxm2W89utJeot9gqR1lSP61ey/KLD3dTiGPUn+Sty1ERETq0afEp55AdoaKUG9mmnCS2TCT0PY04GOoEXGC8cfyKZ6ykgytLKeddlrc0yc9Mh9hgRnLtO8BzgZCUxEYU2xiidGCUcg1SE+iM+cugj0MeKRxPZg1ZQ+HVmb8yV9m7YEIB0STDTbYIF4XRyAZqYgz5Cv5y/csF0CsycOmn8kwRYRhPwR+y9NliK7ZYostoiGWB4fywgsvjLOxaSYVgxBnJRmWaXkFQijlQDRauyIDuFf288JBzO5lgXNAiH21iIYsOMgsecSx4zg29M4atUS04cyQzyxzyDt9XJenOJFfXQV1mid6UafZ9Jg0Z+FeMJqZ0c2mi/tDfK0VFdMVsP8GbYo2xvKQ/D4k5DGibP6+ejq0I/Idh3a33XYbxGlLT2XEaYQy8iG1ZZyn9ddff6D6yv9EwRY5rGWkpd3nxGmkvdOP5yMyuA55T7RjVkyqds8IJTxRjmgQlkzRx2Whby56XD79HHvU5AUZhA76PBzp1Je2m870RaSN/jw79lE/GZdZtsyYwh44eZo9rtk2UAbkETYGS7uKIEILoYkxlLqCwMM4VXT/RVAPgfzP1sNqdaYetcbzrraXsEeIHCQyDAGKet5qP9wb7ZQEE1fUXfaOTIIsdZZx98477wxrrbVW/ExERKQIxacuhifWYIACDjBGKGvrCZVGgEib4WJg8LQgjFFC8RnoeeVhhhJDCoOKTUuJ/GBPH5wQDBhm9vLLDLKwHxOz0zganItlHklg6Oy5uwP28EqzcRhIGPSIChhxGNBE8gD3wL2Qv3yPWJEeYZwFIYy9K1KZYdjhsO27775hmWWWiQ5f0RPBiCbjmhhiXIP845HHM888czRcMdKZXQSWKuAQs4SgWqRBs2AUck3KFQOTpR6UH5sOc71Gy426wf4tpBeBhs1kU/1gKQIby5IHLBUgwoElPSwRoG6wTwVLfroa6jRtCVhSus8++8T/gftHVMMxoWzYEJnleuQNaUWc6k5w/tj8lvxmBp48JI3kKX/JY5zX5Bj0FmgDLOWkXeCsI7SS57xwWFjywYw+AgWUkQ+pLdN34WixnwkRmbz4n7adltZkKSMt7T4n94bTyu8ZL7gn2iJtn2gW2jvfscEy50/3TNRT0T3TrukrGZdweuk/aCf0oTx+nTaU9odJ0N8iMCCa0f65F9LAMjIErrS5cRl0pi9iXEVQQJQnb7hP6kmKSOOe+SxPs8c12wbK4MUXX4x5RLmzN14RjKFEvqUIHMQo6msjcB/kCaLOWWedFe+NukOdoW/N15l61BrPu8Neot0whvBbypEJjnoR40X0RjslQX9FvWC5YgKximsiNLPJvIiISDUUn7oYBngMGDaRRRjgxRORmHHDoGcvAgxpjBvgLxtB4igUGaX8FiMrhVxzPmbVMKA4V72nsmBUEt2SjB0EBsLJERg6e+7ugDTj1LF5ako3ecisIPeKI8QMJvcB/Ib9Inj8eDLc8pD3hx12WMyj7Dm5Fsclg5pZ2DT7SBj8Sy+9FI0+8g04lnLGAUF0TJFdXJ/6wIuIg3aBCIODgzOAuEXYPcshKDfqWqOQzrRpPPWD6IYkQFGXmWUlL7j/iSaaKC5JwAhlY1QcURzBriYvQKU9zagDiFHcE+XG/WBMk/fHHntsaZEZzUDaqB885p40YtSTp0Su4GzRh+Ag9DbId55EiPOEU4WDyiw67QOnh7aUXdpURj5k2zKOFxEgRB7QVtn/hfZZRBlpafc5uTf6EvaEYWIjOdSpj+c6vKfO007pI8mLonumfyDiItt/UF60cQQVnhqW+rUE/QPlx+8Rm7gX8pbPia5ApGlUxGiFVvsixlXyDqGd+2TpJccg5lFfceCLaOW4ZttAu0GIJC8QYRAYiqBepnqEQNLIRuMJyoAIM/KA++PeaGc8+v+SSy4ZpM7Uo9Z43h32EvAbxhbOwT2yt1mze4fWuq+eaqcA/SXCPeciPYlnn3021hXSS3sQERGpxhD/bxw0Zw2IyEAw407YP0YdDiNGpYjI4ArLeRChWTrEU8KIGJHeAUtOWZJFJBKiSZmCoPQc2mGnWHdERKSzDDXGGGP8sSZFRJqCCCAcMZanMMvIEgNmEkVEBld4KhjL24giYVkO++9I74DlUoxbRF0RRVNmpFVfgSWTLG9jz8ZaLyLOssvVuop22ClEPbGvFvtjEfnIUj8REZFmcdmdSIuwVwMbm7JMBtKyExGRwRX6PTYYZjkVy8dq7ZEjPQ+iVdgcGhGCh10gQknnYK8zxJ16r2pLHcukXXYKT8xjGeVTTz0VxScREZFWcNmdSB2OOOKIuEErRhd7GwD7prCxLPt8sDEn+0uweWlv3ItHRCQLS2vmnnvucN5554U77rij8umAp4PxZCw2FWZ/l+OOOy7u8yO9D/afYj889ugpez8uKZ8y7RQ2yCe6izaf9qMSERFpBcUnkTqwwShPnqoGG3TioO2///4a8CLS69lss83iE7h4qhVPPmMz4eGHHz46szwpkqgZomfY2F9Euh/tFBER6Q2455NIHXgUMSHrOF84Y8wg8mQYnvjyyiuvRKOPJ82wkaeISG+Hp2KyPw2P/mePl7HGGiu+R3Siz+OJbTxKX0R6BtopIiLSGzDySURERERERERESsMNx0VEREREREREpDQUn0REREREREREpDQUn0REREREREREpDQUn0REREREREREpDQUn0REREREREREpDQUn0REREREREREpDQUn0REREREREREpDQUn0REREREREREpDQUn0REREREREREpDQUn0REREREREREpDQUn0REREREREREpDQUn0REREREREREpDQUn0REREREREREpDQUn0REREREREREpDQUn0REREREREREpDQUn0REREREREREpDQUn0REREREREREpDQUn0REREREREREpDQUn0REREREREREpDQUn0REREREREREpDQUn0REREREREREpDQUn0REREREREREpDQUn0REREREREREpDQUn0REREREREREpDQUn0REREREREREpDQUn0REREREREREpDQUn0REREREREREpDQUn0REREREREREpDQUn0REREREREREpDQUn0REREREREREpDQUn0REREREREREpDQUn0REREREREREpDQUn0REREREREREpDQUn0REREREREREpDQUn0REREREREREpDQUn0REREREREREpDQUn0REREREREREpDQUn0REREREREREpDQUn0REREREREREpDQUn0REREREREREpCRC+D8GnFXWMEjdXgAAAABJRU5ErkJggg==;" vertex="1" parent="WIyWlLk6GJQsqaUBKTNV-1">
          <mxGeometry x="40" y="680" width="344.56" height="120" as="geometry" />
        </mxCell>
      </root>
    </mxGraphModel>
  </diagram>
</mxfile>
